<?xml version="1.0" encoding="us-ascii" standalone="no"?><svg xmlns="http://www.w3.org/2000/svg" xmlns:xlink="http://www.w3.org/1999/xlink" contentStyleType="text/css" height="560px" preserveAspectRatio="none" style="width:2424px;height:560px;background:#FFFFFF;" version="1.1" viewBox="0 0 2424 560" width="2424px" zoomAndPan="magnify"><defs/><g><!--cluster application--><g id="cluster_application"><rect fill="none" height="547" rx="2.5" ry="2.5" style="stroke:#000000;stroke-width:1.5;" width="2093" x="7" y="7"/><text fill="#000000" font-family="sans-serif" font-size="14" font-weight="bold" lengthAdjust="spacing" textLength="77" x="1015" y="23.5332">application</text></g><!--cluster ports--><g id="cluster_ports"><rect fill="none" height="164" rx="2.5" ry="2.5" style="stroke:#181818;stroke-width:1.0;" width="710" x="1366" y="342"/><text fill="#000000" font-family="sans-serif" font-size="14" font-weight="bold" lengthAdjust="spacing" textLength="37" x="1702.5" y="358.5332">ports</text></g><!--cluster services--><g id="cluster_services"><rect fill="none" height="479" rx="2.5" ry="2.5" style="stroke:#000000;stroke-width:1.5;" width="1311" x="31" y="51"/><text fill="#000000" font-family="sans-serif" font-size="14" font-weight="bold" lengthAdjust="spacing" textLength="61" x="656" y="67.5332">services</text></g><!--cluster world--><g id="cluster_world"><rect fill="none" height="379" rx="2.5" ry="2.5" style="stroke:#181818;stroke-width:1.0;" width="487" x="831" y="95"/><text fill="#000000" font-family="sans-serif" font-size="14" font-weight="bold" lengthAdjust="spacing" textLength="39" x="1055" y="111.5332">world</text></g><!--cluster visualization_contract--><g id="cluster_visualization_contract"><rect fill="none" height="411" rx="2.5" ry="2.5" style="stroke:#181818;stroke-width:1.0;" width="752" x="55" y="95"/><text fill="#000000" font-family="sans-serif" font-size="14" font-weight="bold" lengthAdjust="spacing" textLength="154" x="354" y="111.5332">visualization_contract</text></g><!--cluster simpy_engine--><g id="cluster_simpy_engine"><rect fill="none" height="232" rx="2.5" ry="2.5" style="stroke:#000000;stroke-width:1.5;" width="294" x="2124" y="86"/><text fill="#000000" font-family="sans-serif" font-size="14" font-weight="bold" lengthAdjust="spacing" textLength="97" x="2222.5" y="102.5332">simpy_engine</text></g><!--cluster log--><g id="cluster_log"><rect fill="none" height="164" rx="2.5" ry="2.5" style="stroke:#181818;stroke-width:1.0;" width="246" x="2148" y="130"/><text fill="#000000" font-family="sans-serif" font-size="14" font-weight="bold" lengthAdjust="spacing" textLength="22" x="2260" y="146.5332">log</text></g><!--class BusProviderPort--><g id="elem_BusProviderPort"><rect codeLine="245" fill="#F1F1F1" height="76.3125" id="BusProviderPort" rx="2.5" ry="2.5" style="stroke:#181818;stroke-width:0.5;" width="153" x="1906.5" y="396"/><ellipse cx="1930.05" cy="417.3516" fill="#A9DCDF" rx="11" ry="11" style="stroke:#181818;stroke-width:1.0;"/><path d="M1932.2375,419.1172 L1928.0969,419.1172 L1927.675,420.1484 L1928.0969,420.1484 Q1928.7063,420.1484 1928.9719,420.3828 Q1929.2375,420.6172 1929.2375,421.0078 Q1929.2375,421.3828 1928.9719,421.6172 Q1928.7063,421.8516 1928.0969,421.8516 L1925.8,421.8516 Q1925.1906,421.8516 1924.9406,421.6172 Q1924.675,421.3828 1924.675,420.9922 Q1924.675,420.6172 1924.9563,420.3828 Q1925.2219,420.1328 1925.8469,420.1484 L1928.5188,413.4922 L1927.4094,413.4922 Q1926.8,413.4922 1926.5344,413.2578 Q1926.2688,413.0234 1926.2688,412.6328 Q1926.2688,412.2578 1926.5344,412.0234 Q1926.8,411.7891 1927.4094,411.7891 L1931.0813,411.7891 L1934.4719,420.1484 Q1935.0656,420.1484 1935.2531,420.2891 Q1935.6438,420.5547 1935.6438,421.0078 Q1935.6438,421.3828 1935.3781,421.6172 Q1935.1281,421.8516 1934.5188,421.8516 L1932.2219,421.8516 Q1931.6125,421.8516 1931.3469,421.6172 Q1931.0813,421.3828 1931.0813,420.9922 Q1931.0813,420.6172 1931.3469,420.3828 Q1931.6125,420.1484 1932.2219,420.1484 L1932.6438,420.1484 L1932.2375,419.1172 Z M1931.5188,417.4141 L1930.1594,414.0391 L1928.7844,417.4141 L1931.5188,417.4141 Z " fill="#000000"/><text fill="#000000" font-family="sans-serif" font-size="12" font-style="italic" lengthAdjust="spacing" textLength="35" x="1979.45" y="413.457">&#171;port&#187;</text><text fill="#000000" font-family="sans-serif" font-size="14" font-style="italic" lengthAdjust="spacing" textLength="102" x="1945.95" y="430.627">BusProviderPort</text><line style="stroke:#181818;stroke-width:0.5;" x1="1907.5" x2="2058.5" y1="438.7031" y2="438.7031"/><line style="stroke:#181818;stroke-width:0.5;" x1="1907.5" x2="2058.5" y1="446.7031" y2="446.7031"/><text fill="#000000" font-family="sans-serif" font-size="14" font-style="italic" lengthAdjust="spacing" textLength="141" x="1912.5" y="465.2363">+get_buses(): list[Bus]</text></g><!--class PlanningProviderPort--><g id="elem_PlanningProviderPort"><rect codeLine="248" fill="#F1F1F1" height="76.3125" id="PlanningProviderPort" rx="2.5" ry="2.5" style="stroke:#181818;stroke-width:0.5;" width="167" x="1704.5" y="396"/><ellipse cx="1720.4" cy="417.3516" fill="#A9DCDF" rx="11" ry="11" style="stroke:#181818;stroke-width:1.0;"/><path d="M1722.5875,419.1172 L1718.4469,419.1172 L1718.025,420.1484 L1718.4469,420.1484 Q1719.0563,420.1484 1719.3219,420.3828 Q1719.5875,420.6172 1719.5875,421.0078 Q1719.5875,421.3828 1719.3219,421.6172 Q1719.0563,421.8516 1718.4469,421.8516 L1716.15,421.8516 Q1715.5406,421.8516 1715.2906,421.6172 Q1715.025,421.3828 1715.025,420.9922 Q1715.025,420.6172 1715.3063,420.3828 Q1715.5719,420.1328 1716.1969,420.1484 L1718.8688,413.4922 L1717.7594,413.4922 Q1717.15,413.4922 1716.8844,413.2578 Q1716.6188,413.0234 1716.6188,412.6328 Q1716.6188,412.2578 1716.8844,412.0234 Q1717.15,411.7891 1717.7594,411.7891 L1721.4313,411.7891 L1724.8219,420.1484 Q1725.4156,420.1484 1725.6031,420.2891 Q1725.9938,420.5547 1725.9938,421.0078 Q1725.9938,421.3828 1725.7281,421.6172 Q1725.4781,421.8516 1724.8688,421.8516 L1722.5719,421.8516 Q1721.9625,421.8516 1721.6969,421.6172 Q1721.4313,421.3828 1721.4313,420.9922 Q1721.4313,420.6172 1721.6969,420.3828 Q1721.9625,420.1484 1722.5719,420.1484 L1722.9938,420.1484 L1722.5875,419.1172 Z M1721.8688,417.4141 L1720.5094,414.0391 L1719.1344,417.4141 L1721.8688,417.4141 Z " fill="#000000"/><text fill="#000000" font-family="sans-serif" font-size="12" font-style="italic" lengthAdjust="spacing" textLength="35" x="1783.6" y="413.457">&#171;port&#187;</text><text fill="#000000" font-family="sans-serif" font-size="14" font-style="italic" lengthAdjust="spacing" textLength="133" x="1734.6" y="430.627">PlanningProviderPort</text><line style="stroke:#181818;stroke-width:0.5;" x1="1705.5" x2="1870.5" y1="438.7031" y2="438.7031"/><line style="stroke:#181818;stroke-width:0.5;" x1="1705.5" x2="1870.5" y1="446.7031" y2="446.7031"/><text fill="#000000" font-family="sans-serif" font-size="14" font-style="italic" lengthAdjust="spacing" textLength="155" x="1710.5" y="465.2363">+get_blocks(): list[Block]</text></g><!--class InfrastructureProviderPort--><g id="elem_InfrastructureProviderPort"><rect codeLine="251" fill="#F1F1F1" height="111.5313" id="InfrastructureProviderPort" rx="2.5" ry="2.5" style="stroke:#181818;stroke-width:0.5;" width="287" x="1382.5" y="378"/><ellipse cx="1440.25" cy="399.3516" fill="#A9DCDF" rx="11" ry="11" style="stroke:#181818;stroke-width:1.0;"/><path d="M1442.4375,401.1172 L1438.2969,401.1172 L1437.875,402.1484 L1438.2969,402.1484 Q1438.9063,402.1484 1439.1719,402.3828 Q1439.4375,402.6172 1439.4375,403.0078 Q1439.4375,403.3828 1439.1719,403.6172 Q1438.9063,403.8516 1438.2969,403.8516 L1436,403.8516 Q1435.3906,403.8516 1435.1406,403.6172 Q1434.875,403.3828 1434.875,402.9922 Q1434.875,402.6172 1435.1563,402.3828 Q1435.4219,402.1328 1436.0469,402.1484 L1438.7188,395.4922 L1437.6094,395.4922 Q1437,395.4922 1436.7344,395.2578 Q1436.4688,395.0234 1436.4688,394.6328 Q1436.4688,394.2578 1436.7344,394.0234 Q1437,393.7891 1437.6094,393.7891 L1441.2813,393.7891 L1444.6719,402.1484 Q1445.2656,402.1484 1445.4531,402.2891 Q1445.8438,402.5547 1445.8438,403.0078 Q1445.8438,403.3828 1445.5781,403.6172 Q1445.3281,403.8516 1444.7188,403.8516 L1442.4219,403.8516 Q1441.8125,403.8516 1441.5469,403.6172 Q1441.2813,403.3828 1441.2813,402.9922 Q1441.2813,402.6172 1441.5469,402.3828 Q1441.8125,402.1484 1442.4219,402.1484 L1442.8438,402.1484 L1442.4375,401.1172 Z M1441.7188,399.4141 L1440.3594,396.0391 L1438.9844,399.4141 L1441.7188,399.4141 Z " fill="#000000"/><text fill="#000000" font-family="sans-serif" font-size="12" font-style="italic" lengthAdjust="spacing" textLength="35" x="1524.75" y="395.457">&#171;port&#187;</text><text fill="#000000" font-family="sans-serif" font-size="14" font-style="italic" lengthAdjust="spacing" textLength="163" x="1460.75" y="412.627">InfrastructureProviderPort</text><line style="stroke:#181818;stroke-width:0.5;" x1="1383.5" x2="1668.5" y1="420.7031" y2="420.7031"/><line style="stroke:#181818;stroke-width:0.5;" x1="1383.5" x2="1668.5" y1="428.7031" y2="428.7031"/><text fill="#000000" font-family="sans-serif" font-size="14" font-style="italic" lengthAdjust="spacing" textLength="137" x="1388.5" y="447.2363">+get_grids(): list[Grid]</text><text fill="#000000" font-family="sans-serif" font-size="14" font-style="italic" lengthAdjust="spacing" textLength="189" x="1388.5" y="464.8457">+get_locations(): list[Location]</text><text fill="#000000" font-family="sans-serif" font-size="14" lengthAdjust="spacing" textLength="275" x="1388.5" y="482.4551">+get_location_grid_links(): list[tuple[str, str]]</text></g><!--class WorldBuildResult--><g id="elem_WorldBuildResult"><rect codeLine="259" fill="#F1F1F1" height="181.9688" id="WorldBuildResult" rx="2.5" ry="2.5" style="stroke:#181818;stroke-width:0.5;" width="140" x="1162" y="131"/><ellipse cx="1177" cy="152.3516" fill="#ADD1B2" rx="11" ry="11" style="stroke:#181818;stroke-width:1.0;"/><path d="M1179.7656,148.2266 Q1179.9219,148.0078 1180.1094,147.8984 Q1180.2969,147.7891 1180.5156,147.7891 Q1180.8906,147.7891 1181.125,148.0547 Q1181.3594,148.3047 1181.3594,148.9141 L1181.3594,150.3672 Q1181.3594,150.9766 1181.125,151.2422 Q1180.8906,151.5078 1180.5156,151.5078 Q1180.1719,151.5078 1179.9688,151.3047 Q1179.7656,151.1172 1179.6563,150.6016 Q1179.6094,150.2422 1179.4219,150.0547 Q1179.0938,149.6797 1178.4844,149.4609 Q1177.875,149.2422 1177.25,149.2422 Q1176.4844,149.2422 1175.8438,149.5703 Q1175.2188,149.8984 1174.7188,150.6484 Q1174.2344,151.3984 1174.2344,152.4297 L1174.2344,153.5234 Q1174.2344,154.7578 1175.125,155.5859 Q1176.0156,156.3984 1177.6094,156.3984 Q1178.5469,156.3984 1179.2031,156.1484 Q1179.5938,155.9922 1180.0156,155.5547 Q1180.2813,155.2891 1180.4219,155.2109 Q1180.5781,155.1328 1180.7813,155.1328 Q1181.1094,155.1328 1181.3594,155.3984 Q1181.625,155.6484 1181.625,155.9922 Q1181.625,156.3359 1181.2813,156.7422 Q1180.7813,157.3203 1179.9844,157.6484 Q1178.9063,158.1016 1177.6094,158.1016 Q1176.0938,158.1016 1174.8906,157.4766 Q1173.9063,156.9766 1173.2188,155.9141 Q1172.5313,154.8359 1172.5313,153.5547 L1172.5313,152.3984 Q1172.5313,151.0703 1173.1406,149.9297 Q1173.7656,148.7734 1174.8594,148.1641 Q1175.9531,147.5391 1177.1875,147.5391 Q1177.9219,147.5391 1178.5625,147.7109 Q1179.2188,147.8672 1179.7656,148.2266 Z " fill="#000000"/><text fill="#000000" font-family="sans-serif" font-size="12" font-style="italic" lengthAdjust="spacing" textLength="39" x="1225.5" y="148.457">&#171;DTO&#187;</text><text fill="#000000" font-family="sans-serif" font-size="14" lengthAdjust="spacing" textLength="108" x="1191" y="165.627">WorldBuildResult</text><line style="stroke:#181818;stroke-width:0.5;" x1="1163" x2="1301" y1="173.7031" y2="173.7031"/><text fill="#000000" font-family="sans-serif" font-size="14" lengthAdjust="spacing" textLength="86" x="1168" y="192.2363">+world: World</text><text fill="#000000" font-family="sans-serif" font-size="14" lengthAdjust="spacing" textLength="85" x="1168" y="209.8457">+n_buses: int</text><text fill="#000000" font-family="sans-serif" font-size="14" lengthAdjust="spacing" textLength="78" x="1168" y="227.4551">+n_grids: int</text><text fill="#000000" font-family="sans-serif" font-size="14" lengthAdjust="spacing" textLength="103" x="1168" y="245.0645">+n_locations: int</text><text fill="#000000" font-family="sans-serif" font-size="14" lengthAdjust="spacing" textLength="87" x="1168" y="262.6738">+n_blocks: int</text><text fill="#000000" font-family="sans-serif" font-size="14" lengthAdjust="spacing" textLength="101" x="1168" y="280.2832">+n_journeys: int</text><text fill="#000000" font-family="sans-serif" font-size="14" lengthAdjust="spacing" textLength="85" x="1168" y="297.8926">+n_points: int</text><line style="stroke:#181818;stroke-width:0.5;" x1="1163" x2="1301" y1="304.9688" y2="304.9688"/></g><!--class WorldBuilder--><g id="elem_WorldBuilder"><rect codeLine="268" fill="#F1F1F1" height="129.1406" id="WorldBuilder" rx="2.5" ry="2.5" style="stroke:#181818;stroke-width:0.5;" width="280" x="847" y="157.5"/><ellipse cx="942.25" cy="178.8516" fill="#ADD1B2" rx="11" ry="11" style="stroke:#181818;stroke-width:1.0;"/><path d="M945.0156,174.7266 Q945.1719,174.5078 945.3594,174.3984 Q945.5469,174.2891 945.7656,174.2891 Q946.1406,174.2891 946.375,174.5547 Q946.6094,174.8047 946.6094,175.4141 L946.6094,176.8672 Q946.6094,177.4766 946.375,177.7422 Q946.1406,178.0078 945.7656,178.0078 Q945.4219,178.0078 945.2188,177.8047 Q945.0156,177.6172 944.9063,177.1016 Q944.8594,176.7422 944.6719,176.5547 Q944.3438,176.1797 943.7344,175.9609 Q943.125,175.7422 942.5,175.7422 Q941.7344,175.7422 941.0938,176.0703 Q940.4688,176.3984 939.9688,177.1484 Q939.4844,177.8984 939.4844,178.9297 L939.4844,180.0234 Q939.4844,181.2578 940.375,182.0859 Q941.2656,182.8984 942.8594,182.8984 Q943.7969,182.8984 944.4531,182.6484 Q944.8438,182.4922 945.2656,182.0547 Q945.5313,181.7891 945.6719,181.7109 Q945.8281,181.6328 946.0313,181.6328 Q946.3594,181.6328 946.6094,181.8984 Q946.875,182.1484 946.875,182.4922 Q946.875,182.8359 946.5313,183.2422 Q946.0313,183.8203 945.2344,184.1484 Q944.1563,184.6016 942.8594,184.6016 Q941.3438,184.6016 940.1406,183.9766 Q939.1563,183.4766 938.4688,182.4141 Q937.7813,181.3359 937.7813,180.0547 L937.7813,178.8984 Q937.7813,177.5703 938.3906,176.4297 Q939.0156,175.2734 940.1094,174.6641 Q941.2031,174.0391 942.4375,174.0391 Q943.1719,174.0391 943.8125,174.2109 Q944.4688,174.3672 945.0156,174.7266 Z " fill="#000000"/><text fill="#000000" font-family="sans-serif" font-size="12" font-style="italic" lengthAdjust="spacing" textLength="53" x="976.75" y="174.957">&#171;service&#187;</text><text fill="#000000" font-family="sans-serif" font-size="14" lengthAdjust="spacing" textLength="81" x="962.75" y="192.127">WorldBuilder</text><line style="stroke:#181818;stroke-width:0.5;" x1="848" x2="1126" y1="200.2031" y2="200.2031"/><text fill="#000000" font-family="sans-serif" font-size="14" lengthAdjust="spacing" textLength="209" x="853" y="218.7363">-_planning: PlanningProviderPort</text><text fill="#000000" font-family="sans-serif" font-size="14" lengthAdjust="spacing" textLength="268" x="853" y="236.3457">-_infrastructure: InfrastructureProviderPort</text><text fill="#000000" font-family="sans-serif" font-size="14" lengthAdjust="spacing" textLength="162" x="853" y="253.9551">-_buses: BusProviderPort</text><line style="stroke:#181818;stroke-width:1.0;" x1="848" x2="1126" y1="261.0313" y2="261.0313"/><text fill="#000000" font-family="sans-serif" font-size="14" lengthAdjust="spacing" textLength="164" x="853" y="279.5645">+build(): WorldBuildResult</text></g><!--class World--><g id="elem_World"><rect fill="#F1F1F1" height="48" id="World" rx="2.5" ry="2.5" style="stroke:#181818;stroke-width:0.5;" width="69" x="952.5" y="410"/><ellipse cx="967.5" cy="426" fill="#ADD1B2" rx="11" ry="11" style="stroke:#181818;stroke-width:1.0;"/><path d="M970.2656,421.875 Q970.4219,421.6563 970.6094,421.5469 Q970.7969,421.4375 971.0156,421.4375 Q971.3906,421.4375 971.625,421.7031 Q971.8594,421.9531 971.8594,422.5625 L971.8594,424.0156 Q971.8594,424.625 971.625,424.8906 Q971.3906,425.1563 971.0156,425.1563 Q970.6719,425.1563 970.4688,424.9531 Q970.2656,424.7656 970.1563,424.25 Q970.1094,423.8906 969.9219,423.7031 Q969.5938,423.3281 968.9844,423.1094 Q968.375,422.8906 967.75,422.8906 Q966.9844,422.8906 966.3438,423.2188 Q965.7188,423.5469 965.2188,424.2969 Q964.7344,425.0469 964.7344,426.0781 L964.7344,427.1719 Q964.7344,428.4063 965.625,429.2344 Q966.5156,430.0469 968.1094,430.0469 Q969.0469,430.0469 969.7031,429.7969 Q970.0938,429.6406 970.5156,429.2031 Q970.7813,428.9375 970.9219,428.8594 Q971.0781,428.7813 971.2813,428.7813 Q971.6094,428.7813 971.8594,429.0469 Q972.125,429.2969 972.125,429.6406 Q972.125,429.9844 971.7813,430.3906 Q971.2813,430.9688 970.4844,431.2969 Q969.4063,431.75 968.1094,431.75 Q966.5938,431.75 965.3906,431.125 Q964.4063,430.625 963.7188,429.5625 Q963.0313,428.4844 963.0313,427.2031 L963.0313,426.0469 Q963.0313,424.7188 963.6406,423.5781 Q964.2656,422.4219 965.3594,421.8125 Q966.4531,421.1875 967.6875,421.1875 Q968.4219,421.1875 969.0625,421.3594 Q969.7188,421.5156 970.2656,421.875 Z " fill="#000000"/><text fill="#000000" font-family="sans-serif" font-size="14" lengthAdjust="spacing" textLength="37" x="981.5" y="431.7285">World</text><line style="stroke:#181818;stroke-width:0.5;" x1="953.5" x2="1020.5" y1="442" y2="442"/><line style="stroke:#181818;stroke-width:0.5;" x1="953.5" x2="1020.5" y1="450" y2="450"/></g><!--class ClassifiedLogger--><g id="elem_ClassifiedLogger"><rect codeLine="282" fill="#F1F1F1" height="111.5313" id="ClassifiedLogger" rx="2.5" ry="2.5" style="stroke:#181818;stroke-width:0.5;" width="157" x="360.5" y="378"/><ellipse cx="384.05" cy="399.3516" fill="#ADD1B2" rx="11" ry="11" style="stroke:#181818;stroke-width:1.0;"/><path d="M386.8156,395.2266 Q386.9719,395.0078 387.1594,394.8984 Q387.3469,394.7891 387.5656,394.7891 Q387.9406,394.7891 388.175,395.0547 Q388.4094,395.3047 388.4094,395.9141 L388.4094,397.3672 Q388.4094,397.9766 388.175,398.2422 Q387.9406,398.5078 387.5656,398.5078 Q387.2219,398.5078 387.0188,398.3047 Q386.8156,398.1172 386.7063,397.6016 Q386.6594,397.2422 386.4719,397.0547 Q386.1438,396.6797 385.5344,396.4609 Q384.925,396.2422 384.3,396.2422 Q383.5344,396.2422 382.8938,396.5703 Q382.2688,396.8984 381.7688,397.6484 Q381.2844,398.3984 381.2844,399.4297 L381.2844,400.5234 Q381.2844,401.7578 382.175,402.5859 Q383.0656,403.3984 384.6594,403.3984 Q385.5969,403.3984 386.2531,403.1484 Q386.6438,402.9922 387.0656,402.5547 Q387.3313,402.2891 387.4719,402.2109 Q387.6281,402.1328 387.8313,402.1328 Q388.1594,402.1328 388.4094,402.3984 Q388.675,402.6484 388.675,402.9922 Q388.675,403.3359 388.3313,403.7422 Q387.8313,404.3203 387.0344,404.6484 Q385.9563,405.1016 384.6594,405.1016 Q383.1438,405.1016 381.9406,404.4766 Q380.9563,403.9766 380.2688,402.9141 Q379.5813,401.8359 379.5813,400.5547 L379.5813,399.3984 Q379.5813,398.0703 380.1906,396.9297 Q380.8156,395.7734 381.9094,395.1641 Q383.0031,394.5391 384.2375,394.5391 Q384.9719,394.5391 385.6125,394.7109 Q386.2688,394.8672 386.8156,395.2266 Z " fill="#000000"/><text fill="#000000" font-family="sans-serif" font-size="12" font-style="italic" lengthAdjust="spacing" textLength="39" x="433.45" y="395.457">&#171;DTO&#187;</text><text fill="#000000" font-family="sans-serif" font-size="14" lengthAdjust="spacing" textLength="106" x="399.95" y="412.627">ClassifiedLogger</text><line style="stroke:#181818;stroke-width:0.5;" x1="361.5" x2="516.5" y1="420.7031" y2="420.7031"/><text fill="#000000" font-family="sans-serif" font-size="14" lengthAdjust="spacing" textLength="113" x="366.5" y="439.2363">+bus_log: list[dict]</text><text fill="#000000" font-family="sans-serif" font-size="14" lengthAdjust="spacing" textLength="144" x="366.5" y="456.8457">+planning_log: list[dict]</text><text fill="#000000" font-family="sans-serif" font-size="14" lengthAdjust="spacing" textLength="145" x="366.5" y="474.4551">+laadinfra_log: list[dict]</text><line style="stroke:#181818;stroke-width:0.5;" x1="361.5" x2="516.5" y1="481.5313" y2="481.5313"/></g><!--class VisualizationWorldView--><g id="elem_VisualizationWorldView"><rect codeLine="287" fill="#F1F1F1" height="111.5313" id="VisualizationWorldView" rx="2.5" ry="2.5" style="stroke:#181818;stroke-width:0.5;" width="192" x="553" y="378"/><ellipse cx="575.2" cy="399.3516" fill="#ADD1B2" rx="11" ry="11" style="stroke:#181818;stroke-width:1.0;"/><path d="M577.9656,395.2266 Q578.1219,395.0078 578.3094,394.8984 Q578.4969,394.7891 578.7156,394.7891 Q579.0906,394.7891 579.325,395.0547 Q579.5594,395.3047 579.5594,395.9141 L579.5594,397.3672 Q579.5594,397.9766 579.325,398.2422 Q579.0906,398.5078 578.7156,398.5078 Q578.3719,398.5078 578.1688,398.3047 Q577.9656,398.1172 577.8563,397.6016 Q577.8094,397.2422 577.6219,397.0547 Q577.2938,396.6797 576.6844,396.4609 Q576.075,396.2422 575.45,396.2422 Q574.6844,396.2422 574.0438,396.5703 Q573.4188,396.8984 572.9188,397.6484 Q572.4344,398.3984 572.4344,399.4297 L572.4344,400.5234 Q572.4344,401.7578 573.325,402.5859 Q574.2156,403.3984 575.8094,403.3984 Q576.7469,403.3984 577.4031,403.1484 Q577.7938,402.9922 578.2156,402.5547 Q578.4813,402.2891 578.6219,402.2109 Q578.7781,402.1328 578.9813,402.1328 Q579.3094,402.1328 579.5594,402.3984 Q579.825,402.6484 579.825,402.9922 Q579.825,403.3359 579.4813,403.7422 Q578.9813,404.3203 578.1844,404.6484 Q577.1063,405.1016 575.8094,405.1016 Q574.2938,405.1016 573.0906,404.4766 Q572.1063,403.9766 571.4188,402.9141 Q570.7313,401.8359 570.7313,400.5547 L570.7313,399.3984 Q570.7313,398.0703 571.3406,396.9297 Q571.9656,395.7734 573.0594,395.1641 Q574.1531,394.5391 575.3875,394.5391 Q576.1219,394.5391 576.7625,394.7109 Q577.4188,394.8672 577.9656,395.2266 Z " fill="#000000"/><text fill="#000000" font-family="sans-serif" font-size="12" font-style="italic" lengthAdjust="spacing" textLength="39" x="643.3" y="395.457">&#171;DTO&#187;</text><text fill="#000000" font-family="sans-serif" font-size="14" lengthAdjust="spacing" textLength="144" x="590.8" y="412.627">VisualizationWorldView</text><line style="stroke:#181818;stroke-width:0.5;" x1="554" x2="744" y1="420.7031" y2="420.7031"/><text fill="#000000" font-family="sans-serif" font-size="14" lengthAdjust="spacing" textLength="144" x="559" y="439.2363">+blocks: dict[str, Block]</text><text fill="#000000" font-family="sans-serif" font-size="14" lengthAdjust="spacing" textLength="180" x="559" y="456.8457">+locations: dict[str, Location]</text><text fill="#000000" font-family="sans-serif" font-size="14" lengthAdjust="spacing" textLength="103" x="559" y="474.4551">+buses: list[Bus]</text><line style="stroke:#181818;stroke-width:0.5;" x1="554" x2="744" y1="481.5313" y2="481.5313"/></g><!--class VisualizationSimulationResult--><g id="elem_VisualizationSimulationResult"><rect codeLine="292" fill="#F1F1F1" height="181.9688" id="VisualizationSimulationResult" rx="2.5" ry="2.5" style="stroke:#181818;stroke-width:0.5;" width="373" x="417.5" y="131"/><ellipse cx="508.25" cy="152.3516" fill="#ADD1B2" rx="11" ry="11" style="stroke:#181818;stroke-width:1.0;"/><path d="M511.0156,148.2266 Q511.1719,148.0078 511.3594,147.8984 Q511.5469,147.7891 511.7656,147.7891 Q512.1406,147.7891 512.375,148.0547 Q512.6094,148.3047 512.6094,148.9141 L512.6094,150.3672 Q512.6094,150.9766 512.375,151.2422 Q512.1406,151.5078 511.7656,151.5078 Q511.4219,151.5078 511.2188,151.3047 Q511.0156,151.1172 510.9063,150.6016 Q510.8594,150.2422 510.6719,150.0547 Q510.3438,149.6797 509.7344,149.4609 Q509.125,149.2422 508.5,149.2422 Q507.7344,149.2422 507.0938,149.5703 Q506.4688,149.8984 505.9688,150.6484 Q505.4844,151.3984 505.4844,152.4297 L505.4844,153.5234 Q505.4844,154.7578 506.375,155.5859 Q507.2656,156.3984 508.8594,156.3984 Q509.7969,156.3984 510.4531,156.1484 Q510.8438,155.9922 511.2656,155.5547 Q511.5313,155.2891 511.6719,155.2109 Q511.8281,155.1328 512.0313,155.1328 Q512.3594,155.1328 512.6094,155.3984 Q512.875,155.6484 512.875,155.9922 Q512.875,156.3359 512.5313,156.7422 Q512.0313,157.3203 511.2344,157.6484 Q510.1563,158.1016 508.8594,158.1016 Q507.3438,158.1016 506.1406,157.4766 Q505.1563,156.9766 504.4688,155.9141 Q503.7813,154.8359 503.7813,153.5547 L503.7813,152.3984 Q503.7813,151.0703 504.3906,149.9297 Q505.0156,148.7734 506.1094,148.1641 Q507.2031,147.5391 508.4375,147.5391 Q509.1719,147.5391 509.8125,147.7109 Q510.4688,147.8672 511.0156,148.2266 Z " fill="#000000"/><text fill="#000000" font-family="sans-serif" font-size="12" font-style="italic" lengthAdjust="spacing" textLength="39" x="600.75" y="148.457">&#171;DTO&#187;</text><text fill="#000000" font-family="sans-serif" font-size="14" lengthAdjust="spacing" textLength="183" x="528.75" y="165.627">VisualizationSimulationResult</text><line style="stroke:#181818;stroke-width:0.5;" x1="418.5" x2="789.5" y1="173.7031" y2="173.7031"/><text fill="#000000" font-family="sans-serif" font-size="14" lengthAdjust="spacing" textLength="193" x="423.5" y="192.2363">+world: VisualizationWorldView</text><text fill="#000000" font-family="sans-serif" font-size="14" lengthAdjust="spacing" textLength="228" x="423.5" y="209.8457">+classified_logger: ClassifiedLogger</text><text fill="#000000" font-family="sans-serif" font-size="14" lengthAdjust="spacing" textLength="122" x="423.5" y="227.4551">+current_time: float</text><text fill="#000000" font-family="sans-serif" font-size="14" lengthAdjust="spacing" textLength="361" x="423.5" y="245.0645">+simulation_start_time / simulation_end_time: float | None</text><text fill="#000000" font-family="sans-serif" font-size="14" lengthAdjust="spacing" textLength="220" x="423.5" y="262.6738">+completed_journeys: set[Journey]</text><text fill="#000000" font-family="sans-serif" font-size="14" lengthAdjust="spacing" textLength="204" x="423.5" y="280.2832">+skipped_journeys: set[Journey]</text><text fill="#000000" font-family="sans-serif" font-size="14" lengthAdjust="spacing" textLength="174" x="423.5" y="297.8926">+skipped_blocks: set[Block]</text><line style="stroke:#181818;stroke-width:0.5;" x1="418.5" x2="789.5" y1="304.9688" y2="304.9688"/></g><!--class LegacyVizSim--><g id="elem_LegacyVizSim"><rect codeLine="301" fill="#F1F1F1" height="107.5313" id="LegacyVizSim" rx="2.5" ry="2.5" style="stroke:#181818;stroke-width:0.5;" width="311" x="71.5" y="168"/><ellipse cx="127.75" cy="198.1563" fill="#ADD1B2" rx="11" ry="11" style="stroke:#181818;stroke-width:1.0;"/><path d="M130.5156,194.0313 Q130.6719,193.8125 130.8594,193.7031 Q131.0469,193.5938 131.2656,193.5938 Q131.6406,193.5938 131.875,193.8594 Q132.1094,194.1094 132.1094,194.7188 L132.1094,196.1719 Q132.1094,196.7813 131.875,197.0469 Q131.6406,197.3125 131.2656,197.3125 Q130.9219,197.3125 130.7188,197.1094 Q130.5156,196.9219 130.4063,196.4063 Q130.3594,196.0469 130.1719,195.8594 Q129.8438,195.4844 129.2344,195.2656 Q128.625,195.0469 128,195.0469 Q127.2344,195.0469 126.5938,195.375 Q125.9688,195.7031 125.4688,196.4531 Q124.9844,197.2031 124.9844,198.2344 L124.9844,199.3281 Q124.9844,200.5625 125.875,201.3906 Q126.7656,202.2031 128.3594,202.2031 Q129.2969,202.2031 129.9531,201.9531 Q130.3438,201.7969 130.7656,201.3594 Q131.0313,201.0938 131.1719,201.0156 Q131.3281,200.9375 131.5313,200.9375 Q131.8594,200.9375 132.1094,201.2031 Q132.375,201.4531 132.375,201.7969 Q132.375,202.1406 132.0313,202.5469 Q131.5313,203.125 130.7344,203.4531 Q129.6563,203.9063 128.3594,203.9063 Q126.8438,203.9063 125.6406,203.2813 Q124.6563,202.7813 123.9688,201.7188 Q123.2813,200.6406 123.2813,199.3594 L123.2813,198.2031 Q123.2813,196.875 123.8906,195.7344 Q124.5156,194.5781 125.6094,193.9688 Q126.7031,193.3438 127.9375,193.3438 Q128.6719,193.3438 129.3125,193.5156 Q129.9688,193.6719 130.5156,194.0313 Z " fill="#000000"/><text fill="#000000" font-family="sans-serif" font-size="12" font-style="italic" lengthAdjust="spacing" textLength="53" x="216.75" y="185.457">&#171;service&#187;</text><text fill="#000000" font-family="sans-serif" font-size="14" lengthAdjust="spacing" textLength="190" x="148.25" y="202.627">VisualizationSimulationService</text><text fill="#000000" font-family="sans-serif" font-size="14" lengthAdjust="spacing" textLength="176" x="155.25" y="220.2363">(visualization_simulation.py)</text><line style="stroke:#181818;stroke-width:0.5;" x1="72.5" x2="381.5" y1="228.3125" y2="228.3125"/><text fill="#000000" font-family="sans-serif" font-size="14" lengthAdjust="spacing" textLength="299" x="77.5" y="268.4551">+_to_world_view(world): VisualizationWorldView</text><line style="stroke:#181818;stroke-width:1.0;stroke-dasharray:1.0,2.0;" x1="72.5" x2="171" y1="245.1172" y2="245.1172"/><text fill="#000000" font-family="sans-serif" font-size="14" lengthAdjust="spacing" textLength="112" x="171" y="250.3457">legacy / stub path</text><line style="stroke:#181818;stroke-width:1.0;stroke-dasharray:1.0,2.0;" x1="283" x2="381.5" y1="245.1172" y2="245.1172"/></g><!--class InternalEventLog--><g id="elem_InternalEventLog"><rect codeLine="310" fill="#F1F1F1" height="111.5313" id="InternalEventLog" rx="2.5" ry="2.5" style="stroke:#181818;stroke-width:0.5;" width="213" x="2164.5" y="166"/><ellipse cx="2213.25" cy="187.3516" fill="#ADD1B2" rx="11" ry="11" style="stroke:#181818;stroke-width:1.0;"/><path d="M2216.0156,183.2266 Q2216.1719,183.0078 2216.3594,182.8984 Q2216.5469,182.7891 2216.7656,182.7891 Q2217.1406,182.7891 2217.375,183.0547 Q2217.6094,183.3047 2217.6094,183.9141 L2217.6094,185.3672 Q2217.6094,185.9766 2217.375,186.2422 Q2217.1406,186.5078 2216.7656,186.5078 Q2216.4219,186.5078 2216.2188,186.3047 Q2216.0156,186.1172 2215.9063,185.6016 Q2215.8594,185.2422 2215.6719,185.0547 Q2215.3438,184.6797 2214.7344,184.4609 Q2214.125,184.2422 2213.5,184.2422 Q2212.7344,184.2422 2212.0938,184.5703 Q2211.4688,184.8984 2210.9688,185.6484 Q2210.4844,186.3984 2210.4844,187.4297 L2210.4844,188.5234 Q2210.4844,189.7578 2211.375,190.5859 Q2212.2656,191.3984 2213.8594,191.3984 Q2214.7969,191.3984 2215.4531,191.1484 Q2215.8438,190.9922 2216.2656,190.5547 Q2216.5313,190.2891 2216.6719,190.2109 Q2216.8281,190.1328 2217.0313,190.1328 Q2217.3594,190.1328 2217.6094,190.3984 Q2217.875,190.6484 2217.875,190.9922 Q2217.875,191.3359 2217.5313,191.7422 Q2217.0313,192.3203 2216.2344,192.6484 Q2215.1563,193.1016 2213.8594,193.1016 Q2212.3438,193.1016 2211.1406,192.4766 Q2210.1563,191.9766 2209.4688,190.9141 Q2208.7813,189.8359 2208.7813,188.5547 L2208.7813,187.3984 Q2208.7813,186.0703 2209.3906,184.9297 Q2210.0156,183.7734 2211.1094,183.1641 Q2212.2031,182.5391 2213.4375,182.5391 Q2214.1719,182.5391 2214.8125,182.7109 Q2215.4688,182.8672 2216.0156,183.2266 Z " fill="#000000"/><text fill="#000000" font-family="sans-serif" font-size="12" font-style="italic" lengthAdjust="spacing" textLength="39" x="2267.75" y="183.457">&#171;DTO&#187;</text><text fill="#000000" font-family="sans-serif" font-size="14" lengthAdjust="spacing" textLength="107" x="2233.75" y="200.627">InternalEventLog</text><line style="stroke:#181818;stroke-width:0.5;" x1="2165.5" x2="2376.5" y1="208.7031" y2="208.7031"/><text fill="#000000" font-family="sans-serif" font-size="14" lengthAdjust="spacing" textLength="169" x="2170.5" y="227.2363">+bus_log: list[dict[str, Any]]</text><text fill="#000000" font-family="sans-serif" font-size="14" lengthAdjust="spacing" textLength="200" x="2170.5" y="244.8457">+planning_log: list[dict[str, Any]]</text><text fill="#000000" font-family="sans-serif" font-size="14" lengthAdjust="spacing" textLength="201" x="2170.5" y="262.4551">+laadinfra_log: list[dict[str, Any]]</text><line style="stroke:#181818;stroke-width:0.5;" x1="2165.5" x2="2376.5" y1="269.5313" y2="269.5313"/></g><!--link WorldBuilder to PlanningProviderPort--><g id="link_WorldBuilder_PlanningProviderPort"><path codeLine="275" d="M1074.25,286.73 C1074.25,321.38 1074.25,357 1074.25,357 C1074.25,357 1788,357 1788,357 C1788,357 1788,370.55 1788,389.95 " fill="none" id="WorldBuilder-to-PlanningProviderPort" style="stroke:#181818;stroke-width:1.0;stroke-dasharray:7.0,7.0;"/><polygon fill="#181818" points="1788,395.95,1792,386.95,1788,390.95,1784,386.95,1788,395.95" style="stroke:#181818;stroke-width:1.0;"/></g><!--link WorldBuilder to InfrastructureProviderPort--><g id="link_WorldBuilder_InfrastructureProviderPort"><path codeLine="276" d="M1047.88,286.54 C1047.88,335.34 1047.88,394 1047.88,394 C1047.88,394 1235.41,394 1376.22,394 " fill="none" id="WorldBuilder-to-InfrastructureProviderPort" style="stroke:#181818;stroke-width:1.0;stroke-dasharray:7.0,7.0;"/><polygon fill="#181818" points="1382.22,394,1373.22,390,1377.22,394,1373.22,398,1382.22,394" style="stroke:#181818;stroke-width:1.0;"/></g><!--link WorldBuilder to BusProviderPort--><g id="link_WorldBuilder_BusProviderPort"><path codeLine="277" d="M1100.62,286.75 C1100.62,312 1100.62,335 1100.62,335 C1100.62,335 1983,335 1983,335 C1983,335 1983,361.87 1983,389.72 " fill="none" id="WorldBuilder-to-BusProviderPort" style="stroke:#181818;stroke-width:1.0;stroke-dasharray:7.0,7.0;"/><polygon fill="#181818" points="1983,395.72,1987,386.72,1983,390.72,1979,386.72,1983,395.72" style="stroke:#181818;stroke-width:1.0;"/></g><!--link WorldBuilder to World--><g id="link_WorldBuilder_World"><path codeLine="278" d="M987,286.76 C987,328.4 987,374.11 987,403.86 " fill="none" id="WorldBuilder-to-World" style="stroke:#181818;stroke-width:1.0;stroke-dasharray:7.0,7.0;"/><polygon fill="#181818" points="987,409.86,991,400.86,987,404.86,983,400.86,987,409.86" style="stroke:#181818;stroke-width:1.0;"/><text fill="#000000" font-family="sans-serif" font-size="13" lengthAdjust="spacing" textLength="61" x="925" y="344.8051">constructs</text></g><!--reverse link VisualizationSimulationResult to VisualizationWorldView--><g id="link_VisualizationSimulationResult_VisualizationWorldView"><path codeLine="305" d="M649,325.14 C649,347.13 649,358 649,377.85 " fill="none" id="VisualizationSimulationResult-backto-VisualizationWorldView" style="stroke:#181818;stroke-width:1.0;"/><polygon fill="#181818" points="649,313.14,645,319.14,649,325.14,653,319.14,649,313.14" style="stroke:#181818;stroke-width:1.0;"/></g><!--reverse link VisualizationSimulationResult to ClassifiedLogger--><g id="link_VisualizationSimulationResult_ClassifiedLogger"><path codeLine="306" d="M467.5,325.14 C467.5,347.13 467.5,358 467.5,377.85 " fill="none" id="VisualizationSimulationResult-backto-ClassifiedLogger" style="stroke:#181818;stroke-width:1.0;"/><polygon fill="#181818" points="467.5,313.14,463.5,319.14,467.5,325.14,471.5,319.14,467.5,313.14" style="stroke:#181818;stroke-width:1.0;"/></g><!--SRC=[nJljSjkujV_r51Z_gPpOslQslpJPp5Li9UkEO_lQtdHsKWy78Y4PQufaIT2sDfkP-n1zmZx9FGVV847AsUdsximw57W0dEylW7yWfqnGdhECf3bj6f9nkgdfblphV_z9cZhzRaNJ1rPav3LvO3l2YtLD6r6tgMXhDla3kOPth9wJAgU5QBUvMYNHgoIPNdnMmJi0_zZcWXzNTCD8sOgg5NFIDemSYwhOaB8cLwVl2NkkobgGDVmis9E4RLWgU5aqaqdpm8kA8e8L80RlRiGkPwG605fiSkO1I4mMGjHyrGfsbfR53V-5aJzw83alcDXLW4mjxik9A2iYIh8gXIYtm8bQRJiHNC0UFzn-9CjFv8PlsvmAm0vPbCMvDzrQGWydavnja8KrtzoB2I5ltj3DfcORAjZRj-HxafLRoWjY1qbTbWeE6I51Q5NbFAM83P7ScIxUdHogjJ9Q2LPBi50yX6-hd6rP8UH42Tsm-f6dQj-oJkyPGAjbloEis00_9DZfxQL2ZGfA0A9ergm6aBpS460aq5omMg5Obw9Coro20ozviPbTwR49KAredu3iln_-ZrmjFYp9d-RazFBZuknY37IYvKuE5Djcx3bbbTIE0q3dsYW2uFC545HY-LjPvzcfX5_MDOZkpHixxUrR2tRQAYwpPG4YtvrbOy0Avg8Kxyks683ix_lhyV70DeFWaOqc5ejpIhCpbFf-waxAeW3kbFLbchOLPmCunrT4HE8BJBvEUZ9vGaBsYCCt0wdn6eIGrolm2KsosYMFx9wdEKkAThj2BvFnL7pcXJWYxzhcJW7dfR8BEO5d6WZK-eYSwrSQSbFpB0Br0OOrn0eMUuY0lCDn1NDyh41fbYM0vnJ-FtGZ1fcfUV3UuVPJ_EEDoGsdygyUtJ0Xrmr9FvmZnGwYjmyW3326O0TeDrK0IAktZzjTlPPqglUf4hRTAH6bMipRyOYObJL5Gj3qFd4IWJbL2V9gfkgVEJa3LqLNEVjyXGDdnGtxHykAbDtX4bzZkeIHfG2lCgnE4ckhEvgQEG79gQ6oOkZZYasIqTqSVHhJBy0ZyuBcIMJIpsLR5sm7AEUy4P__gdvgFO5T-QPWKWDwIWfqaL_9HLdeNHg-JHf1Qv48lcLgVtpg0O6V704nYgSHIrBm1aBkfiP5AO2I392bmC_aOJidwxoaGlALaA94CyC8HCgr9-XWkIFIMqK2KGWc_msU7XWfC0aWLpk8bwXc6DTmQIiCpIWZ3hDyA133z-XRCrYpTMGKmxKtR9ZV6QxQ5RZO1EExbOitfswaHeTp0YK8X6EKLsf2Lt5_5o6hfUI-SzBPCLWIbti1s9hNZO1i3D8Up0mIi_S0eY19aT2wve-e3EEmMQiIY3d1LndB1GrV992zbKNME7qSrrPqFlUqtg31-fnNhvue5v5XTAPoL7cQGyXLcjAmi9aUQYjGEjhbr1TFpA4k5dJhgqYZPoHbdMbJDmo36DrcJAP8a4RXSq2HfHHSOi6UHM883dZPPJaiDoOpZoFgHKS2l4aSk-QGrq9A5lBNk6eNEdeAYouES1SieLOdP3IwmS6-folJ0B1F9491HhbXBu0BDhUisB-z1xe7WJ58Out0nmZ773k7r3XxOdaU5ysc0lKLa0WohPagY1tywO2yWbJhO4kBtO5nfl3QkDKEG4UJO_5JPkzOCyo0cR4Woi11EeOgMrXyMfoTBzwTB-MlwnylBiukFiZdanyMrn_C3qpMRvSNYukJPM1W9vfR9stzo61Ba70BHTRgPzZQfNd0D9I1T8aWju1rwjqg-eucAze0ivyweqqE0Gg64mXJlKahxPuxirRZiz9aJJ7ZxKvBmNKzSl0mtHbQPRwWqlBqAq3cT5j9jOJrKwZ5ff8PXy5oLVa4cwUqWdsc7cm81PYqcAn0ciNgNQ8cXHEEY5HK62_NKB6np48TaTbiTZYM4mH2K-8jinOAN_3UgDzYBWTFb-yNFvxV9aOHafCVhpyjvxtflSm0L0oB3LdDE2M8P4_w1IzYeJiQxXbKenlCOOgctSfIHagpOuw6SS1dcW8Im9NxM502ZyIAmTZaSZzPBEYimAiGVE_QD5tDsTBdn0jlIZWnB-KSpLXWrsaweAC4Rtozb0QJCmEFfhofSw1crAbGeCqMqnIbEe_eY9Un22QZhhUIIHarhcrTmt2YfTNbVbjXN4DKfj9H8e0kB6g6hWpnK7xxOJiDJUEUDi3j9pbPtDUikI_ppBCYwwizmmo5iC_uKfgdsFS1XwNCi2V4wP3fTQmExU3u-Aql0ZCKiZVYp7CepXFPvHakXx36CzQbwxDOHXCc7e-KvrYNQQH1S6kUey1fBiS_VpP9nzsHekPkG0zjzQSj8op2ZRfW-TdTb8efRX3o7G6T-AtfHc6xDMkt2ZSAgEmSvcM1TRhuPPEXBw4jXgpSc_G52MN8BgKgZTzaK2PRUyqALQ-7fSZzhk6WYmdwaK1MW4LlpCalbjOWQo62fJL3jTOeMIt6ylxLguSd-DKS6eTI_mRfHL2EIqzBfoUNm05upZicEOsc4PmZ9iZYQmxegE0YNTPQ09aiqOLXH5ocysMKshR2xfnNxpZpNhV8BZArJuVxAU-oUO1iiw8bt0o4f0_XwS5tGgipR4WVPTm8SsdmO3ZkQlkEymF-6lB660GfjgKqg5IqIPjM6rP4lF573urGXNN9Krd-uO11lbC0-j7npPkSRMZgfIJ8CPk6ZDDlqDTGVHJjnjQbT39uPrT6TRi0HZB-8XWif6-OarBcEpJ7SA4QgwMRZ4t3_g1i_lI6RVEmzqPs3RjPo6psrk4p9xq2QU9q4a6HSNCIS7E2O_YkkpGOcLd4WFWIyvVnivx9H9yNlUYquRyWiRgylhqXhydVBg_FJycx7y_WxsjoUdlPlEm4mZkLcM655Islw0gFM5BXik2hkdpa6Qkly2377l8evVjYmB_QLZ1hCDbHMQRgUd_jBtkbkwJVjBPCODtY9eMDB7yM72nzooQowMxtSBtsBfnD6onijtll0SbLiRldeI-BQHL9uS_TNQ-Vx4jB7uCrBpgfUDVoFBjcJPiBUpIcNOMSFbTWEhzI8lCyYC8s7F6I96_KL1JUa6j3UuEc_QM6laQmPNLmrlT5f_ccbpwFwei62WyHvoEornCqmHtD3lpZ2f52KNKPgl4FC9Sk8OvV3suKkHvq7yKUY79-SrNquhBDVYLwv0rK1FmNfPjuFegAFQnL9_YNhpdBpilDHiegq2hiUkNbHYisPeZQ1epyuc-nE932YxnsIlB9HrPI-ucpfnuAMXMZPs2lFVKTF6tJMj7rMn4az8awF8qQMHnn7NyjHv7s3VOCkapkb02oAUStd2mINXyVqmWtxbht_MezBV6i7IEIirZ8G3hdHiq3hweNmXW984JWcXK73mPOUAEKyk_5DDHAHyUisXqU40fLZinxFl5VO7R4NSncH6L6o0NHhaX5nJsCAZInaIq5apo25ARoyN14I8ZvkDGnvncSldzgJzw-sGBrrIvH5nnce273jdbM25P3EhLy13M1bVRRfjB-HR6x6xVI7joGlOQ0CeXzIsBpvpcvEVjuzHDPNdmukrY-B9Nn6JJC76FYLvZ9BtBf1ifOgD4TpPnlEVPxCAlFlBJ-EA5gCkhv3bkmGdiIBughBeFvDmWdDGEhq9d_iSiA_4qVdcprVoIRxubeWdhJTOBi_4uTvje7OKMcKNUD7xUHAwEgcZtoicrawpLZ3SUY29_bwSyuGXXaThfDXYN54N5Tt4oOypHLMLZPtA04Rz9xXZtRg4pwoOhnbLsb3mWjw_c0uCqYJ-hO1RO5ohhTj_Z1di2qNGpr7HrS8rZb3X1j3XJrrl2qhOQSkd7UFb2dagr1g1lEWdF5iiBijYsmu-2G0gp7wOnEst981Mc4dDwXWShmqCNQLfOwrbHMqeLsMgVASQ_1u2fp3txDpQcnkkgYl3TgcUfN7OxsdBs5P5e70Q2M7T4DhQcfnMn0UDb2KFxhsM0gWXTAPZfCJlM_yJvkKhESuNaGUcRNOx7tSZp81Y1JuG5v1YuTpm1sUXvkiCOE2QZHLAOtHmJ7N8k6uWqAfTa8PCvSxDMT9AMO7wfKmP8dBJn2uskC2-X8mAZJ1w0J0aigx_DDOLqeSpHFOOvJOrCHjuNWkLfQMmWyoK7vvEnFbake-Ri4UyD7H3a5tLP9jdItCit1O3dbmGourolK4xNjTSYKMOsb5XrcDsyoilWipUb8iaC7pBejfgnurAiexhF66ONqXXq_YAb1nBr5e0PzN0SMUo_6Xmu4HBytCWw5gl6DyVql4DzlhnUtomzdI-nUB2zkhtyYDylhJsSdI_XzTl7-Ul72g6zztd3Clz7QSOtAisNgb3YUeKFAubKFmNKoBTsvTwJjtmugClRikNTrnjPFqg6gue_CTk862msTf_c6wLSgNaPXGw35tU040ICM9inhdQPRSvMwnr7Hrc2an4l8DV_2kx9VWg2pInwGD-ug4WC_uon7Ht9fUeAPotPhs6i4n1xmwklCvJg2b3hIBukq1XjK0cSD0Pk7b6NDDSqwVyDO0QCK4cvBjJtatKFy3sKZeWpuZyJN5wSTlocLYQSe9bNzLfSVYpNTA38M5i9WCEYzEuxRpV8ooYkznRNRmIfpH7_9z-GWXjM1EQFlQX5CU4_pnfn1UrFKRKJ_Ee1j9FsRB4DHUEdKo1ozxgCmfdalfF1t8U46vVc-pVERCjs7kvBz6e1Homz-Hwnaf3l7GcolnhYQxVT0oFLBpCO4gpi8uzDrMwYlIbGtn21whbw_UGEyudZx9sY8o9UpQcVw80b732nHseEwflIkqZT4LQfiLCG5tkawf_A0rTOSaEKaNU8jE6PzVKRWb0ulHcT8leoPzspswzjuk1WpcU5PKIqT1e-epyZQONes08WHg0yi3xd-E9kzEeX5x3bnR5Hpkn2OmWr4kxdX-yZCI6ebiy5Es0uqSsBkPHtdx97bnAentijs-7vdLNNYWdIdtTFf42fqXpF1_It7aMLjrn7cNSccengFDIh-FpeAoZAJLzQMLLGcq-U_7FudKnNhIgHVyBDMhn0QRd_4EzP3JG-Rf43Hta3b3qWc2JglBGDcDYH4nXLXqMvljokh0q9NtjfaV2kSA-_O3437oxSUs5ZzriSWzFRpGVyyj9dVEv-Ji1i-C6USMtwxEZo26xR8ost1gxnjl7Eju8j0Snaavr8h3VXbSI97x4LBKpxXmQcxVGaqnJx02c__gqGdsNUtqhzpD7YcxKx8pUaVhV_HCZ56czB_J5q-H7tFvFr6zv6Fl2kCHnTUVOMVDURq0U1EuUaSdg06MlDDzvfuO6Gzqnh_X6FV2NlduivVcxA87sR6gFwvmNQt9EeA_lPwxettSWWvVJ8FP7NEt_USjzjJNtsagxerg1b7HFr5OkziLa-p1D7jNC6Hj2BH2qNRs9UBHXr6GDqtdA50EusA1ZWjBvsd-lEfxaqll3NNx216R3ll7EOVwJFVbWl8ytp5l6TvvKleHIfMAVrEtAuW3JCOwgoHd3oRaCqDHA2P0cYD9IJkyhwcsq5S_mS1k_oGYu1nOq22hTrF-jo_Nc3Snw8Lzt7sAaSJNZdJOn3fQYRyMtXf6Lmq4-K3AvAspZjsgYxxU-DzX8m_0tJKRXv64izv17TpRQnHL_vgRAOsefdTg16D51XtsOO1FOgKFDDAKvYRI49wcdMinXFsNF5wjzzrIEWfL04fmo_XCCFmcldAEc49YDhOAeCYSuf-779y-Gj4OFgYAdbmzm0mXu-43Pasz-z7Z3XZEMFWdiPBt9gSFtf_8uOdTbyZSIncb0WQ6jyuGH5uFoYlwn8I4SYbfmt5TWvU53iSZisdku9kUOgtl0jQGNxOkzVGQs_AhqbvuJS2OQJtPOI-mkyigPVo1avc-Bj6zub1nzLzdVmV]--></g></svg>