<?xml version="1.0" encoding="us-ascii" standalone="no"?><svg xmlns="http://www.w3.org/2000/svg" xmlns:xlink="http://www.w3.org/1999/xlink" contentStyleType="text/css" height="914px" preserveAspectRatio="none" style="width:880px;height:914px;background:#FFFFFF;" version="1.1" viewBox="0 0 880 914" width="880px" zoomAndPan="magnify"><defs/><g><!--cluster simpy_engine--><g id="cluster_simpy_engine"><rect fill="none" height="901" rx="2.5" ry="2.5" style="stroke:#181818;stroke-width:1.0;" width="867" x="7" y="7"/><text fill="#000000" font-family="sans-serif" font-size="14" font-weight="bold" lengthAdjust="spacing" textLength="97" x="392" y="23.5332">simpy_engine</text></g><!--class LocationPowerAllocator--><g id="elem_LocationPowerAllocator"><rect codeLine="321" fill="#F1F1F1" height="181.9688" id="LocationPowerAllocator" rx="2.5" ry="2.5" style="stroke:#181818;stroke-width:0.5;" width="556" x="23" y="602"/><ellipse cx="222.75" cy="623.3516" fill="#ADD1B2" rx="11" ry="11" style="stroke:#181818;stroke-width:1.0;"/><path d="M225.5156,619.2266 Q225.6719,619.0078 225.8594,618.8984 Q226.0469,618.7891 226.2656,618.7891 Q226.6406,618.7891 226.875,619.0547 Q227.1094,619.3047 227.1094,619.9141 L227.1094,621.3672 Q227.1094,621.9766 226.875,622.2422 Q226.6406,622.5078 226.2656,622.5078 Q225.9219,622.5078 225.7188,622.3047 Q225.5156,622.1172 225.4063,621.6016 Q225.3594,621.2422 225.1719,621.0547 Q224.8438,620.6797 224.2344,620.4609 Q223.625,620.2422 223,620.2422 Q222.2344,620.2422 221.5938,620.5703 Q220.9688,620.8984 220.4688,621.6484 Q219.9844,622.3984 219.9844,623.4297 L219.9844,624.5234 Q219.9844,625.7578 220.875,626.5859 Q221.7656,627.3984 223.3594,627.3984 Q224.2969,627.3984 224.9531,627.1484 Q225.3438,626.9922 225.7656,626.5547 Q226.0313,626.2891 226.1719,626.2109 Q226.3281,626.1328 226.5313,626.1328 Q226.8594,626.1328 227.1094,626.3984 Q227.375,626.6484 227.375,626.9922 Q227.375,627.3359 227.0313,627.7422 Q226.5313,628.3203 225.7344,628.6484 Q224.6563,629.1016 223.3594,629.1016 Q221.8438,629.1016 220.6406,628.4766 Q219.6563,627.9766 218.9688,626.9141 Q218.2813,625.8359 218.2813,624.5547 L218.2813,623.3984 Q218.2813,622.0703 218.8906,620.9297 Q219.5156,619.7734 220.6094,619.1641 Q221.7031,618.5391 222.9375,618.5391 Q223.6719,618.5391 224.3125,618.7109 Q224.9688,618.8672 225.5156,619.2266 Z " fill="#000000"/><text fill="#000000" font-family="sans-serif" font-size="12" font-style="italic" lengthAdjust="spacing" textLength="53" x="290.75" y="619.457">&#171;service&#187;</text><text fill="#000000" font-family="sans-serif" font-size="14" lengthAdjust="spacing" textLength="148" x="243.25" y="636.627">LocationPowerAllocator</text><line style="stroke:#181818;stroke-width:0.5;" x1="24" x2="578" y1="644.7031" y2="644.7031"/><text fill="#000000" font-family="sans-serif" font-size="14" lengthAdjust="spacing" textLength="172" x="29" y="663.2363">+power_limit_enabled: bool</text><text fill="#000000" font-family="sans-serif" font-size="14" lengthAdjust="spacing" textLength="286" x="29" y="680.8457">-_allocated_by_slot: dict[tuple[str, float], float]</text><line style="stroke:#181818;stroke-width:1.0;" x1="24" x2="578" y1="687.9219" y2="687.9219"/><text fill="#000000" font-family="sans-serif" font-size="14" lengthAdjust="spacing" textLength="50" x="29" y="706.4551">+reset()</text><text fill="#000000" font-family="sans-serif" font-size="14" lengthAdjust="spacing" textLength="311" x="29" y="724.0645">-_location_power_limit_kw(location, time_ts): float</text><text fill="#000000" font-family="sans-serif" font-size="14" lengthAdjust="spacing" text-decoration="underline" textLength="263" x="29" y="741.6738">+location_current_load_kw(location): float</text><text fill="#000000" font-family="sans-serif" font-size="14" lengthAdjust="spacing" textLength="544" x="29" y="759.2832">+allocate_power_kw(location, connector_previous_kw, desired_kw, next_time_ts): float</text><text fill="#000000" font-family="sans-serif" font-size="14" lengthAdjust="spacing" text-decoration="underline" textLength="278" x="29" y="776.8926">+apply_energy(bus, power_kw, dt_seconds)</text></g><!--class SimpyScheduler--><g id="elem_SimpyScheduler"><rect codeLine="332" fill="#F1F1F1" height="498.9375" id="SimpyScheduler" rx="2.5" ry="2.5" style="stroke:#181818;stroke-width:0.5;" width="508" x="350" y="43"/><ellipse cx="548.75" cy="64.3516" fill="#ADD1B2" rx="11" ry="11" style="stroke:#181818;stroke-width:1.0;"/><path d="M551.5156,60.2266 Q551.6719,60.0078 551.8594,59.8984 Q552.0469,59.7891 552.2656,59.7891 Q552.6406,59.7891 552.875,60.0547 Q553.1094,60.3047 553.1094,60.9141 L553.1094,62.3672 Q553.1094,62.9766 552.875,63.2422 Q552.6406,63.5078 552.2656,63.5078 Q551.9219,63.5078 551.7188,63.3047 Q551.5156,63.1172 551.4063,62.6016 Q551.3594,62.2422 551.1719,62.0547 Q550.8438,61.6797 550.2344,61.4609 Q549.625,61.2422 549,61.2422 Q548.2344,61.2422 547.5938,61.5703 Q546.9688,61.8984 546.4688,62.6484 Q545.9844,63.3984 545.9844,64.4297 L545.9844,65.5234 Q545.9844,66.7578 546.875,67.5859 Q547.7656,68.3984 549.3594,68.3984 Q550.2969,68.3984 550.9531,68.1484 Q551.3438,67.9922 551.7656,67.5547 Q552.0313,67.2891 552.1719,67.2109 Q552.3281,67.1328 552.5313,67.1328 Q552.8594,67.1328 553.1094,67.3984 Q553.375,67.6484 553.375,67.9922 Q553.375,68.3359 553.0313,68.7422 Q552.5313,69.3203 551.7344,69.6484 Q550.6563,70.1016 549.3594,70.1016 Q547.8438,70.1016 546.6406,69.4766 Q545.6563,68.9766 544.9688,67.9141 Q544.2813,66.8359 544.2813,65.5547 L544.2813,64.3984 Q544.2813,63.0703 544.8906,61.9297 Q545.5156,60.7734 546.6094,60.1641 Q547.7031,59.5391 548.9375,59.5391 Q549.6719,59.5391 550.3125,59.7109 Q550.9688,59.8672 551.5156,60.2266 Z " fill="#000000"/><text fill="#000000" font-family="sans-serif" font-size="12" font-style="italic" lengthAdjust="spacing" textLength="53" x="593.75" y="60.457">&#171;service&#187;</text><text fill="#000000" font-family="sans-serif" font-size="14" lengthAdjust="spacing" textLength="102" x="569.25" y="77.627">SimpyScheduler</text><line style="stroke:#181818;stroke-width:0.5;" x1="351" x2="857" y1="85.7031" y2="85.7031"/><text fill="#000000" font-family="sans-serif" font-size="14" lengthAdjust="spacing" textLength="86" x="356" y="104.2363">+world: World</text><text fill="#000000" font-family="sans-serif" font-size="14" lengthAdjust="spacing" textLength="163" x="356" y="121.8457">+logger: InternalEventLog</text><text fill="#000000" font-family="sans-serif" font-size="14" lengthAdjust="spacing" textLength="218" x="356" y="139.4551">+allocator: LocationPowerAllocator</text><text fill="#000000" font-family="sans-serif" font-size="14" lengthAdjust="spacing" textLength="252" x="356" y="157.0645">+low_soc_alert_threshold_percent: float</text><text fill="#000000" font-family="sans-serif" font-size="14" lengthAdjust="spacing" textLength="229" x="356" y="174.6738">+charging_target_soc_percent: float</text><text fill="#000000" font-family="sans-serif" font-size="14" lengthAdjust="spacing" textLength="182" x="356" y="192.2832">+charging_step_seconds: int</text><text fill="#000000" font-family="sans-serif" font-size="14" lengthAdjust="spacing" textLength="214" x="356" y="209.8926">+simulation_start_timestamp: float</text><text fill="#000000" font-family="sans-serif" font-size="14" lengthAdjust="spacing" textLength="254" x="356" y="227.502">+simulation_end_timestamp: float | None</text><text fill="#000000" font-family="sans-serif" font-size="14" lengthAdjust="spacing" textLength="95" x="356" y="245.1113">+strategies: list</text><text fill="#000000" font-family="sans-serif" font-size="14" lengthAdjust="spacing" textLength="330" x="356" y="262.7207">+opportunity_charging_soc_threshold_percent: float</text><text fill="#000000" font-family="sans-serif" font-size="14" lengthAdjust="spacing" textLength="288" x="356" y="280.3301">+opportunity_charging_min_gap_seconds: int</text><line style="stroke:#181818;stroke-width:1.0;" x1="351" x2="857" y1="287.4063" y2="287.4063"/><text fill="#000000" font-family="sans-serif" font-size="14" lengthAdjust="spacing" text-decoration="underline" textLength="195" x="356" y="305.9395">+_point_to_location(point): dict</text><text fill="#000000" font-family="sans-serif" font-size="14" lengthAdjust="spacing" text-decoration="underline" textLength="222" x="356" y="323.5488">+_connector_status(connector): str</text><text fill="#000000" font-family="sans-serif" font-size="14" lengthAdjust="spacing" text-decoration="underline" textLength="380" x="356" y="341.1582">+_find_point_by_id(world, point_id): PointInSequence | None</text><text fill="#000000" font-family="sans-serif" font-size="14" lengthAdjust="spacing" text-decoration="underline" textLength="386" x="356" y="358.7676">+_build_virtual_garage_point(world): PointInSequence | None</text><text fill="#000000" font-family="sans-serif" font-size="14" lengthAdjust="spacing" text-decoration="underline" textLength="303" x="356" y="376.377">+_is_garage_destination_journey(journey): bool</text><text fill="#000000" font-family="sans-serif" font-size="14" lengthAdjust="spacing" text-decoration="underline" textLength="198" x="356" y="393.9863">+_release_bus_connector(bus)</text><text fill="#000000" font-family="sans-serif" font-size="14" lengthAdjust="spacing" text-decoration="underline" textLength="266" x="356" y="411.5957">+_select_connector(location): tuple | None</text><text fill="#000000" font-family="sans-serif" font-size="14" lengthAdjust="spacing" text-decoration="underline" textLength="437" x="356" y="429.2051">+_select_bus_for_time(buses, bus_available_at, target_time, ...): Bus</text><text fill="#000000" font-family="sans-serif" font-size="14" lengthAdjust="spacing" textLength="282" x="356" y="446.8145">+_can_complete_journey(bus, journey): bool</text><text fill="#000000" font-family="sans-serif" font-size="14" lengthAdjust="spacing" textLength="320" x="356" y="464.4238">+_log_precheck_replacement(..., sequence): None</text><text fill="#000000" font-family="sans-serif" font-size="14" lengthAdjust="spacing" textLength="460" x="356" y="482.0332">+_charge_until(bus, start_ts, until_ts, target_soc, strategy_name, logger)</text><text fill="#000000" font-family="sans-serif" font-size="14" lengthAdjust="spacing" textLength="342" x="356" y="499.6426">+_maybe_charge(bus, start_time_ts, logger, **kwargs)</text><text fill="#000000" font-family="sans-serif" font-size="14" lengthAdjust="spacing" textLength="496" x="356" y="517.252">+_simulate_journey(bus, block, journey, completed_journeys): tuple[float, bool]</text><text fill="#000000" font-family="sans-serif" font-size="14" lengthAdjust="spacing" textLength="186" x="356" y="534.8613">+run(env, blocks, buses): dict</text></g><!--class InternalEventLog--><g id="elem_InternalEventLog"><rect fill="#F1F1F1" height="48" id="InternalEventLog" rx="2.5" ry="2.5" style="stroke:#181818;stroke-width:0.5;" width="139" x="614.5" y="669"/><ellipse cx="629.5" cy="685" fill="#ADD1B2" rx="11" ry="11" style="stroke:#181818;stroke-width:1.0;"/><path d="M632.2656,680.875 Q632.4219,680.6563 632.6094,680.5469 Q632.7969,680.4375 633.0156,680.4375 Q633.3906,680.4375 633.625,680.7031 Q633.8594,680.9531 633.8594,681.5625 L633.8594,683.0156 Q633.8594,683.625 633.625,683.8906 Q633.3906,684.1563 633.0156,684.1563 Q632.6719,684.1563 632.4688,683.9531 Q632.2656,683.7656 632.1563,683.25 Q632.1094,682.8906 631.9219,682.7031 Q631.5938,682.3281 630.9844,682.1094 Q630.375,681.8906 629.75,681.8906 Q628.9844,681.8906 628.3438,682.2188 Q627.7188,682.5469 627.2188,683.2969 Q626.7344,684.0469 626.7344,685.0781 L626.7344,686.1719 Q626.7344,687.4063 627.625,688.2344 Q628.5156,689.0469 630.1094,689.0469 Q631.0469,689.0469 631.7031,688.7969 Q632.0938,688.6406 632.5156,688.2031 Q632.7813,687.9375 632.9219,687.8594 Q633.0781,687.7813 633.2813,687.7813 Q633.6094,687.7813 633.8594,688.0469 Q634.125,688.2969 634.125,688.6406 Q634.125,688.9844 633.7813,689.3906 Q633.2813,689.9688 632.4844,690.2969 Q631.4063,690.75 630.1094,690.75 Q628.5938,690.75 627.3906,690.125 Q626.4063,689.625 625.7188,688.5625 Q625.0313,687.4844 625.0313,686.2031 L625.0313,685.0469 Q625.0313,683.7188 625.6406,682.5781 Q626.2656,681.4219 627.3594,680.8125 Q628.4531,680.1875 629.6875,680.1875 Q630.4219,680.1875 631.0625,680.3594 Q631.7188,680.5156 632.2656,680.875 Z " fill="#000000"/><text fill="#000000" font-family="sans-serif" font-size="14" lengthAdjust="spacing" textLength="107" x="643.5" y="690.7285">InternalEventLog</text><line style="stroke:#181818;stroke-width:0.5;" x1="615.5" x2="752.5" y1="701" y2="701"/><line style="stroke:#181818;stroke-width:0.5;" x1="615.5" x2="752.5" y1="709" y2="709"/></g><!--class World--><g id="elem_World"><rect fill="#F1F1F1" height="48" id="World" rx="2.5" ry="2.5" style="stroke:#181818;stroke-width:0.5;" width="69" x="788.5" y="669"/><ellipse cx="803.5" cy="685" fill="#ADD1B2" rx="11" ry="11" style="stroke:#181818;stroke-width:1.0;"/><path d="M806.2656,680.875 Q806.4219,680.6563 806.6094,680.5469 Q806.7969,680.4375 807.0156,680.4375 Q807.3906,680.4375 807.625,680.7031 Q807.8594,680.9531 807.8594,681.5625 L807.8594,683.0156 Q807.8594,683.625 807.625,683.8906 Q807.3906,684.1563 807.0156,684.1563 Q806.6719,684.1563 806.4688,683.9531 Q806.2656,683.7656 806.1563,683.25 Q806.1094,682.8906 805.9219,682.7031 Q805.5938,682.3281 804.9844,682.1094 Q804.375,681.8906 803.75,681.8906 Q802.9844,681.8906 802.3438,682.2188 Q801.7188,682.5469 801.2188,683.2969 Q800.7344,684.0469 800.7344,685.0781 L800.7344,686.1719 Q800.7344,687.4063 801.625,688.2344 Q802.5156,689.0469 804.1094,689.0469 Q805.0469,689.0469 805.7031,688.7969 Q806.0938,688.6406 806.5156,688.2031 Q806.7813,687.9375 806.9219,687.8594 Q807.0781,687.7813 807.2813,687.7813 Q807.6094,687.7813 807.8594,688.0469 Q808.125,688.2969 808.125,688.6406 Q808.125,688.9844 807.7813,689.3906 Q807.2813,689.9688 806.4844,690.2969 Q805.4063,690.75 804.1094,690.75 Q802.5938,690.75 801.3906,690.125 Q800.4063,689.625 799.7188,688.5625 Q799.0313,687.4844 799.0313,686.2031 L799.0313,685.0469 Q799.0313,683.7188 799.6406,682.5781 Q800.2656,681.4219 801.3594,680.8125 Q802.4531,680.1875 803.6875,680.1875 Q804.4219,680.1875 805.0625,680.3594 Q805.7188,680.5156 806.2656,680.875 Z " fill="#000000"/><text fill="#000000" font-family="sans-serif" font-size="14" lengthAdjust="spacing" textLength="37" x="817.5" y="690.7285">World</text><line style="stroke:#181818;stroke-width:0.5;" x1="789.5" x2="856.5" y1="701" y2="701"/><line style="stroke:#181818;stroke-width:0.5;" x1="789.5" x2="856.5" y1="709" y2="709"/></g><!--class Location--><g id="elem_Location"><rect fill="#F1F1F1" height="48" id="Location" rx="2.5" ry="2.5" style="stroke:#181818;stroke-width:0.5;" width="86" x="205" y="844"/><ellipse cx="220" cy="860" fill="#ADD1B2" rx="11" ry="11" style="stroke:#181818;stroke-width:1.0;"/><path d="M222.7656,855.875 Q222.9219,855.6563 223.1094,855.5469 Q223.2969,855.4375 223.5156,855.4375 Q223.8906,855.4375 224.125,855.7031 Q224.3594,855.9531 224.3594,856.5625 L224.3594,858.0156 Q224.3594,858.625 224.125,858.8906 Q223.8906,859.1563 223.5156,859.1563 Q223.1719,859.1563 222.9688,858.9531 Q222.7656,858.7656 222.6563,858.25 Q222.6094,857.8906 222.4219,857.7031 Q222.0938,857.3281 221.4844,857.1094 Q220.875,856.8906 220.25,856.8906 Q219.4844,856.8906 218.8438,857.2188 Q218.2188,857.5469 217.7188,858.2969 Q217.2344,859.0469 217.2344,860.0781 L217.2344,861.1719 Q217.2344,862.4063 218.125,863.2344 Q219.0156,864.0469 220.6094,864.0469 Q221.5469,864.0469 222.2031,863.7969 Q222.5938,863.6406 223.0156,863.2031 Q223.2813,862.9375 223.4219,862.8594 Q223.5781,862.7813 223.7813,862.7813 Q224.1094,862.7813 224.3594,863.0469 Q224.625,863.2969 224.625,863.6406 Q224.625,863.9844 224.2813,864.3906 Q223.7813,864.9688 222.9844,865.2969 Q221.9063,865.75 220.6094,865.75 Q219.0938,865.75 217.8906,865.125 Q216.9063,864.625 216.2188,863.5625 Q215.5313,862.4844 215.5313,861.2031 L215.5313,860.0469 Q215.5313,858.7188 216.1406,857.5781 Q216.7656,856.4219 217.8594,855.8125 Q218.9531,855.1875 220.1875,855.1875 Q220.9219,855.1875 221.5625,855.3594 Q222.2188,855.5156 222.7656,855.875 Z " fill="#000000"/><text fill="#000000" font-family="sans-serif" font-size="14" lengthAdjust="spacing" textLength="54" x="234" y="865.7285">Location</text><line style="stroke:#181818;stroke-width:0.5;" x1="206" x2="290" y1="876" y2="876"/><line style="stroke:#181818;stroke-width:0.5;" x1="206" x2="290" y1="884" y2="884"/></g><!--class Bus--><g id="elem_Bus"><rect fill="#F1F1F1" height="48" id="Bus" rx="2.5" ry="2.5" style="stroke:#181818;stroke-width:0.5;" width="56" x="326" y="844"/><ellipse cx="341" cy="860" fill="#ADD1B2" rx="11" ry="11" style="stroke:#181818;stroke-width:1.0;"/><path d="M343.7656,855.875 Q343.9219,855.6563 344.1094,855.5469 Q344.2969,855.4375 344.5156,855.4375 Q344.8906,855.4375 345.125,855.7031 Q345.3594,855.9531 345.3594,856.5625 L345.3594,858.0156 Q345.3594,858.625 345.125,858.8906 Q344.8906,859.1563 344.5156,859.1563 Q344.1719,859.1563 343.9688,858.9531 Q343.7656,858.7656 343.6563,858.25 Q343.6094,857.8906 343.4219,857.7031 Q343.0938,857.3281 342.4844,857.1094 Q341.875,856.8906 341.25,856.8906 Q340.4844,856.8906 339.8438,857.2188 Q339.2188,857.5469 338.7188,858.2969 Q338.2344,859.0469 338.2344,860.0781 L338.2344,861.1719 Q338.2344,862.4063 339.125,863.2344 Q340.0156,864.0469 341.6094,864.0469 Q342.5469,864.0469 343.2031,863.7969 Q343.5938,863.6406 344.0156,863.2031 Q344.2813,862.9375 344.4219,862.8594 Q344.5781,862.7813 344.7813,862.7813 Q345.1094,862.7813 345.3594,863.0469 Q345.625,863.2969 345.625,863.6406 Q345.625,863.9844 345.2813,864.3906 Q344.7813,864.9688 343.9844,865.2969 Q342.9063,865.75 341.6094,865.75 Q340.0938,865.75 338.8906,865.125 Q337.9063,864.625 337.2188,863.5625 Q336.5313,862.4844 336.5313,861.2031 L336.5313,860.0469 Q336.5313,858.7188 337.1406,857.5781 Q337.7656,856.4219 338.8594,855.8125 Q339.9531,855.1875 341.1875,855.1875 Q341.9219,855.1875 342.5625,855.3594 Q343.2188,855.5156 343.7656,855.875 Z " fill="#000000"/><text fill="#000000" font-family="sans-serif" font-size="14" lengthAdjust="spacing" textLength="24" x="355" y="865.7285">Bus</text><line style="stroke:#181818;stroke-width:0.5;" x1="327" x2="381" y1="876" y2="876"/><line style="stroke:#181818;stroke-width:0.5;" x1="327" x2="381" y1="884" y2="884"/></g><!--reverse link SimpyScheduler to InternalEventLog--><g id="link_SimpyScheduler_InternalEventLog"><path codeLine="361" d="M684,554.16 C684,606.18 684,641.45 684,668.71 " fill="none" id="SimpyScheduler-backto-InternalEventLog" style="stroke:#181818;stroke-width:1.0;"/><polygon fill="#181818" points="684,542.16,680,548.16,684,554.16,688,548.16,684,542.16" style="stroke:#181818;stroke-width:1.0;"/></g><!--reverse link SimpyScheduler to LocationPowerAllocator--><g id="link_SimpyScheduler_LocationPowerAllocator"><path codeLine="362" d="M464.5,554.16 C464.5,575.09 464.5,583.26 464.5,601.66 " fill="none" id="SimpyScheduler-backto-LocationPowerAllocator" style="stroke:#181818;stroke-width:1.0;"/><polygon fill="#181818" points="464.5,542.16,460.5,548.16,464.5,554.16,468.5,548.16,464.5,542.16" style="stroke:#181818;stroke-width:1.0;"/></g><!--link SimpyScheduler to World--><g id="link_SimpyScheduler_World"><path codeLine="363" d="M823,542.16 C823,594.18 823,635.45 823,662.71 " fill="none" id="SimpyScheduler-to-World" style="stroke:#181818;stroke-width:1.0;"/><polygon fill="#181818" points="823,668.71,827,659.71,823,663.71,819,659.71,823,668.71" style="stroke:#181818;stroke-width:1.0;"/></g><!--link LocationPowerAllocator to Location--><g id="link_LocationPowerAllocator_Location"><path codeLine="364" d="M248,784.09 C248,806.18 248,821.97 248,837.8 " fill="none" id="LocationPowerAllocator-to-Location" style="stroke:#181818;stroke-width:1.0;stroke-dasharray:7.0,7.0;"/><polygon fill="#181818" points="248,843.8,252,834.8,248,838.8,244,834.8,248,843.8" style="stroke:#181818;stroke-width:1.0;"/></g><!--link LocationPowerAllocator to Bus--><g id="link_LocationPowerAllocator_Bus"><path codeLine="365" d="M354,784.09 C354,806.18 354,821.97 354,837.8 " fill="none" id="LocationPowerAllocator-to-Bus" style="stroke:#181818;stroke-width:1.0;stroke-dasharray:7.0,7.0;"/><polygon fill="#181818" points="354,843.8,358,834.8,354,838.8,350,834.8,354,843.8" style="stroke:#181818;stroke-width:1.0;"/></g><!--SRC=[nJljSjkujV_r51Z_gPpOslQslpJPp5Li9UkEO_lQtdHsKWy78Y4PQufaIT2sDfkP-n1zmZx9FGVV847AsUdsximw57W0dEylW7yWfqnGdhECf3bj6f9nkgdfblphV_z9cZhzRaNJ1rPav3LvO3l2YtLD6r6tgMXhDla3kOPth9wJAgU5QBUvMYNHgoIPNdnMmJi0_zZcWXzNTCD8sOgg5NFIDemSYwhOaB8cLwVl2NkkobgGDVmis9E4RLWgU5aqaqdpm8kA8e8L80RlRiGkPwG605fiSkO1I4mMGjHyrGfsbfR53V-5aJzw83alcDXLW4mjxik9A2iYIh8gXIYtm8bQRJiHNC0UFzn-9CjFv8PlsvmAm0vPbCMvDzrQGWydavnja8KrtzoB2I5ltj3DfcORAjZRj-HxafLRoWjY1qbTbWeE6I51Q5NbFAM83P7ScIxUdHogjJ9Q2LPBi50yX6-hd6rP8UH42Tsm-f6dQj-oJkyPGAjbloEis00_9DZfxQL2ZGfA0A9ergm6aBpS460aq5omMg5Obw9Coro20ozviPbTwR49KAredu3iln_-ZrmjFYp9d-RazFBZuknY37IYvKuE5Djcx3bbbTIE0q3dsYW2uFC545HY-LjPvzcfX5_MDOZkpHixxUrR2tRQAYwpPG4YtvrbOy0Avg8Kxyks683ix_lhyV70DeFWaOqc5ejpIhCpbFf-waxAeW3kbFLbchOLPmCunrT4HE8BJBvEUZ9vGaBsYCCt0wdn6eIGrolm2KsosYMFx9wdEKkAThj2BvFnL7pcXJWYxzhcJW7dfR8BEO5d6WZK-eYSwrSQSbFpB0Br0OOrn0eMUuY0lCDn1NDyh41fbYM0vnJ-FtGZ1fcfUV3UuVPJ_EEDoGsdygyUtJ0Xrmr9FvmZnGwYjmyW3326O0TeDrK0IAktZzjTlPPqglUf4hRTAH6bMipRyOYObJL5Gj3qFd4IWJbL2V9gfkgVEJa3LqLNEVjyXGDdnGtxHykAbDtX4bzZkeIHfG2lCgnE4ckhEvgQEG79gQ6oOkZZYasIqTqSVHhJBy0ZyuBcIMJIpsLR5sm7AEUy4P__gdvgFO5T-QPWKWDwIWfqaL_9HLdeNHg-JHf1Qv48lcLgVtpg0O6V704nYgSHIrBm1aBkfiP5AO2I392bmC_aOJidwxoaGlALaA94CyC8HCgr9-XWkIFIMqK2KGWc_msU7XWfC0aWLpk8bwXc6DTmQIiCpIWZ3hDyA133z-XRCrYpTMGKmxKtR9ZV6QxQ5RZO1EExbOitfswaHeTp0YK8X6EKLsf2Lt5_5o6hfUI-SzBPCLWIbti1s9hNZO1i3D8Up0mIi_S0eY19aT2wve-e3EEmMQiIY3d1LndB1GrV992zbKNME7qSrrPqFlUqtg31-fnNhvue5v5XTAPoL7cQGyXLcjAmi9aUQYjGEjhbr1TFpA4k5dJhgqYZPoHbdMbJDmo36DrcJAP8a4RXSq2HfHHSOi6UHM883dZPPJaiDoOpZoFgHKS2l4aSk-QGrq9A5lBNk6eNEdeAYouES1SieLOdP3IwmS6-folJ0B1F9491HhbXBu0BDhUisB-z1xe7WJ58Out0nmZ773k7r3XxOdaU5ysc0lKLa0WohPagY1tywO2yWbJhO4kBtO5nfl3QkDKEG4UJO_5JPkzOCyo0cR4Woi11EeOgMrXyMfoTBzwTB-MlwnylBiukFiZdanyMrn_C3qpMRvSNYukJPM1W9vfR9stzo61Ba70BHTRgPzZQfNd0D9I1T8aWju1rwjqg-eucAze0ivyweqqE0Gg64mXJlKahxPuxirRZiz9aJJ7ZxKvBmNKzSl0mtHbQPRwWqlBqAq3cT5j9jOJrKwZ5ff8PXy5oLVa4cwUqWdsc7cm81PYqcAn0ciNgNQ8cXHEEY5HK62_NKB6np48TaTbiTZYM4mH2K-8jinOAN_3UgDzYBWTFb-yNFvxV9aOHafCVhpyjvxtflSm0L0oB3LdDE2M8P4_w1IzYeJiQxXbKenlCOOgctSfIHagpOuw6SS1dcW8Im9NxM502ZyIAmTZaSZzPBEYimAiGVE_QD5tDsTBdn0jlIZWnB-KSpLXWrsaweAC4Rtozb0QJCmEFfhofSw1crAbGeCqMqnIbEe_eY9Un22QZhhUIIHarhcrTmt2YfTNbVbjXN4DKfj9H8e0kB6g6hWpnK7xxOJiDJUEUDi3j9pbPtDUikI_ppBCYwwizmmo5iC_uKfgdsFS1XwNCi2V4wP3fTQmExU3u-Aql0ZCKiZVYp7CepXFPvHakXx36CzQbwxDOHXCc7e-KvrYNQQH1S6kUey1fBiS_VpP9nzsHekPkG0zjzQSj8op2ZRfW-TdTb8efRX3o7G6T-AtfHc6xDMkt2ZSAgEmSvcM1TRhuPPEXBw4jXgpSc_G52MN8BgKgZTzaK2PRUyqALQ-7fSZzhk6WYmdwaK1MW4LlpCalbjOWQo62fJL3jTOeMIt6ylxLguSd-DKS6eTI_mRfHL2EIqzBfoUNm05upZicEOsc4PmZ9iZYQmxegE0YNTPQ09aiqOLXH5ocysMKshR2xfnNxpZpNhV8BZArJuVxAU-oUO1iiw8bt0o4f0_XwS5tGgipR4WVPTm8SsdmO3ZkQlkEymF-6lB660GfjgKqg5IqIPjM6rP4lF573urGXNN9Krd-uO11lbC0-j7npPkSRMZgfIJ8CPk6ZDDlqDTGVHJjnjQbT39uPrT6TRi0HZB-8XWif6-OarBcEpJ7SA4QgwMRZ4t3_g1i_lI6RVEmzqPs3RjPo6psrk4p9xq2QU9q4a6HSNCIS7E2O_YkkpGOcLd4WFWIyvVnivx9H9yNlUYquRyWiRgylhqXhydVBg_FJycx7y_WxsjoUdlPlEm4mZkLcM655Islw0gFM5BXik2hkdpa6Qkly2377l8evVjYmB_QLZ1hCDbHMQRgUd_jBtkbkwJVjBPCODtY9eMDB7yM72nzooQowMxtSBtsBfnD6onijtll0SbLiRldeI-BQHL9uS_TNQ-Vx4jB7uCrBpgfUDVoFBjcJPiBUpIcNOMSFbTWEhzI8lCyYC8s7F6I96_KL1JUa6j3UuEc_QM6laQmPNLmrlT5f_ccbpwFwei62WyHvoEornCqmHtD3lpZ2f52KNKPgl4FC9Sk8OvV3suKkHvq7yKUY79-SrNquhBDVYLwv0rK1FmNfPjuFegAFQnL9_YNhpdBpilDHiegq2hiUkNbHYisPeZQ1epyuc-nE932YxnsIlB9HrPI-ucpfnuAMXMZPs2lFVKTF6tJMj7rMn4az8awF8qQMHnn7NyjHv7s3VOCkapkb02oAUStd2mINXyVqmWtxbht_MezBV6i7IEIirZ8G3hdHiq3hweNmXW984JWcXK73mPOUAEKyk_5DDHAHyUisXqU40fLZinxFl5VO7R4NSncH6L6o0NHhaX5nJsCAZInaIq5apo25ARoyN14I8ZvkDGnvncSldzgJzw-sGBrrIvH5nnce273jdbM25P3EhLy13M1bVRRfjB-HR6x6xVI7joGlOQ0CeXzIsBpvpcvEVjuzHDPNdmukrY-B9Nn6JJC76FYLvZ9BtBf1ifOgD4TpPnlEVPxCAlFlBJ-EA5gCkhv3bkmGdiIBughBeFvDmWdDGEhq9d_iSiA_4qVdcprVoIRxubeWdhJTOBi_4uTvje7OKMcKNUD7xUHAwEgcZtoicrawpLZ3SUY29_bwSyuGXXaThfDXYN54N5Tt4oOypHLMLZPtA04Rz9xXZtRg4pwoOhnbLsb3mWjw_c0uCqYJ-hO1RO5ohhTj_Z1di2qNGpr7HrS8rZb3X1j3XJrrl2qhOQSkd7UFb2dagr1g1lEWdF5iiBijYsmu-2G0gp7wOnEst981Mc4dDwXWShmqCNQLfOwrbHMqeLsMgVASQ_1u2fp3txDpQcnkkgYl3TgcUfN7OxsdBs5P5e70Q2M7T4DhQcfnMn0UDb2KFxhsM0gWXTAPZfCJlM_yJvkKhESuNaGUcRNOx7tSZp81Y1JuG5v1YuTpm1sUXvkiCOE2QZHLAOtHmJ7N8k6uWqAfTa8PCvSxDMT9AMO7wfKmP8dBJn2uskC2-X8mAZJ1w0J0aigx_DDOLqeSpHFOOvJOrCHjuNWkLfQMmWyoK7vvEnFbake-Ri4UyD7H3a5tLP9jdItCit1O3dbmGourolK4xNjTSYKMOsb5XrcDsyoilWipUb8iaC7pBejfgnurAiexhF66ONqXXq_YAb1nBr5e0PzN0SMUo_6Xmu4HBytCWw5gl6DyVql4DzlhnUtomzdI-nUB2zkhtyYDylhJsSdI_XzTl7-Ul72g6zztd3Clz7QSOtAisNgb3YUeKFAubKFmNKoBTsvTwJjtmugClRikNTrnjPFqg6gue_CTk862msTf_c6wLSgNaPXGw35tU040ICM9inhdQPRSvMwnr7Hrc2an4l8DV_2kx9VWg2pInwGD-ug4WC_uon7Ht9fUeAPotPhs6i4n1xmwklCvJg2b3hIBukq1XjK0cSD0Pk7b6NDDSqwVyDO0QCK4cvBjJtatKFy3sKZeWpuZyJN5wSTlocLYQSe9bNzLfSVYpNTA38M5i9WCEYzEuxRpV8ooYkznRNRmIfpH7_9z-GWXjM1EQFlQX5CU4_pnfn1UrFKRKJ_Ee1j9FsRB4DHUEdKo1ozxgCmfdalfF1t8U46vVc-pVERCjs7kvBz6e1Homz-Hwnaf3l7GcolnhYQxVT0oFLBpCO4gpi8uzDrMwYlIbGtn21whbw_UGEyudZx9sY8o9UpQcVw80b732nHseEwflIkqZT4LQfiLCG5tkawf_A0rTOSaEKaNU8jE6PzVKRWb0ulHcT8leoPzspswzjuk1WpcU5PKIqT1e-epyZQONes08WHg0yi3xd-E9kzEeX5x3bnR5Hpkn2OmWr4kxdX-yZCI6ebiy5Es0uqSsBkPHtdx97bnAentijs-7vdLNNYWdIdtTFf42fqXpF1_It7aMLjrn7cNSccengFDIh-FpeAoZAJLzQMLLGcq-U_7FudKnNhIgHVyBDMhn0QRd_4EzP3JG-Rf43Hta3b3qWc2JglBGDcDYH4nXLXqMvljokh0q9NtjfaV2kSA-_O3437oxSUs5ZzriSWzFRpGVyyj9dVEv-Ji1i-C6USMtwxEZo26xR8ost1gxnjl7Eju8j0Snaavr8h3VXbSI97x4LBKpxXmQcxVGaqnJx02c__gqGdsNUtqhzpD7YcxKx8pUaVhV_HCZ56czB_J5q-H7tFvFr6zv6Fl2kCHnTUVOMVDURq0U1EuUaSdg06MlDDzvfuO6Gzqnh_X6FV2NlduivVcxA87sR6gFwvmNQt9EeA_lPwxettSWWvVJ8FP7NEt_USjzjJNtsagxerg1b7HFr5OkziLa-p1D7jNC6Hj2BH2qNRs9UBHXr6GDqtdA50EusA1ZWjBvsd-lEfxaqll3NNx216R3ll7EOVwJFVbWl8ytp5l6TvvKleHIfMAVrEtAuW3JCOwgoHd3oRaCqDHA2P0cYD9IJkyhwcsq5S_mS1k_oGYu1nOq22hTrF-jo_Nc3Snw8Lzt7sAaSJNZdJOn3fQYRyMtXf6Lmq4-K3AvAspZjsgYxxU-DzX8m_0tJKRXv64izv17TpRQnHL_vgRAOsefdTg16D51XtsOO1FOgKFDDAKvYRI49wcdMinXFsNF5wjzzrIEWfL04fmo_XCCFmcldAEc49YDhOAeCYSuf-779y-Gj4OFgYAdbmzm0mXu-43Pasz-z7Z3XZEMFWdiPBt9gSFtf_8uOdTbyZSIncb0WQ6jyuGH5uFoYlwn8I4SYbfmt5TWvU53iSZisdku9kUOgtl0jQGNxOkzVGQs_AhqbvuJS2OQJtPOI-mkyigPVo1avc-Bj6zub1nzLzdVmV]--></g></svg>