<?xml version="1.0" encoding="us-ascii" standalone="no"?><svg xmlns="http://www.w3.org/2000/svg" xmlns:xlink="http://www.w3.org/1999/xlink" contentStyleType="text/css" height="1061px" preserveAspectRatio="none" style="width:4406px;height:1061px;background:#FFFFFF;" version="1.1" viewBox="0 0 4406 1061" width="4406px" zoomAndPan="magnify"><defs/><g><!--cluster strategies--><g id="cluster_strategies"><rect fill="none" height="707.5" rx="2.5" ry="2.5" style="stroke:#181818;stroke-width:1.0;" width="1596" x="2507" y="347.5"/><text fill="#000000" font-family="sans-serif" font-size="14" font-weight="bold" lengthAdjust="spacing" textLength="71" x="3269.5" y="364.0332">strategies</text></g><!--cluster simpy_visualization_service--><g id="cluster_simpy_visualization_service"><rect fill="none" height="488" rx="2.5" ry="2.5" style="stroke:#181818;stroke-width:1.0;" width="792" x="1691" y="7"/><text fill="#000000" font-family="sans-serif" font-size="14" font-weight="bold" lengthAdjust="spacing" textLength="197" x="1988.5" y="23.5332">simpy_visualization_service</text></g><!--cluster infrastructure--><g id="cluster_infrastructure"><rect fill="none" height="520" rx="2.5" ry="2.5" style="stroke:#181818;stroke-width:1.0;" width="1660" x="7" y="51"/><text fill="#000000" font-family="sans-serif" font-size="14" font-weight="bold" lengthAdjust="spacing" textLength="97" x="788.5" y="67.5332">infrastructure</text></g><!--cluster frontend (sample DTO)--><g id="cluster_frontend (sample DTO)"><rect fill="none" height="234" rx="2.5" ry="2.5" style="stroke:#181818;stroke-width:1.0;" width="210" x="3200" y="42"/><text fill="#000000" font-family="sans-serif" font-size="14" font-weight="bold" lengthAdjust="spacing" textLength="158" x="3226" y="58.5332">frontend (sample DTO)</text></g><!--class StrategyRuntimeState--><g id="elem_StrategyRuntimeState"><rect codeLine="372" fill="#F1F1F1" height="252.4063" id="StrategyRuntimeState" rx="2.5" ry="2.5" style="stroke:#181818;stroke-width:0.5;" width="216" x="3161" y="787"/><ellipse cx="3196.7" cy="808.3516" fill="#ADD1B2" rx="11" ry="11" style="stroke:#181818;stroke-width:1.0;"/><path d="M3199.4656,804.2266 Q3199.6219,804.0078 3199.8094,803.8984 Q3199.9969,803.7891 3200.2156,803.7891 Q3200.5906,803.7891 3200.825,804.0547 Q3201.0594,804.3047 3201.0594,804.9141 L3201.0594,806.3672 Q3201.0594,806.9766 3200.825,807.2422 Q3200.5906,807.5078 3200.2156,807.5078 Q3199.8719,807.5078 3199.6688,807.3047 Q3199.4656,807.1172 3199.3563,806.6016 Q3199.3094,806.2422 3199.1219,806.0547 Q3198.7938,805.6797 3198.1844,805.4609 Q3197.575,805.2422 3196.95,805.2422 Q3196.1844,805.2422 3195.5438,805.5703 Q3194.9188,805.8984 3194.4188,806.6484 Q3193.9344,807.3984 3193.9344,808.4297 L3193.9344,809.5234 Q3193.9344,810.7578 3194.825,811.5859 Q3195.7156,812.3984 3197.3094,812.3984 Q3198.2469,812.3984 3198.9031,812.1484 Q3199.2938,811.9922 3199.7156,811.5547 Q3199.9813,811.2891 3200.1219,811.2109 Q3200.2781,811.1328 3200.4813,811.1328 Q3200.8094,811.1328 3201.0594,811.3984 Q3201.325,811.6484 3201.325,811.9922 Q3201.325,812.3359 3200.9813,812.7422 Q3200.4813,813.3203 3199.6844,813.6484 Q3198.6063,814.1016 3197.3094,814.1016 Q3195.7938,814.1016 3194.5906,813.4766 Q3193.6063,812.9766 3192.9188,811.9141 Q3192.2313,810.8359 3192.2313,809.5547 L3192.2313,808.3984 Q3192.2313,807.0703 3192.8406,805.9297 Q3193.4656,804.7734 3194.5594,804.1641 Q3195.6531,803.5391 3196.8875,803.5391 Q3197.6219,803.5391 3198.2625,803.7109 Q3198.9188,803.8672 3199.4656,804.2266 Z " fill="#000000"/><text fill="#000000" font-family="sans-serif" font-size="12" font-style="italic" lengthAdjust="spacing" textLength="39" x="3264.8" y="804.457">&#171;DTO&#187;</text><text fill="#000000" font-family="sans-serif" font-size="14" lengthAdjust="spacing" textLength="138" x="3215.3" y="821.627">StrategyRuntimeState</text><line style="stroke:#181818;stroke-width:0.5;" x1="3162" x2="3376" y1="829.7031" y2="829.7031"/><text fill="#000000" font-family="sans-serif" font-size="14" lengthAdjust="spacing" textLength="73" x="3167" y="848.2363">+world: Any</text><text fill="#000000" font-family="sans-serif" font-size="14" lengthAdjust="spacing" textLength="83" x="3167" y="865.8457">+block: Block</text><text fill="#000000" font-family="sans-serif" font-size="14" lengthAdjust="spacing" textLength="113" x="3167" y="883.4551">+journey: Journey</text><text fill="#000000" font-family="sans-serif" font-size="14" lengthAdjust="spacing" textLength="119" x="3167" y="901.0645">+journey_index: int</text><text fill="#000000" font-family="sans-serif" font-size="14" lengthAdjust="spacing" textLength="118" x="3167" y="918.6738">+assign_time: float</text><text fill="#000000" font-family="sans-serif" font-size="14" lengthAdjust="spacing" textLength="108" x="3167" y="936.2832">+active_bus: Bus</text><text fill="#000000" font-family="sans-serif" font-size="14" lengthAdjust="spacing" textLength="103" x="3167" y="953.8926">+buses: list[Bus]</text><text fill="#000000" font-family="sans-serif" font-size="14" lengthAdjust="spacing" textLength="204" x="3167" y="971.502">+bus_available_at: dict[str, float]</text><text fill="#000000" font-family="sans-serif" font-size="14" lengthAdjust="spacing" textLength="80" x="3167" y="989.1113">+logger: Any</text><text fill="#000000" font-family="sans-serif" font-size="14" lengthAdjust="spacing" textLength="166" x="3167" y="1006.7207">+journey_end: float | None</text><text fill="#000000" font-family="sans-serif" font-size="14" lengthAdjust="spacing" textLength="147" x="3167" y="1024.3301">+journey_skipped: bool</text><line style="stroke:#181818;stroke-width:0.5;" x1="3162" x2="3376" y1="1031.4063" y2="1031.4063"/></g><!--class SimulationStrategy--><g id="elem_SimulationStrategy"><rect codeLine="386" fill="#F1F1F1" height="111.5313" id="SimulationStrategy" rx="2.5" ry="2.5" style="stroke:#181818;stroke-width:0.5;" width="210" x="2932" y="615"/><ellipse cx="2974" cy="636.3516" fill="#B4A7E5" rx="11" ry="11" style="stroke:#181818;stroke-width:1.0;"/><path d="M2974.9531,632.9922 L2974.9531,639.6484 L2976.6719,639.6484 Q2977.2813,639.6484 2977.5469,639.8828 Q2977.8125,640.1172 2977.8125,640.5078 Q2977.8125,640.8828 2977.5469,641.1172 Q2977.2813,641.3516 2976.6719,641.3516 L2971.5313,641.3516 Q2970.9219,641.3516 2970.6563,641.1172 Q2970.3906,640.8828 2970.3906,640.4922 Q2970.3906,640.1172 2970.6563,639.8828 Q2970.9219,639.6484 2971.5313,639.6484 L2973.25,639.6484 L2973.25,632.9922 L2971.5313,632.9922 Q2970.9219,632.9922 2970.6563,632.7578 Q2970.3906,632.5234 2970.3906,632.1328 Q2970.3906,631.7578 2970.6563,631.5234 Q2970.9219,631.2891 2971.5313,631.2891 L2976.6719,631.2891 Q2977.2813,631.2891 2977.5469,631.5234 Q2977.8125,631.7578 2977.8125,632.1328 Q2977.8125,632.5234 2977.5469,632.7578 Q2977.2813,632.9922 2976.6719,632.9922 L2974.9531,632.9922 Z " fill="#000000"/><text fill="#000000" font-family="sans-serif" font-size="12" font-style="italic" lengthAdjust="spacing" textLength="58" x="3024" y="632.457">&#171;protocol&#187;</text><text fill="#000000" font-family="sans-serif" font-size="14" font-style="italic" lengthAdjust="spacing" textLength="118" x="2994" y="649.627">SimulationStrategy</text><line style="stroke:#181818;stroke-width:0.5;" x1="2933" x2="3141" y1="657.7031" y2="657.7031"/><text fill="#000000" font-family="sans-serif" font-size="14" lengthAdjust="spacing" textLength="113" x="2938" y="676.2363">+strategy_key: str</text><line style="stroke:#181818;stroke-width:0.5;" x1="2933" x2="3141" y1="683.3125" y2="683.3125"/><text fill="#000000" font-family="sans-serif" font-size="14" lengthAdjust="spacing" textLength="198" x="2938" y="701.8457">+before_journey(service, state)</text><text fill="#000000" font-family="sans-serif" font-size="14" lengthAdjust="spacing" textLength="186" x="2938" y="719.4551">+after_journey(service, state)</text></g><g id="elem_GMN5"><path d="M2936.5,891.5 L2936.5,934.2031 A0,0 0 0 0 2936.5,934.2031 L3125.5,934.2031 A0,0 0 0 0 3125.5,934.2031 L3125.5,901.5 L3115.5,891.5 L3066.5,891.5 L3062.5,727.13 L3058.5,891.5 L2936.5,891.5 A0,0 0 0 0 2936.5,891.5 " fill="#FEFFDD" style="stroke:#181818;stroke-width:0.5;"/><path d="M3115.5,891.5 L3115.5,901.5 L3125.5,901.5 L3115.5,891.5 " fill="#FEFFDD" style="stroke:#181818;stroke-width:0.5;"/><text fill="#000000" font-family="sans-serif" font-size="13" lengthAdjust="spacing" textLength="168" x="2942.5" y="909.9951">Concrete classes may define</text><text fill="#000000" font-family="sans-serif" font-size="13" lengthAdjust="spacing" textLength="143" x="2942.5" y="926.3467">enabled_by_default: bool</text></g><!--class SimulationStrategyHost--><g id="elem_SimulationStrategyHost"><rect codeLine="396" fill="#F1F1F1" height="217.1875" id="SimulationStrategyHost" rx="2.5" ry="2.5" style="stroke:#181818;stroke-width:0.5;" width="342" x="2547" y="804.5"/><ellipse cx="2640.25" cy="825.8516" fill="#B4A7E5" rx="11" ry="11" style="stroke:#181818;stroke-width:1.0;"/><path d="M2641.2031,822.4922 L2641.2031,829.1484 L2642.9219,829.1484 Q2643.5313,829.1484 2643.7969,829.3828 Q2644.0625,829.6172 2644.0625,830.0078 Q2644.0625,830.3828 2643.7969,830.6172 Q2643.5313,830.8516 2642.9219,830.8516 L2637.7813,830.8516 Q2637.1719,830.8516 2636.9063,830.6172 Q2636.6406,830.3828 2636.6406,829.9922 Q2636.6406,829.6172 2636.9063,829.3828 Q2637.1719,829.1484 2637.7813,829.1484 L2639.5,829.1484 L2639.5,822.4922 L2637.7813,822.4922 Q2637.1719,822.4922 2636.9063,822.2578 Q2636.6406,822.0234 2636.6406,821.6328 Q2636.6406,821.2578 2636.9063,821.0234 Q2637.1719,820.7891 2637.7813,820.7891 L2642.9219,820.7891 Q2643.5313,820.7891 2643.7969,821.0234 Q2644.0625,821.2578 2644.0625,821.6328 Q2644.0625,822.0234 2643.7969,822.2578 Q2643.5313,822.4922 2642.9219,822.4922 L2641.2031,822.4922 Z " fill="#000000"/><text fill="#000000" font-family="sans-serif" font-size="12" font-style="italic" lengthAdjust="spacing" textLength="58" x="2705.25" y="821.957">&#171;protocol&#187;</text><text fill="#000000" font-family="sans-serif" font-size="14" font-style="italic" lengthAdjust="spacing" textLength="147" x="2660.75" y="839.127">SimulationStrategyHost</text><line style="stroke:#181818;stroke-width:0.5;" x1="2548" x2="2888" y1="847.2031" y2="847.2031"/><text fill="#000000" font-family="sans-serif" font-size="14" lengthAdjust="spacing" textLength="330" x="2553" y="865.7363">+opportunity_charging_soc_threshold_percent: float</text><text fill="#000000" font-family="sans-serif" font-size="14" lengthAdjust="spacing" textLength="288" x="2553" y="883.3457">+opportunity_charging_min_gap_seconds: int</text><text fill="#000000" font-family="sans-serif" font-size="14" lengthAdjust="spacing" textLength="229" x="2553" y="900.9551">+charging_target_soc_percent: float</text><text fill="#000000" font-family="sans-serif" font-size="14" lengthAdjust="spacing" textLength="252" x="2553" y="918.5645">+low_soc_alert_threshold_percent: float</text><text fill="#000000" font-family="sans-serif" font-size="14" lengthAdjust="spacing" textLength="182" x="2553" y="936.1738">+charging_step_seconds: int</text><line style="stroke:#181818;stroke-width:1.0;" x1="2548" x2="2888" y1="943.25" y2="943.25"/><text fill="#000000" font-family="sans-serif" font-size="14" lengthAdjust="spacing" textLength="282" x="2553" y="961.7832">+_can_complete_journey(bus, journey): bool</text><text fill="#000000" font-family="sans-serif" font-size="14" lengthAdjust="spacing" textLength="197" x="2553" y="979.3926">+_select_bus_for_time(...): Bus</text><text fill="#000000" font-family="sans-serif" font-size="14" lengthAdjust="spacing" textLength="250" x="2553" y="997.002">+_log_precheck_replacement(...): None</text><text fill="#000000" font-family="sans-serif" font-size="14" lengthAdjust="spacing" textLength="321" x="2553" y="1014.6113">+_maybe_charge(bus, start_ts, logger, **kw): None</text></g><!--class PrecheckReplacementStrategy--><g id="elem_PrecheckReplacementStrategy"><rect codeLine="409" fill="#F1F1F1" height="136.0469" id="PrecheckReplacementStrategy" rx="2.5" ry="2.5" style="stroke:#181818;stroke-width:0.5;" width="271" x="3479.5" y="387"/><ellipse cx="3514.3" cy="403" fill="#ADD1B2" rx="11" ry="11" style="stroke:#181818;stroke-width:1.0;"/><path d="M3517.0656,398.875 Q3517.2219,398.6563 3517.4094,398.5469 Q3517.5969,398.4375 3517.8156,398.4375 Q3518.1906,398.4375 3518.425,398.7031 Q3518.6594,398.9531 3518.6594,399.5625 L3518.6594,401.0156 Q3518.6594,401.625 3518.425,401.8906 Q3518.1906,402.1563 3517.8156,402.1563 Q3517.4719,402.1563 3517.2688,401.9531 Q3517.0656,401.7656 3516.9563,401.25 Q3516.9094,400.8906 3516.7219,400.7031 Q3516.3938,400.3281 3515.7844,400.1094 Q3515.175,399.8906 3514.55,399.8906 Q3513.7844,399.8906 3513.1438,400.2188 Q3512.5188,400.5469 3512.0188,401.2969 Q3511.5344,402.0469 3511.5344,403.0781 L3511.5344,404.1719 Q3511.5344,405.4063 3512.425,406.2344 Q3513.3156,407.0469 3514.9094,407.0469 Q3515.8469,407.0469 3516.5031,406.7969 Q3516.8938,406.6406 3517.3156,406.2031 Q3517.5813,405.9375 3517.7219,405.8594 Q3517.8781,405.7813 3518.0813,405.7813 Q3518.4094,405.7813 3518.6594,406.0469 Q3518.925,406.2969 3518.925,406.6406 Q3518.925,406.9844 3518.5813,407.3906 Q3518.0813,407.9688 3517.2844,408.2969 Q3516.2063,408.75 3514.9094,408.75 Q3513.3938,408.75 3512.1906,408.125 Q3511.2063,407.625 3510.5188,406.5625 Q3509.8313,405.4844 3509.8313,404.2031 L3509.8313,403.0469 Q3509.8313,401.7188 3510.4406,400.5781 Q3511.0656,399.4219 3512.1594,398.8125 Q3513.2531,398.1875 3514.4875,398.1875 Q3515.2219,398.1875 3515.8625,398.3594 Q3516.5188,398.5156 3517.0656,398.875 Z " fill="#000000"/><text fill="#000000" font-family="sans-serif" font-size="14" lengthAdjust="spacing" textLength="195" x="3532.7" y="408.7285">PrecheckReplacementStrategy</text><line style="stroke:#181818;stroke-width:0.5;" x1="3480.5" x2="3749.5" y1="419" y2="419"/><text fill="#000000" font-family="sans-serif" font-size="14" lengthAdjust="spacing" textLength="259" x="3485.5" y="437.5332">+strategy_key = "precheck_replacement"</text><text fill="#000000" font-family="sans-serif" font-size="14" lengthAdjust="spacing" textLength="184" x="3485.5" y="455.1426">+enabled_by_default = False</text><text fill="#000000" font-family="sans-serif" font-size="14" lengthAdjust="spacing" textLength="170" x="3485.5" y="472.752">-_replacement_counter: int</text><line style="stroke:#181818;stroke-width:1.0;" x1="3480.5" x2="3749.5" y1="479.8281" y2="479.8281"/><text fill="#000000" font-family="sans-serif" font-size="14" lengthAdjust="spacing" textLength="198" x="3485.5" y="498.3613">+before_journey(service, state)</text><text fill="#000000" font-family="sans-serif" font-size="14" lengthAdjust="spacing" textLength="186" x="3485.5" y="515.9707">+after_journey(service, state)</text></g><!--class OpportunityChargingStrategy--><g id="elem_OpportunityChargingStrategy"><rect codeLine="417" fill="#F1F1F1" height="118.4375" id="OpportunityChargingStrategy" rx="2.5" ry="2.5" style="stroke:#181818;stroke-width:0.5;" width="261" x="3183.5" y="396"/><ellipse cx="3218.3" cy="412" fill="#ADD1B2" rx="11" ry="11" style="stroke:#181818;stroke-width:1.0;"/><path d="M3221.0656,407.875 Q3221.2219,407.6563 3221.4094,407.5469 Q3221.5969,407.4375 3221.8156,407.4375 Q3222.1906,407.4375 3222.425,407.7031 Q3222.6594,407.9531 3222.6594,408.5625 L3222.6594,410.0156 Q3222.6594,410.625 3222.425,410.8906 Q3222.1906,411.1563 3221.8156,411.1563 Q3221.4719,411.1563 3221.2688,410.9531 Q3221.0656,410.7656 3220.9563,410.25 Q3220.9094,409.8906 3220.7219,409.7031 Q3220.3938,409.3281 3219.7844,409.1094 Q3219.175,408.8906 3218.55,408.8906 Q3217.7844,408.8906 3217.1438,409.2188 Q3216.5188,409.5469 3216.0188,410.2969 Q3215.5344,411.0469 3215.5344,412.0781 L3215.5344,413.1719 Q3215.5344,414.4063 3216.425,415.2344 Q3217.3156,416.0469 3218.9094,416.0469 Q3219.8469,416.0469 3220.5031,415.7969 Q3220.8938,415.6406 3221.3156,415.2031 Q3221.5813,414.9375 3221.7219,414.8594 Q3221.8781,414.7813 3222.0813,414.7813 Q3222.4094,414.7813 3222.6594,415.0469 Q3222.925,415.2969 3222.925,415.6406 Q3222.925,415.9844 3222.5813,416.3906 Q3222.0813,416.9688 3221.2844,417.2969 Q3220.2063,417.75 3218.9094,417.75 Q3217.3938,417.75 3216.1906,417.125 Q3215.2063,416.625 3214.5188,415.5625 Q3213.8313,414.4844 3213.8313,413.2031 L3213.8313,412.0469 Q3213.8313,410.7188 3214.4406,409.5781 Q3215.0656,408.4219 3216.1594,407.8125 Q3217.2531,407.1875 3218.4875,407.1875 Q3219.2219,407.1875 3219.8625,407.3594 Q3220.5188,407.5156 3221.0656,407.875 Z " fill="#000000"/><text fill="#000000" font-family="sans-serif" font-size="14" lengthAdjust="spacing" textLength="185" x="3236.7" y="417.7285">OpportunityChargingStrategy</text><line style="stroke:#181818;stroke-width:0.5;" x1="3184.5" x2="3443.5" y1="428" y2="428"/><text fill="#000000" font-family="sans-serif" font-size="14" lengthAdjust="spacing" textLength="249" x="3189.5" y="446.5332">+strategy_key = "opportunity_charging"</text><text fill="#000000" font-family="sans-serif" font-size="14" lengthAdjust="spacing" textLength="184" x="3189.5" y="464.1426">+enabled_by_default = False</text><line style="stroke:#181818;stroke-width:1.0;" x1="3184.5" x2="3443.5" y1="471.2188" y2="471.2188"/><text fill="#000000" font-family="sans-serif" font-size="14" lengthAdjust="spacing" textLength="198" x="3189.5" y="489.752">+before_journey(service, state)</text><text fill="#000000" font-family="sans-serif" font-size="14" lengthAdjust="spacing" textLength="186" x="3189.5" y="507.3613">+after_journey(service, state)</text></g><!--class StartFullSocStrategy--><g id="elem_StartFullSocStrategy"><rect codeLine="424" fill="#F1F1F1" height="100.8281" id="StartFullSocStrategy" rx="2.5" ry="2.5" style="stroke:#181818;stroke-width:0.5;" width="211" x="2937.5" y="404.5"/><ellipse cx="2974.55" cy="420.5" fill="#ADD1B2" rx="11" ry="11" style="stroke:#181818;stroke-width:1.0;"/><path d="M2977.3156,416.375 Q2977.4719,416.1563 2977.6594,416.0469 Q2977.8469,415.9375 2978.0656,415.9375 Q2978.4406,415.9375 2978.675,416.2031 Q2978.9094,416.4531 2978.9094,417.0625 L2978.9094,418.5156 Q2978.9094,419.125 2978.675,419.3906 Q2978.4406,419.6563 2978.0656,419.6563 Q2977.7219,419.6563 2977.5188,419.4531 Q2977.3156,419.2656 2977.2063,418.75 Q2977.1594,418.3906 2976.9719,418.2031 Q2976.6438,417.8281 2976.0344,417.6094 Q2975.425,417.3906 2974.8,417.3906 Q2974.0344,417.3906 2973.3938,417.7188 Q2972.7688,418.0469 2972.2688,418.7969 Q2971.7844,419.5469 2971.7844,420.5781 L2971.7844,421.6719 Q2971.7844,422.9063 2972.675,423.7344 Q2973.5656,424.5469 2975.1594,424.5469 Q2976.0969,424.5469 2976.7531,424.2969 Q2977.1438,424.1406 2977.5656,423.7031 Q2977.8313,423.4375 2977.9719,423.3594 Q2978.1281,423.2813 2978.3313,423.2813 Q2978.6594,423.2813 2978.9094,423.5469 Q2979.175,423.7969 2979.175,424.1406 Q2979.175,424.4844 2978.8313,424.8906 Q2978.3313,425.4688 2977.5344,425.7969 Q2976.4563,426.25 2975.1594,426.25 Q2973.6438,426.25 2972.4406,425.625 Q2971.4563,425.125 2970.7688,424.0625 Q2970.0813,422.9844 2970.0813,421.7031 L2970.0813,420.5469 Q2970.0813,419.2188 2970.6906,418.0781 Q2971.3156,416.9219 2972.4094,416.3125 Q2973.5031,415.6875 2974.7375,415.6875 Q2975.4719,415.6875 2976.1125,415.8594 Q2976.7688,416.0156 2977.3156,416.375 Z " fill="#000000"/><text fill="#000000" font-family="sans-serif" font-size="14" lengthAdjust="spacing" textLength="130" x="2993.45" y="426.2285">StartFullSocStrategy</text><line style="stroke:#181818;stroke-width:0.5;" x1="2938.5" x2="3147.5" y1="436.5" y2="436.5"/><text fill="#000000" font-family="sans-serif" font-size="14" lengthAdjust="spacing" textLength="199" x="2943.5" y="455.0332">+strategy_key = "start_full_soc"</text><line style="stroke:#181818;stroke-width:1.0;" x1="2938.5" x2="3147.5" y1="462.1094" y2="462.1094"/><text fill="#000000" font-family="sans-serif" font-size="14" lengthAdjust="spacing" textLength="198" x="2943.5" y="480.6426">+before_journey(service, state)</text><text fill="#000000" font-family="sans-serif" font-size="14" lengthAdjust="spacing" textLength="186" x="2943.5" y="498.252">+after_journey(service, state)</text></g><!--class PowerLimitStrategy--><g id="elem_PowerLimitStrategy"><rect codeLine="430" fill="#F1F1F1" height="100.8281" id="PowerLimitStrategy" rx="2.5" ry="2.5" style="stroke:#181818;stroke-width:0.5;" width="210" x="2692" y="404.5"/><ellipse cx="2732.65" cy="420.5" fill="#ADD1B2" rx="11" ry="11" style="stroke:#181818;stroke-width:1.0;"/><path d="M2735.4156,416.375 Q2735.5719,416.1563 2735.7594,416.0469 Q2735.9469,415.9375 2736.1656,415.9375 Q2736.5406,415.9375 2736.775,416.2031 Q2737.0094,416.4531 2737.0094,417.0625 L2737.0094,418.5156 Q2737.0094,419.125 2736.775,419.3906 Q2736.5406,419.6563 2736.1656,419.6563 Q2735.8219,419.6563 2735.6188,419.4531 Q2735.4156,419.2656 2735.3063,418.75 Q2735.2594,418.3906 2735.0719,418.2031 Q2734.7438,417.8281 2734.1344,417.6094 Q2733.525,417.3906 2732.9,417.3906 Q2732.1344,417.3906 2731.4938,417.7188 Q2730.8688,418.0469 2730.3688,418.7969 Q2729.8844,419.5469 2729.8844,420.5781 L2729.8844,421.6719 Q2729.8844,422.9063 2730.775,423.7344 Q2731.6656,424.5469 2733.2594,424.5469 Q2734.1969,424.5469 2734.8531,424.2969 Q2735.2438,424.1406 2735.6656,423.7031 Q2735.9313,423.4375 2736.0719,423.3594 Q2736.2281,423.2813 2736.4313,423.2813 Q2736.7594,423.2813 2737.0094,423.5469 Q2737.275,423.7969 2737.275,424.1406 Q2737.275,424.4844 2736.9313,424.8906 Q2736.4313,425.4688 2735.6344,425.7969 Q2734.5563,426.25 2733.2594,426.25 Q2731.7438,426.25 2730.5406,425.625 Q2729.5563,425.125 2728.8688,424.0625 Q2728.1813,422.9844 2728.1813,421.7031 L2728.1813,420.5469 Q2728.1813,419.2188 2728.7906,418.0781 Q2729.4156,416.9219 2730.5094,416.3125 Q2731.6031,415.6875 2732.8375,415.6875 Q2733.5719,415.6875 2734.2125,415.8594 Q2734.8688,416.0156 2735.4156,416.375 Z " fill="#000000"/><text fill="#000000" font-family="sans-serif" font-size="14" lengthAdjust="spacing" textLength="121" x="2752.35" y="426.2285">PowerLimitStrategy</text><line style="stroke:#181818;stroke-width:0.5;" x1="2693" x2="2901" y1="436.5" y2="436.5"/><text fill="#000000" font-family="sans-serif" font-size="14" lengthAdjust="spacing" textLength="185" x="2698" y="455.0332">+strategy_key = "power_limit"</text><line style="stroke:#181818;stroke-width:1.0;" x1="2693" x2="2901" y1="462.1094" y2="462.1094"/><text fill="#000000" font-family="sans-serif" font-size="14" lengthAdjust="spacing" textLength="198" x="2698" y="480.6426">+before_journey(service, state)</text><text fill="#000000" font-family="sans-serif" font-size="14" lengthAdjust="spacing" textLength="186" x="2698" y="498.252">+after_journey(service, state)</text></g><!--class StrategyLoader--><g id="elem_StrategyLoader"><rect codeLine="437" fill="#F1F1F1" height="142.75" id="StrategyLoader" rx="2.5" ry="2.5" style="stroke:#181818;stroke-width:0.5;" width="301" x="3785.5" y="383.5"/><ellipse cx="3848.75" cy="404.8516" fill="#ADD1B2" rx="11" ry="11" style="stroke:#181818;stroke-width:1.0;"/><path d="M3851.5156,400.7266 Q3851.6719,400.5078 3851.8594,400.3984 Q3852.0469,400.2891 3852.2656,400.2891 Q3852.6406,400.2891 3852.875,400.5547 Q3853.1094,400.8047 3853.1094,401.4141 L3853.1094,402.8672 Q3853.1094,403.4766 3852.875,403.7422 Q3852.6406,404.0078 3852.2656,404.0078 Q3851.9219,404.0078 3851.7188,403.8047 Q3851.5156,403.6172 3851.4063,403.1016 Q3851.3594,402.7422 3851.1719,402.5547 Q3850.8438,402.1797 3850.2344,401.9609 Q3849.625,401.7422 3849,401.7422 Q3848.2344,401.7422 3847.5938,402.0703 Q3846.9688,402.3984 3846.4688,403.1484 Q3845.9844,403.8984 3845.9844,404.9297 L3845.9844,406.0234 Q3845.9844,407.2578 3846.875,408.0859 Q3847.7656,408.8984 3849.3594,408.8984 Q3850.2969,408.8984 3850.9531,408.6484 Q3851.3438,408.4922 3851.7656,408.0547 Q3852.0313,407.7891 3852.1719,407.7109 Q3852.3281,407.6328 3852.5313,407.6328 Q3852.8594,407.6328 3853.1094,407.8984 Q3853.375,408.1484 3853.375,408.4922 Q3853.375,408.8359 3853.0313,409.2422 Q3852.5313,409.8203 3851.7344,410.1484 Q3850.6563,410.6016 3849.3594,410.6016 Q3847.8438,410.6016 3846.6406,409.9766 Q3845.6563,409.4766 3844.9688,408.4141 Q3844.2813,407.3359 3844.2813,406.0547 L3844.2813,404.8984 Q3844.2813,403.5703 3844.8906,402.4297 Q3845.5156,401.2734 3846.6094,400.6641 Q3847.7031,400.0391 3848.9375,400.0391 Q3849.6719,400.0391 3850.3125,400.2109 Q3850.9688,400.3672 3851.5156,400.7266 Z " fill="#000000"/><text fill="#000000" font-family="sans-serif" font-size="12" font-style="italic" lengthAdjust="spacing" textLength="50" x="3927.25" y="400.957">&#171;artifact&#187;</text><text fill="#000000" font-family="sans-serif" font-size="14" lengthAdjust="spacing" textLength="166" x="3869.25" y="418.127">strategy loader (functions)</text><line style="stroke:#181818;stroke-width:0.5;" x1="3786.5" x2="4085.5" y1="426.2031" y2="426.2031"/><text fill="#000000" font-family="sans-serif" font-size="14" lengthAdjust="spacing" textLength="212" x="3791.5" y="466.3457">_iter_strategy_classes(): list[type]</text><text fill="#000000" font-family="sans-serif" font-size="14" lengthAdjust="spacing" textLength="224" x="3791.5" y="483.9551">build_enabled_strategies(flags): list</text><text fill="#000000" font-family="sans-serif" font-size="14" lengthAdjust="spacing" textLength="289" x="3791.5" y="501.5645">run_before_journey(strategies, service, state)</text><text fill="#000000" font-family="sans-serif" font-size="14" lengthAdjust="spacing" textLength="277" x="3791.5" y="519.1738">run_after_journey(strategies, service, state)</text><line style="stroke:#181818;stroke-width:1.0;stroke-dasharray:1.0,2.0;" x1="3786.5" x2="3906.5" y1="443.0078" y2="443.0078"/><text fill="#000000" font-family="sans-serif" font-size="14" lengthAdjust="spacing" textLength="59" x="3906.5" y="448.2363">loader.py</text><line style="stroke:#181818;stroke-width:1.0;stroke-dasharray:1.0,2.0;" x1="3965.5" x2="4085.5" y1="443.0078" y2="443.0078"/></g><!--class SimpyScheduler--><g id="elem_SimpyScheduler"><rect fill="#F1F1F1" height="48" id="SimpyScheduler" rx="2.5" ry="2.5" style="stroke:#181818;stroke-width:0.5;" width="134" x="2523" y="431"/><ellipse cx="2538" cy="447" fill="#ADD1B2" rx="11" ry="11" style="stroke:#181818;stroke-width:1.0;"/><path d="M2540.7656,442.875 Q2540.9219,442.6563 2541.1094,442.5469 Q2541.2969,442.4375 2541.5156,442.4375 Q2541.8906,442.4375 2542.125,442.7031 Q2542.3594,442.9531 2542.3594,443.5625 L2542.3594,445.0156 Q2542.3594,445.625 2542.125,445.8906 Q2541.8906,446.1563 2541.5156,446.1563 Q2541.1719,446.1563 2540.9688,445.9531 Q2540.7656,445.7656 2540.6563,445.25 Q2540.6094,444.8906 2540.4219,444.7031 Q2540.0938,444.3281 2539.4844,444.1094 Q2538.875,443.8906 2538.25,443.8906 Q2537.4844,443.8906 2536.8438,444.2188 Q2536.2188,444.5469 2535.7188,445.2969 Q2535.2344,446.0469 2535.2344,447.0781 L2535.2344,448.1719 Q2535.2344,449.4063 2536.125,450.2344 Q2537.0156,451.0469 2538.6094,451.0469 Q2539.5469,451.0469 2540.2031,450.7969 Q2540.5938,450.6406 2541.0156,450.2031 Q2541.2813,449.9375 2541.4219,449.8594 Q2541.5781,449.7813 2541.7813,449.7813 Q2542.1094,449.7813 2542.3594,450.0469 Q2542.625,450.2969 2542.625,450.6406 Q2542.625,450.9844 2542.2813,451.3906 Q2541.7813,451.9688 2540.9844,452.2969 Q2539.9063,452.75 2538.6094,452.75 Q2537.0938,452.75 2535.8906,452.125 Q2534.9063,451.625 2534.2188,450.5625 Q2533.5313,449.4844 2533.5313,448.2031 L2533.5313,447.0469 Q2533.5313,445.7188 2534.1406,444.5781 Q2534.7656,443.4219 2535.8594,442.8125 Q2536.9531,442.1875 2538.1875,442.1875 Q2538.9219,442.1875 2539.5625,442.3594 Q2540.2188,442.5156 2540.7656,442.875 Z " fill="#000000"/><text fill="#000000" font-family="sans-serif" font-size="14" lengthAdjust="spacing" textLength="102" x="2552" y="452.7285">SimpyScheduler</text><line style="stroke:#181818;stroke-width:0.5;" x1="2524" x2="2656" y1="463" y2="463"/><line style="stroke:#181818;stroke-width:0.5;" x1="2524" x2="2656" y1="471" y2="471"/></g><!--class SimPyVizService--><g id="elem_SimPyVizService"><rect codeLine="460" fill="#F1F1F1" height="252.4063" id="SimPyVizService" rx="2.5" ry="2.5" style="stroke:#181818;stroke-width:0.5;" width="449" x="1974.5" y="43"/><ellipse cx="2093.75" cy="73.1563" fill="#ADD1B2" rx="11" ry="11" style="stroke:#181818;stroke-width:1.0;"/><path d="M2096.5156,69.0313 Q2096.6719,68.8125 2096.8594,68.7031 Q2097.0469,68.5938 2097.2656,68.5938 Q2097.6406,68.5938 2097.875,68.8594 Q2098.1094,69.1094 2098.1094,69.7188 L2098.1094,71.1719 Q2098.1094,71.7813 2097.875,72.0469 Q2097.6406,72.3125 2097.2656,72.3125 Q2096.9219,72.3125 2096.7188,72.1094 Q2096.5156,71.9219 2096.4063,71.4063 Q2096.3594,71.0469 2096.1719,70.8594 Q2095.8438,70.4844 2095.2344,70.2656 Q2094.625,70.0469 2094,70.0469 Q2093.2344,70.0469 2092.5938,70.375 Q2091.9688,70.7031 2091.4688,71.4531 Q2090.9844,72.2031 2090.9844,73.2344 L2090.9844,74.3281 Q2090.9844,75.5625 2091.875,76.3906 Q2092.7656,77.2031 2094.3594,77.2031 Q2095.2969,77.2031 2095.9531,76.9531 Q2096.3438,76.7969 2096.7656,76.3594 Q2097.0313,76.0938 2097.1719,76.0156 Q2097.3281,75.9375 2097.5313,75.9375 Q2097.8594,75.9375 2098.1094,76.2031 Q2098.375,76.4531 2098.375,76.7969 Q2098.375,77.1406 2098.0313,77.5469 Q2097.5313,78.125 2096.7344,78.4531 Q2095.6563,78.9063 2094.3594,78.9063 Q2092.8438,78.9063 2091.6406,78.2813 Q2090.6563,77.7813 2089.9688,76.7188 Q2089.2813,75.6406 2089.2813,74.3594 L2089.2813,73.2031 Q2089.2813,71.875 2089.8906,70.7344 Q2090.5156,69.5781 2091.6094,68.9688 Q2092.7031,68.3438 2093.9375,68.3438 Q2094.6719,68.3438 2095.3125,68.5156 Q2095.9688,68.6719 2096.5156,69.0313 Z " fill="#000000"/><text fill="#000000" font-family="sans-serif" font-size="12" font-style="italic" lengthAdjust="spacing" textLength="53" x="2188.75" y="60.457">&#171;service&#187;</text><text fill="#000000" font-family="sans-serif" font-size="14" lengthAdjust="spacing" textLength="190" x="2120.25" y="77.627">VisualizationSimulationService</text><text fill="#000000" font-family="sans-serif" font-size="14" lengthAdjust="spacing" textLength="202" x="2114.25" y="95.2363">(simpy_visualization_service.py)</text><line style="stroke:#181818;stroke-width:0.5;" x1="1975.5" x2="2422.5" y1="103.3125" y2="103.3125"/><text fill="#000000" font-family="sans-serif" font-size="14" lengthAdjust="spacing" textLength="252" x="1980.5" y="121.8457">+low_soc_alert_threshold_percent: float</text><text fill="#000000" font-family="sans-serif" font-size="14" lengthAdjust="spacing" textLength="229" x="1980.5" y="139.4551">+charging_target_soc_percent: float</text><text fill="#000000" font-family="sans-serif" font-size="14" lengthAdjust="spacing" textLength="182" x="1980.5" y="157.0645">+charging_step_seconds: int</text><text fill="#000000" font-family="sans-serif" font-size="14" lengthAdjust="spacing" textLength="186" x="1980.5" y="174.6738">+enable_*_strategy: bool (x4)</text><text fill="#000000" font-family="sans-serif" font-size="14" lengthAdjust="spacing" textLength="330" x="1980.5" y="192.2832">+opportunity_charging_soc_threshold_percent: float</text><text fill="#000000" font-family="sans-serif" font-size="14" lengthAdjust="spacing" textLength="288" x="1980.5" y="209.8926">+opportunity_charging_min_gap_seconds: int</text><text fill="#000000" font-family="sans-serif" font-size="14" lengthAdjust="spacing" textLength="186" x="1980.5" y="227.502">+strategy_flags: dict[str, bool]</text><text fill="#000000" font-family="sans-serif" font-size="14" lengthAdjust="spacing" textLength="437" x="1980.5" y="245.1113">+simulation_start_timestamp / simulation_end_timestamp: float | None</text><line style="stroke:#181818;stroke-width:1.0;" x1="1975.5" x2="2422.5" y1="252.1875" y2="252.1875"/><text fill="#000000" font-family="sans-serif" font-size="14" lengthAdjust="spacing" textLength="251" x="1980.5" y="270.7207">+__post_init__(): merges strategy_flags</text><text fill="#000000" font-family="sans-serif" font-size="14" lengthAdjust="spacing" textLength="263" x="1980.5" y="288.3301">+run(world): VisualizationSimulationResult</text></g><!--class InternalEventLog--><g id="elem_InternalEventLog"><rect fill="#F1F1F1" height="48" id="InternalEventLog" rx="2.5" ry="2.5" style="stroke:#181818;stroke-width:0.5;" width="139" x="1707.5" y="431"/><ellipse cx="1722.5" cy="447" fill="#ADD1B2" rx="11" ry="11" style="stroke:#181818;stroke-width:1.0;"/><path d="M1725.2656,442.875 Q1725.4219,442.6563 1725.6094,442.5469 Q1725.7969,442.4375 1726.0156,442.4375 Q1726.3906,442.4375 1726.625,442.7031 Q1726.8594,442.9531 1726.8594,443.5625 L1726.8594,445.0156 Q1726.8594,445.625 1726.625,445.8906 Q1726.3906,446.1563 1726.0156,446.1563 Q1725.6719,446.1563 1725.4688,445.9531 Q1725.2656,445.7656 1725.1563,445.25 Q1725.1094,444.8906 1724.9219,444.7031 Q1724.5938,444.3281 1723.9844,444.1094 Q1723.375,443.8906 1722.75,443.8906 Q1721.9844,443.8906 1721.3438,444.2188 Q1720.7188,444.5469 1720.2188,445.2969 Q1719.7344,446.0469 1719.7344,447.0781 L1719.7344,448.1719 Q1719.7344,449.4063 1720.625,450.2344 Q1721.5156,451.0469 1723.1094,451.0469 Q1724.0469,451.0469 1724.7031,450.7969 Q1725.0938,450.6406 1725.5156,450.2031 Q1725.7813,449.9375 1725.9219,449.8594 Q1726.0781,449.7813 1726.2813,449.7813 Q1726.6094,449.7813 1726.8594,450.0469 Q1727.125,450.2969 1727.125,450.6406 Q1727.125,450.9844 1726.7813,451.3906 Q1726.2813,451.9688 1725.4844,452.2969 Q1724.4063,452.75 1723.1094,452.75 Q1721.5938,452.75 1720.3906,452.125 Q1719.4063,451.625 1718.7188,450.5625 Q1718.0313,449.4844 1718.0313,448.2031 L1718.0313,447.0469 Q1718.0313,445.7188 1718.6406,444.5781 Q1719.2656,443.4219 1720.3594,442.8125 Q1721.4531,442.1875 1722.6875,442.1875 Q1723.4219,442.1875 1724.0625,442.3594 Q1724.7188,442.5156 1725.2656,442.875 Z " fill="#000000"/><text fill="#000000" font-family="sans-serif" font-size="14" lengthAdjust="spacing" textLength="107" x="1736.5" y="452.7285">InternalEventLog</text><line style="stroke:#181818;stroke-width:0.5;" x1="1708.5" x2="1845.5" y1="463" y2="463"/><line style="stroke:#181818;stroke-width:0.5;" x1="1708.5" x2="1845.5" y1="471" y2="471"/></g><!--class LocationPowerAllocator--><g id="elem_LocationPowerAllocator"><rect fill="#F1F1F1" height="48" id="LocationPowerAllocator" rx="2.5" ry="2.5" style="stroke:#181818;stroke-width:0.5;" width="180" x="1882" y="431"/><ellipse cx="1897" cy="447" fill="#ADD1B2" rx="11" ry="11" style="stroke:#181818;stroke-width:1.0;"/><path d="M1899.7656,442.875 Q1899.9219,442.6563 1900.1094,442.5469 Q1900.2969,442.4375 1900.5156,442.4375 Q1900.8906,442.4375 1901.125,442.7031 Q1901.3594,442.9531 1901.3594,443.5625 L1901.3594,445.0156 Q1901.3594,445.625 1901.125,445.8906 Q1900.8906,446.1563 1900.5156,446.1563 Q1900.1719,446.1563 1899.9688,445.9531 Q1899.7656,445.7656 1899.6563,445.25 Q1899.6094,444.8906 1899.4219,444.7031 Q1899.0938,444.3281 1898.4844,444.1094 Q1897.875,443.8906 1897.25,443.8906 Q1896.4844,443.8906 1895.8438,444.2188 Q1895.2188,444.5469 1894.7188,445.2969 Q1894.2344,446.0469 1894.2344,447.0781 L1894.2344,448.1719 Q1894.2344,449.4063 1895.125,450.2344 Q1896.0156,451.0469 1897.6094,451.0469 Q1898.5469,451.0469 1899.2031,450.7969 Q1899.5938,450.6406 1900.0156,450.2031 Q1900.2813,449.9375 1900.4219,449.8594 Q1900.5781,449.7813 1900.7813,449.7813 Q1901.1094,449.7813 1901.3594,450.0469 Q1901.625,450.2969 1901.625,450.6406 Q1901.625,450.9844 1901.2813,451.3906 Q1900.7813,451.9688 1899.9844,452.2969 Q1898.9063,452.75 1897.6094,452.75 Q1896.0938,452.75 1894.8906,452.125 Q1893.9063,451.625 1893.2188,450.5625 Q1892.5313,449.4844 1892.5313,448.2031 L1892.5313,447.0469 Q1892.5313,445.7188 1893.1406,444.5781 Q1893.7656,443.4219 1894.8594,442.8125 Q1895.9531,442.1875 1897.1875,442.1875 Q1897.9219,442.1875 1898.5625,442.3594 Q1899.2188,442.5156 1899.7656,442.875 Z " fill="#000000"/><text fill="#000000" font-family="sans-serif" font-size="14" lengthAdjust="spacing" textLength="148" x="1911" y="452.7285">LocationPowerAllocator</text><line style="stroke:#181818;stroke-width:0.5;" x1="1883" x2="2061" y1="463" y2="463"/><line style="stroke:#181818;stroke-width:0.5;" x1="1883" x2="2061" y1="471" y2="471"/></g><!--class LegacyVizSim--><g id="elem_LegacyVizSim"><rect fill="#F1F1F1" height="48" id="LegacyVizSim" rx="2.5" ry="2.5" style="stroke:#181818;stroke-width:0.5;" width="119" x="2097.5" y="431"/><ellipse cx="2112.5" cy="447" fill="#ADD1B2" rx="11" ry="11" style="stroke:#181818;stroke-width:1.0;"/><path d="M2115.2656,442.875 Q2115.4219,442.6563 2115.6094,442.5469 Q2115.7969,442.4375 2116.0156,442.4375 Q2116.3906,442.4375 2116.625,442.7031 Q2116.8594,442.9531 2116.8594,443.5625 L2116.8594,445.0156 Q2116.8594,445.625 2116.625,445.8906 Q2116.3906,446.1563 2116.0156,446.1563 Q2115.6719,446.1563 2115.4688,445.9531 Q2115.2656,445.7656 2115.1563,445.25 Q2115.1094,444.8906 2114.9219,444.7031 Q2114.5938,444.3281 2113.9844,444.1094 Q2113.375,443.8906 2112.75,443.8906 Q2111.9844,443.8906 2111.3438,444.2188 Q2110.7188,444.5469 2110.2188,445.2969 Q2109.7344,446.0469 2109.7344,447.0781 L2109.7344,448.1719 Q2109.7344,449.4063 2110.625,450.2344 Q2111.5156,451.0469 2113.1094,451.0469 Q2114.0469,451.0469 2114.7031,450.7969 Q2115.0938,450.6406 2115.5156,450.2031 Q2115.7813,449.9375 2115.9219,449.8594 Q2116.0781,449.7813 2116.2813,449.7813 Q2116.6094,449.7813 2116.8594,450.0469 Q2117.125,450.2969 2117.125,450.6406 Q2117.125,450.9844 2116.7813,451.3906 Q2116.2813,451.9688 2115.4844,452.2969 Q2114.4063,452.75 2113.1094,452.75 Q2111.5938,452.75 2110.3906,452.125 Q2109.4063,451.625 2108.7188,450.5625 Q2108.0313,449.4844 2108.0313,448.2031 L2108.0313,447.0469 Q2108.0313,445.7188 2108.6406,444.5781 Q2109.2656,443.4219 2110.3594,442.8125 Q2111.4531,442.1875 2112.6875,442.1875 Q2113.4219,442.1875 2114.0625,442.3594 Q2114.7188,442.5156 2115.2656,442.875 Z " fill="#000000"/><text fill="#000000" font-family="sans-serif" font-size="14" lengthAdjust="spacing" textLength="87" x="2126.5" y="452.7285">LegacyVizSim</text><line style="stroke:#181818;stroke-width:0.5;" x1="2098.5" x2="2215.5" y1="463" y2="463"/><line style="stroke:#181818;stroke-width:0.5;" x1="2098.5" x2="2215.5" y1="471" y2="471"/></g><!--class VisualizationSimulationResult--><g id="elem_VisualizationSimulationResult"><rect fill="#F1F1F1" height="48" id="VisualizationSimulationResult" rx="2.5" ry="2.5" style="stroke:#181818;stroke-width:0.5;" width="215" x="2251.5" y="431"/><ellipse cx="2266.5" cy="447" fill="#ADD1B2" rx="11" ry="11" style="stroke:#181818;stroke-width:1.0;"/><path d="M2269.2656,442.875 Q2269.4219,442.6563 2269.6094,442.5469 Q2269.7969,442.4375 2270.0156,442.4375 Q2270.3906,442.4375 2270.625,442.7031 Q2270.8594,442.9531 2270.8594,443.5625 L2270.8594,445.0156 Q2270.8594,445.625 2270.625,445.8906 Q2270.3906,446.1563 2270.0156,446.1563 Q2269.6719,446.1563 2269.4688,445.9531 Q2269.2656,445.7656 2269.1563,445.25 Q2269.1094,444.8906 2268.9219,444.7031 Q2268.5938,444.3281 2267.9844,444.1094 Q2267.375,443.8906 2266.75,443.8906 Q2265.9844,443.8906 2265.3438,444.2188 Q2264.7188,444.5469 2264.2188,445.2969 Q2263.7344,446.0469 2263.7344,447.0781 L2263.7344,448.1719 Q2263.7344,449.4063 2264.625,450.2344 Q2265.5156,451.0469 2267.1094,451.0469 Q2268.0469,451.0469 2268.7031,450.7969 Q2269.0938,450.6406 2269.5156,450.2031 Q2269.7813,449.9375 2269.9219,449.8594 Q2270.0781,449.7813 2270.2813,449.7813 Q2270.6094,449.7813 2270.8594,450.0469 Q2271.125,450.2969 2271.125,450.6406 Q2271.125,450.9844 2270.7813,451.3906 Q2270.2813,451.9688 2269.4844,452.2969 Q2268.4063,452.75 2267.1094,452.75 Q2265.5938,452.75 2264.3906,452.125 Q2263.4063,451.625 2262.7188,450.5625 Q2262.0313,449.4844 2262.0313,448.2031 L2262.0313,447.0469 Q2262.0313,445.7188 2262.6406,444.5781 Q2263.2656,443.4219 2264.3594,442.8125 Q2265.4531,442.1875 2266.6875,442.1875 Q2267.4219,442.1875 2268.0625,442.3594 Q2268.7188,442.5156 2269.2656,442.875 Z " fill="#000000"/><text fill="#000000" font-family="sans-serif" font-size="14" lengthAdjust="spacing" textLength="183" x="2280.5" y="452.7285">VisualizationSimulationResult</text><line style="stroke:#181818;stroke-width:0.5;" x1="2252.5" x2="2465.5" y1="463" y2="463"/><line style="stroke:#181818;stroke-width:0.5;" x1="2252.5" x2="2465.5" y1="471" y2="471"/></g><!--class OmniplusBusProvider--><g id="elem_OmniplusBusProvider"><rect codeLine="482" fill="#F1F1F1" height="146.75" id="OmniplusBusProvider" rx="2.5" ry="2.5" style="stroke:#181818;stroke-width:0.5;" width="242" x="984" y="95.5"/><ellipse cx="1032.75" cy="116.8516" fill="#ADD1B2" rx="11" ry="11" style="stroke:#181818;stroke-width:1.0;"/><path d="M1035.5156,112.7266 Q1035.6719,112.5078 1035.8594,112.3984 Q1036.0469,112.2891 1036.2656,112.2891 Q1036.6406,112.2891 1036.875,112.5547 Q1037.1094,112.8047 1037.1094,113.4141 L1037.1094,114.8672 Q1037.1094,115.4766 1036.875,115.7422 Q1036.6406,116.0078 1036.2656,116.0078 Q1035.9219,116.0078 1035.7188,115.8047 Q1035.5156,115.6172 1035.4063,115.1016 Q1035.3594,114.7422 1035.1719,114.5547 Q1034.8438,114.1797 1034.2344,113.9609 Q1033.625,113.7422 1033,113.7422 Q1032.2344,113.7422 1031.5938,114.0703 Q1030.9688,114.3984 1030.4688,115.1484 Q1029.9844,115.8984 1029.9844,116.9297 L1029.9844,118.0234 Q1029.9844,119.2578 1030.875,120.0859 Q1031.7656,120.8984 1033.3594,120.8984 Q1034.2969,120.8984 1034.9531,120.6484 Q1035.3438,120.4922 1035.7656,120.0547 Q1036.0313,119.7891 1036.1719,119.7109 Q1036.3281,119.6328 1036.5313,119.6328 Q1036.8594,119.6328 1037.1094,119.8984 Q1037.375,120.1484 1037.375,120.4922 Q1037.375,120.8359 1037.0313,121.2422 Q1036.5313,121.8203 1035.7344,122.1484 Q1034.6563,122.6016 1033.3594,122.6016 Q1031.8438,122.6016 1030.6406,121.9766 Q1029.6563,121.4766 1028.9688,120.4141 Q1028.2813,119.3359 1028.2813,118.0547 L1028.2813,116.8984 Q1028.2813,115.5703 1028.8906,114.4297 Q1029.5156,113.2734 1030.6094,112.6641 Q1031.7031,112.0391 1032.9375,112.0391 Q1033.6719,112.0391 1034.3125,112.2109 Q1034.9688,112.3672 1035.5156,112.7266 Z " fill="#000000"/><text fill="#000000" font-family="sans-serif" font-size="12" font-style="italic" lengthAdjust="spacing" textLength="56" x="1093.25" y="112.957">&#171;adapter&#187;</text><text fill="#000000" font-family="sans-serif" font-size="14" lengthAdjust="spacing" textLength="136" x="1053.25" y="130.127">OmniplusBusProvider</text><line style="stroke:#181818;stroke-width:0.5;" x1="985" x2="1225" y1="138.2031" y2="138.2031"/><text fill="#000000" font-family="sans-serif" font-size="14" lengthAdjust="spacing" textLength="163" x="990" y="156.7363">+client: OmniplusOnClient</text><text fill="#000000" font-family="sans-serif" font-size="14" lengthAdjust="spacing" textLength="82" x="990" y="174.3457">+vins: list[str]</text><text fill="#000000" font-family="sans-serif" font-size="14" lengthAdjust="spacing" textLength="228" x="990" y="191.9551">+vin_to_vehicle_number: dict | None</text><text fill="#000000" font-family="sans-serif" font-size="14" lengthAdjust="spacing" textLength="230" x="990" y="209.5645">+default_battery_capacity_kwh: float</text><line style="stroke:#181818;stroke-width:1.0;" x1="985" x2="1225" y1="216.6406" y2="216.6406"/><text fill="#000000" font-family="sans-serif" font-size="14" lengthAdjust="spacing" textLength="141" x="990" y="235.1738">+get_buses(): list[Bus]</text></g><!--class BusPlanningParquetProvider--><g id="elem_BusPlanningParquetProvider"><rect codeLine="490" fill="#F1F1F1" height="146.75" id="BusPlanningParquetProvider" rx="2.5" ry="2.5" style="stroke:#181818;stroke-width:0.5;" width="332" x="617" y="95.5"/><ellipse cx="687.75" cy="116.8516" fill="#ADD1B2" rx="11" ry="11" style="stroke:#181818;stroke-width:1.0;"/><path d="M690.5156,112.7266 Q690.6719,112.5078 690.8594,112.3984 Q691.0469,112.2891 691.2656,112.2891 Q691.6406,112.2891 691.875,112.5547 Q692.1094,112.8047 692.1094,113.4141 L692.1094,114.8672 Q692.1094,115.4766 691.875,115.7422 Q691.6406,116.0078 691.2656,116.0078 Q690.9219,116.0078 690.7188,115.8047 Q690.5156,115.6172 690.4063,115.1016 Q690.3594,114.7422 690.1719,114.5547 Q689.8438,114.1797 689.2344,113.9609 Q688.625,113.7422 688,113.7422 Q687.2344,113.7422 686.5938,114.0703 Q685.9688,114.3984 685.4688,115.1484 Q684.9844,115.8984 684.9844,116.9297 L684.9844,118.0234 Q684.9844,119.2578 685.875,120.0859 Q686.7656,120.8984 688.3594,120.8984 Q689.2969,120.8984 689.9531,120.6484 Q690.3438,120.4922 690.7656,120.0547 Q691.0313,119.7891 691.1719,119.7109 Q691.3281,119.6328 691.5313,119.6328 Q691.8594,119.6328 692.1094,119.8984 Q692.375,120.1484 692.375,120.4922 Q692.375,120.8359 692.0313,121.2422 Q691.5313,121.8203 690.7344,122.1484 Q689.6563,122.6016 688.3594,122.6016 Q686.8438,122.6016 685.6406,121.9766 Q684.6563,121.4766 683.9688,120.4141 Q683.2813,119.3359 683.2813,118.0547 L683.2813,116.8984 Q683.2813,115.5703 683.8906,114.4297 Q684.5156,113.2734 685.6094,112.6641 Q686.7031,112.0391 687.9375,112.0391 Q688.6719,112.0391 689.3125,112.2109 Q689.9688,112.3672 690.5156,112.7266 Z " fill="#000000"/><text fill="#000000" font-family="sans-serif" font-size="12" font-style="italic" lengthAdjust="spacing" textLength="56" x="771.25" y="112.957">&#171;adapter&#187;</text><text fill="#000000" font-family="sans-serif" font-size="14" lengthAdjust="spacing" textLength="182" x="708.25" y="130.127">BusPlanningParquetProvider</text><line style="stroke:#181818;stroke-width:0.5;" x1="618" x2="948" y1="138.2031" y2="138.2031"/><text fill="#000000" font-family="sans-serif" font-size="14" lengthAdjust="spacing" textLength="180" x="623" y="156.7363">+start_date / end_date: date</text><text fill="#000000" font-family="sans-serif" font-size="14" lengthAdjust="spacing" textLength="99" x="623" y="174.3457">+base_path: str</text><text fill="#000000" font-family="sans-serif" font-size="14" lengthAdjust="spacing" textLength="216" x="623" y="191.9551">+datalake: DataLakeConfig | None</text><text fill="#000000" font-family="sans-serif" font-size="14" lengthAdjust="spacing" textLength="320" x="623" y="209.5645">+simulation_start / simulation_end: datetime | None</text><line style="stroke:#181818;stroke-width:1.0;" x1="618" x2="948" y1="216.6406" y2="216.6406"/><text fill="#000000" font-family="sans-serif" font-size="14" lengthAdjust="spacing" textLength="153" x="623" y="235.1738">+get_blocks(): list[Block]</text></g><!--class ConnectorJsonInfrastructureProvider--><g id="elem_ConnectorJsonInfrastructureProvider"><rect codeLine="498" fill="#F1F1F1" height="164.3594" id="ConnectorJsonInfrastructureProvider" rx="2.5" ry="2.5" style="stroke:#181818;stroke-width:0.5;" width="264" x="23" y="87"/><ellipse cx="38" cy="108.3516" fill="#ADD1B2" rx="11" ry="11" style="stroke:#181818;stroke-width:1.0;"/><path d="M40.7656,104.2266 Q40.9219,104.0078 41.1094,103.8984 Q41.2969,103.7891 41.5156,103.7891 Q41.8906,103.7891 42.125,104.0547 Q42.3594,104.3047 42.3594,104.9141 L42.3594,106.3672 Q42.3594,106.9766 42.125,107.2422 Q41.8906,107.5078 41.5156,107.5078 Q41.1719,107.5078 40.9688,107.3047 Q40.7656,107.1172 40.6563,106.6016 Q40.6094,106.2422 40.4219,106.0547 Q40.0938,105.6797 39.4844,105.4609 Q38.875,105.2422 38.25,105.2422 Q37.4844,105.2422 36.8438,105.5703 Q36.2188,105.8984 35.7188,106.6484 Q35.2344,107.3984 35.2344,108.4297 L35.2344,109.5234 Q35.2344,110.7578 36.125,111.5859 Q37.0156,112.3984 38.6094,112.3984 Q39.5469,112.3984 40.2031,112.1484 Q40.5938,111.9922 41.0156,111.5547 Q41.2813,111.2891 41.4219,111.2109 Q41.5781,111.1328 41.7813,111.1328 Q42.1094,111.1328 42.3594,111.3984 Q42.625,111.6484 42.625,111.9922 Q42.625,112.3359 42.2813,112.7422 Q41.7813,113.3203 40.9844,113.6484 Q39.9063,114.1016 38.6094,114.1016 Q37.0938,114.1016 35.8906,113.4766 Q34.9063,112.9766 34.2188,111.9141 Q33.5313,110.8359 33.5313,109.5547 L33.5313,108.3984 Q33.5313,107.0703 34.1406,105.9297 Q34.7656,104.7734 35.8594,104.1641 Q36.9531,103.5391 38.1875,103.5391 Q38.9219,103.5391 39.5625,103.7109 Q40.2188,103.8672 40.7656,104.2266 Z " fill="#000000"/><text fill="#000000" font-family="sans-serif" font-size="12" font-style="italic" lengthAdjust="spacing" textLength="56" x="140" y="104.457">&#171;adapter&#187;</text><text fill="#000000" font-family="sans-serif" font-size="14" lengthAdjust="spacing" textLength="232" x="52" y="121.627">ConnectorJsonInfrastructureProvider</text><line style="stroke:#181818;stroke-width:0.5;" x1="24" x2="286" y1="129.7031" y2="129.7031"/><text fill="#000000" font-family="sans-serif" font-size="14" lengthAdjust="spacing" textLength="107" x="29" y="148.2363">+json_path: Path</text><text fill="#000000" font-family="sans-serif" font-size="14" lengthAdjust="spacing" textLength="202" x="29" y="165.8457">+power_limits_path: Path | None</text><line style="stroke:#181818;stroke-width:1.0;" x1="24" x2="286" y1="172.9219" y2="172.9219"/><text fill="#000000" font-family="sans-serif" font-size="14" lengthAdjust="spacing" textLength="183" x="29" y="191.4551">+get_grids() / get_locations()</text><text fill="#000000" font-family="sans-serif" font-size="14" lengthAdjust="spacing" textLength="163" x="29" y="209.0645">+get_location_grid_links()</text><text fill="#000000" font-family="sans-serif" font-size="14" lengthAdjust="spacing" textLength="177" x="29" y="226.6738">-_build(): tuple[dict, dict, list]</text><text fill="#000000" font-family="sans-serif" font-size="14" lengthAdjust="spacing" textLength="86" x="29" y="244.2832">-_read_json()</text></g><!--class InfraJsonAdapterError--><g id="elem_InfraJsonAdapterError"><rect codeLine="507" fill="#F1F1F1" height="58.7031" id="InfraJsonAdapterError" rx="2.5" ry="2.5" style="stroke:#181818;stroke-width:0.5;" width="171" x="1261.5" y="139.5"/><ellipse cx="1276.5" cy="160.8516" fill="#ADD1B2" rx="11" ry="11" style="stroke:#181818;stroke-width:1.0;"/><path d="M1279.2656,156.7266 Q1279.4219,156.5078 1279.6094,156.3984 Q1279.7969,156.2891 1280.0156,156.2891 Q1280.3906,156.2891 1280.625,156.5547 Q1280.8594,156.8047 1280.8594,157.4141 L1280.8594,158.8672 Q1280.8594,159.4766 1280.625,159.7422 Q1280.3906,160.0078 1280.0156,160.0078 Q1279.6719,160.0078 1279.4688,159.8047 Q1279.2656,159.6172 1279.1563,159.1016 Q1279.1094,158.7422 1278.9219,158.5547 Q1278.5938,158.1797 1277.9844,157.9609 Q1277.375,157.7422 1276.75,157.7422 Q1275.9844,157.7422 1275.3438,158.0703 Q1274.7188,158.3984 1274.2188,159.1484 Q1273.7344,159.8984 1273.7344,160.9297 L1273.7344,162.0234 Q1273.7344,163.2578 1274.625,164.0859 Q1275.5156,164.8984 1277.1094,164.8984 Q1278.0469,164.8984 1278.7031,164.6484 Q1279.0938,164.4922 1279.5156,164.0547 Q1279.7813,163.7891 1279.9219,163.7109 Q1280.0781,163.6328 1280.2813,163.6328 Q1280.6094,163.6328 1280.8594,163.8984 Q1281.125,164.1484 1281.125,164.4922 Q1281.125,164.8359 1280.7813,165.2422 Q1280.2813,165.8203 1279.4844,166.1484 Q1278.4063,166.6016 1277.1094,166.6016 Q1275.5938,166.6016 1274.3906,165.9766 Q1273.4063,165.4766 1272.7188,164.4141 Q1272.0313,163.3359 1272.0313,162.0547 L1272.0313,160.8984 Q1272.0313,159.5703 1272.6406,158.4297 Q1273.2656,157.2734 1274.3594,156.6641 Q1275.4531,156.0391 1276.6875,156.0391 Q1277.4219,156.0391 1278.0625,156.2109 Q1278.7188,156.3672 1279.2656,156.7266 Z " fill="#000000"/><text fill="#000000" font-family="sans-serif" font-size="12" font-style="italic" lengthAdjust="spacing" textLength="67" x="1326.5" y="156.957">&#171;exception&#187;</text><text fill="#000000" font-family="sans-serif" font-size="14" lengthAdjust="spacing" textLength="139" x="1290.5" y="174.127">InfraJsonAdapterError</text><line style="stroke:#181818;stroke-width:0.5;" x1="1262.5" x2="1431.5" y1="182.2031" y2="182.2031"/><line style="stroke:#181818;stroke-width:0.5;" x1="1262.5" x2="1431.5" y1="190.2031" y2="190.2031"/></g><!--class PlanningAdapterError--><g id="elem_PlanningAdapterError"><rect codeLine="508" fill="#F1F1F1" height="58.7031" id="PlanningAdapterError" rx="2.5" ry="2.5" style="stroke:#181818;stroke-width:0.5;" width="169" x="1467.5" y="139.5"/><ellipse cx="1482.5" cy="160.8516" fill="#ADD1B2" rx="11" ry="11" style="stroke:#181818;stroke-width:1.0;"/><path d="M1485.2656,156.7266 Q1485.4219,156.5078 1485.6094,156.3984 Q1485.7969,156.2891 1486.0156,156.2891 Q1486.3906,156.2891 1486.625,156.5547 Q1486.8594,156.8047 1486.8594,157.4141 L1486.8594,158.8672 Q1486.8594,159.4766 1486.625,159.7422 Q1486.3906,160.0078 1486.0156,160.0078 Q1485.6719,160.0078 1485.4688,159.8047 Q1485.2656,159.6172 1485.1563,159.1016 Q1485.1094,158.7422 1484.9219,158.5547 Q1484.5938,158.1797 1483.9844,157.9609 Q1483.375,157.7422 1482.75,157.7422 Q1481.9844,157.7422 1481.3438,158.0703 Q1480.7188,158.3984 1480.2188,159.1484 Q1479.7344,159.8984 1479.7344,160.9297 L1479.7344,162.0234 Q1479.7344,163.2578 1480.625,164.0859 Q1481.5156,164.8984 1483.1094,164.8984 Q1484.0469,164.8984 1484.7031,164.6484 Q1485.0938,164.4922 1485.5156,164.0547 Q1485.7813,163.7891 1485.9219,163.7109 Q1486.0781,163.6328 1486.2813,163.6328 Q1486.6094,163.6328 1486.8594,163.8984 Q1487.125,164.1484 1487.125,164.4922 Q1487.125,164.8359 1486.7813,165.2422 Q1486.2813,165.8203 1485.4844,166.1484 Q1484.4063,166.6016 1483.1094,166.6016 Q1481.5938,166.6016 1480.3906,165.9766 Q1479.4063,165.4766 1478.7188,164.4141 Q1478.0313,163.3359 1478.0313,162.0547 L1478.0313,160.8984 Q1478.0313,159.5703 1478.6406,158.4297 Q1479.2656,157.2734 1480.3594,156.6641 Q1481.4531,156.0391 1482.6875,156.0391 Q1483.4219,156.0391 1484.0625,156.2109 Q1484.7188,156.3672 1485.2656,156.7266 Z " fill="#000000"/><text fill="#000000" font-family="sans-serif" font-size="12" font-style="italic" lengthAdjust="spacing" textLength="67" x="1531.5" y="156.957">&#171;exception&#187;</text><text fill="#000000" font-family="sans-serif" font-size="14" lengthAdjust="spacing" textLength="137" x="1496.5" y="174.127">PlanningAdapterError</text><line style="stroke:#181818;stroke-width:0.5;" x1="1468.5" x2="1635.5" y1="182.2031" y2="182.2031"/><line style="stroke:#181818;stroke-width:0.5;" x1="1468.5" x2="1635.5" y1="190.2031" y2="190.2031"/></g><!--class DataLakeConfig--><g id="elem_DataLakeConfig"><rect codeLine="510" fill="#F1F1F1" height="93.9219" id="DataLakeConfig" rx="2.5" ry="2.5" style="stroke:#181818;stroke-width:0.5;" width="194" x="254" y="408"/><ellipse cx="296" cy="429.3516" fill="#ADD1B2" rx="11" ry="11" style="stroke:#181818;stroke-width:1.0;"/><path d="M298.7656,425.2266 Q298.9219,425.0078 299.1094,424.8984 Q299.2969,424.7891 299.5156,424.7891 Q299.8906,424.7891 300.125,425.0547 Q300.3594,425.3047 300.3594,425.9141 L300.3594,427.3672 Q300.3594,427.9766 300.125,428.2422 Q299.8906,428.5078 299.5156,428.5078 Q299.1719,428.5078 298.9688,428.3047 Q298.7656,428.1172 298.6563,427.6016 Q298.6094,427.2422 298.4219,427.0547 Q298.0938,426.6797 297.4844,426.4609 Q296.875,426.2422 296.25,426.2422 Q295.4844,426.2422 294.8438,426.5703 Q294.2188,426.8984 293.7188,427.6484 Q293.2344,428.3984 293.2344,429.4297 L293.2344,430.5234 Q293.2344,431.7578 294.125,432.5859 Q295.0156,433.3984 296.6094,433.3984 Q297.5469,433.3984 298.2031,433.1484 Q298.5938,432.9922 299.0156,432.5547 Q299.2813,432.2891 299.4219,432.2109 Q299.5781,432.1328 299.7813,432.1328 Q300.1094,432.1328 300.3594,432.3984 Q300.625,432.6484 300.625,432.9922 Q300.625,433.3359 300.2813,433.7422 Q299.7813,434.3203 298.9844,434.6484 Q297.9063,435.1016 296.6094,435.1016 Q295.0938,435.1016 293.8906,434.4766 Q292.9063,433.9766 292.2188,432.9141 Q291.5313,431.8359 291.5313,430.5547 L291.5313,429.3984 Q291.5313,428.0703 292.1406,426.9297 Q292.7656,425.7734 293.8594,425.1641 Q294.9531,424.5391 296.1875,424.5391 Q296.9219,424.5391 297.5625,424.7109 Q298.2188,424.8672 298.7656,425.2266 Z " fill="#000000"/><text fill="#000000" font-family="sans-serif" font-size="12" font-style="italic" lengthAdjust="spacing" textLength="39" x="347.5" y="425.457">&#171;DTO&#187;</text><text fill="#000000" font-family="sans-serif" font-size="14" lengthAdjust="spacing" textLength="102" x="316" y="442.627">DataLakeConfig</text><line style="stroke:#181818;stroke-width:0.5;" x1="255" x2="447" y1="450.7031" y2="450.7031"/><text fill="#000000" font-family="sans-serif" font-size="14" lengthAdjust="spacing" textLength="182" x="260" y="469.2363">+storage_account: str | None</text><text fill="#000000" font-family="sans-serif" font-size="14" lengthAdjust="spacing" textLength="138" x="260" y="486.8457">+filesystem: str | None</text><line style="stroke:#181818;stroke-width:0.5;" x1="255" x2="447" y1="493.9219" y2="493.9219"/></g><!--class MaximoAssetProvider--><g id="elem_MaximoAssetProvider"><rect codeLine="514" fill="#F1F1F1" height="111.5313" id="MaximoAssetProvider" rx="2.5" ry="2.5" style="stroke:#181818;stroke-width:0.5;" width="260" x="322" y="113"/><ellipse cx="380.25" cy="134.3516" fill="#ADD1B2" rx="11" ry="11" style="stroke:#181818;stroke-width:1.0;"/><path d="M383.0156,130.2266 Q383.1719,130.0078 383.3594,129.8984 Q383.5469,129.7891 383.7656,129.7891 Q384.1406,129.7891 384.375,130.0547 Q384.6094,130.3047 384.6094,130.9141 L384.6094,132.3672 Q384.6094,132.9766 384.375,133.2422 Q384.1406,133.5078 383.7656,133.5078 Q383.4219,133.5078 383.2188,133.3047 Q383.0156,133.1172 382.9063,132.6016 Q382.8594,132.2422 382.6719,132.0547 Q382.3438,131.6797 381.7344,131.4609 Q381.125,131.2422 380.5,131.2422 Q379.7344,131.2422 379.0938,131.5703 Q378.4688,131.8984 377.9688,132.6484 Q377.4844,133.3984 377.4844,134.4297 L377.4844,135.5234 Q377.4844,136.7578 378.375,137.5859 Q379.2656,138.3984 380.8594,138.3984 Q381.7969,138.3984 382.4531,138.1484 Q382.8438,137.9922 383.2656,137.5547 Q383.5313,137.2891 383.6719,137.2109 Q383.8281,137.1328 384.0313,137.1328 Q384.3594,137.1328 384.6094,137.3984 Q384.875,137.6484 384.875,137.9922 Q384.875,138.3359 384.5313,138.7422 Q384.0313,139.3203 383.2344,139.6484 Q382.1563,140.1016 380.8594,140.1016 Q379.3438,140.1016 378.1406,139.4766 Q377.1563,138.9766 376.4688,137.9141 Q375.7813,136.8359 375.7813,135.5547 L375.7813,134.3984 Q375.7813,133.0703 376.3906,131.9297 Q377.0156,130.7734 378.1094,130.1641 Q379.2031,129.5391 380.4375,129.5391 Q381.1719,129.5391 381.8125,129.7109 Q382.4688,129.8672 383.0156,130.2266 Z " fill="#000000"/><text fill="#000000" font-family="sans-serif" font-size="12" font-style="italic" lengthAdjust="spacing" textLength="49" x="443.75" y="130.457">&#171;helper&#187;</text><text fill="#000000" font-family="sans-serif" font-size="14" lengthAdjust="spacing" textLength="135" x="400.75" y="147.627">MaximoAssetProvider</text><line style="stroke:#181818;stroke-width:0.5;" x1="323" x2="581" y1="155.7031" y2="155.7031"/><text fill="#000000" font-family="sans-serif" font-size="14" lengthAdjust="spacing" textLength="216" x="328" y="174.2363">+datalake: DataLakeConfig | None</text><text fill="#000000" font-family="sans-serif" font-size="14" lengthAdjust="spacing" textLength="248" x="328" y="191.8457">+parquet_filesystem / parquet_path: str</text><line style="stroke:#181818;stroke-width:1.0;" x1="323" x2="581" y1="198.9219" y2="198.9219"/><text fill="#000000" font-family="sans-serif" font-size="14" lengthAdjust="spacing" textLength="240" x="328" y="217.4551">+load_bus_assets(query): DataFrame</text></g><!--class MaximoAssetQuery--><g id="elem_MaximoAssetQuery"><rect codeLine="520" fill="#F1F1F1" height="76.3125" id="MaximoAssetQuery" rx="2.5" ry="2.5" style="stroke:#181818;stroke-width:0.5;" width="240" x="1214" y="417"/><ellipse cx="1269.25" cy="438.3516" fill="#ADD1B2" rx="11" ry="11" style="stroke:#181818;stroke-width:1.0;"/><path d="M1272.0156,434.2266 Q1272.1719,434.0078 1272.3594,433.8984 Q1272.5469,433.7891 1272.7656,433.7891 Q1273.1406,433.7891 1273.375,434.0547 Q1273.6094,434.3047 1273.6094,434.9141 L1273.6094,436.3672 Q1273.6094,436.9766 1273.375,437.2422 Q1273.1406,437.5078 1272.7656,437.5078 Q1272.4219,437.5078 1272.2188,437.3047 Q1272.0156,437.1172 1271.9063,436.6016 Q1271.8594,436.2422 1271.6719,436.0547 Q1271.3438,435.6797 1270.7344,435.4609 Q1270.125,435.2422 1269.5,435.2422 Q1268.7344,435.2422 1268.0938,435.5703 Q1267.4688,435.8984 1266.9688,436.6484 Q1266.4844,437.3984 1266.4844,438.4297 L1266.4844,439.5234 Q1266.4844,440.7578 1267.375,441.5859 Q1268.2656,442.3984 1269.8594,442.3984 Q1270.7969,442.3984 1271.4531,442.1484 Q1271.8438,441.9922 1272.2656,441.5547 Q1272.5313,441.2891 1272.6719,441.2109 Q1272.8281,441.1328 1273.0313,441.1328 Q1273.3594,441.1328 1273.6094,441.3984 Q1273.875,441.6484 1273.875,441.9922 Q1273.875,442.3359 1273.5313,442.7422 Q1273.0313,443.3203 1272.2344,443.6484 Q1271.1563,444.1016 1269.8594,444.1016 Q1268.3438,444.1016 1267.1406,443.4766 Q1266.1563,442.9766 1265.4688,441.9141 Q1264.7813,440.8359 1264.7813,439.5547 L1264.7813,438.3984 Q1264.7813,437.0703 1265.3906,435.9297 Q1266.0156,434.7734 1267.1094,434.1641 Q1268.2031,433.5391 1269.4375,433.5391 Q1270.1719,433.5391 1270.8125,433.7109 Q1271.4688,433.8672 1272.0156,434.2266 Z " fill="#000000"/><text fill="#000000" font-family="sans-serif" font-size="12" font-style="italic" lengthAdjust="spacing" textLength="39" x="1330.75" y="434.457">&#171;DTO&#187;</text><text fill="#000000" font-family="sans-serif" font-size="14" lengthAdjust="spacing" textLength="121" x="1289.75" y="451.627">MaximoAssetQuery</text><line style="stroke:#181818;stroke-width:0.5;" x1="1215" x2="1453" y1="459.7031" y2="459.7031"/><text fill="#000000" font-family="sans-serif" font-size="14" lengthAdjust="spacing" textLength="228" x="1220" y="478.2363">+assetnum_min / assetnum_max: int</text><line style="stroke:#181818;stroke-width:0.5;" x1="1215" x2="1453" y1="485.3125" y2="485.3125"/></g><!--class OmniplusAuthConfig--><g id="elem_OmniplusAuthConfig"><rect codeLine="523" fill="#F1F1F1" height="146.75" id="OmniplusAuthConfig" rx="2.5" ry="2.5" style="stroke:#181818;stroke-width:0.5;" width="161" x="1489.5" y="381.5"/><ellipse cx="1504.5" cy="402.8516" fill="#ADD1B2" rx="11" ry="11" style="stroke:#181818;stroke-width:1.0;"/><path d="M1507.2656,398.7266 Q1507.4219,398.5078 1507.6094,398.3984 Q1507.7969,398.2891 1508.0156,398.2891 Q1508.3906,398.2891 1508.625,398.5547 Q1508.8594,398.8047 1508.8594,399.4141 L1508.8594,400.8672 Q1508.8594,401.4766 1508.625,401.7422 Q1508.3906,402.0078 1508.0156,402.0078 Q1507.6719,402.0078 1507.4688,401.8047 Q1507.2656,401.6172 1507.1563,401.1016 Q1507.1094,400.7422 1506.9219,400.5547 Q1506.5938,400.1797 1505.9844,399.9609 Q1505.375,399.7422 1504.75,399.7422 Q1503.9844,399.7422 1503.3438,400.0703 Q1502.7188,400.3984 1502.2188,401.1484 Q1501.7344,401.8984 1501.7344,402.9297 L1501.7344,404.0234 Q1501.7344,405.2578 1502.625,406.0859 Q1503.5156,406.8984 1505.1094,406.8984 Q1506.0469,406.8984 1506.7031,406.6484 Q1507.0938,406.4922 1507.5156,406.0547 Q1507.7813,405.7891 1507.9219,405.7109 Q1508.0781,405.6328 1508.2813,405.6328 Q1508.6094,405.6328 1508.8594,405.8984 Q1509.125,406.1484 1509.125,406.4922 Q1509.125,406.8359 1508.7813,407.2422 Q1508.2813,407.8203 1507.4844,408.1484 Q1506.4063,408.6016 1505.1094,408.6016 Q1503.5938,408.6016 1502.3906,407.9766 Q1501.4063,407.4766 1500.7188,406.4141 Q1500.0313,405.3359 1500.0313,404.0547 L1500.0313,402.8984 Q1500.0313,401.5703 1500.6406,400.4297 Q1501.2656,399.2734 1502.3594,398.6641 Q1503.4531,398.0391 1504.6875,398.0391 Q1505.4219,398.0391 1506.0625,398.2109 Q1506.7188,398.3672 1507.2656,398.7266 Z " fill="#000000"/><text fill="#000000" font-family="sans-serif" font-size="12" font-style="italic" lengthAdjust="spacing" textLength="39" x="1563.5" y="398.957">&#171;DTO&#187;</text><text fill="#000000" font-family="sans-serif" font-size="14" lengthAdjust="spacing" textLength="129" x="1518.5" y="416.127">OmniplusAuthConfig</text><line style="stroke:#181818;stroke-width:0.5;" x1="1490.5" x2="1649.5" y1="424.2031" y2="424.2031"/><text fill="#000000" font-family="sans-serif" font-size="14" lengthAdjust="spacing" textLength="84" x="1495.5" y="442.7363">+client_id: str</text><text fill="#000000" font-family="sans-serif" font-size="14" lengthAdjust="spacing" textLength="112" x="1495.5" y="460.3457">+client_secret: str</text><text fill="#000000" font-family="sans-serif" font-size="14" lengthAdjust="spacing" textLength="70" x="1495.5" y="477.9551">+scope: str</text><text fill="#000000" font-family="sans-serif" font-size="14" lengthAdjust="spacing" textLength="91" x="1495.5" y="495.5645">+token_url: str</text><text fill="#000000" font-family="sans-serif" font-size="14" lengthAdjust="spacing" textLength="123" x="1495.5" y="513.1738">+data_base_url: str</text><line style="stroke:#181818;stroke-width:0.5;" x1="1490.5" x2="1649.5" y1="520.25" y2="520.25"/></g><!--class OmniplusOnClient--><g id="elem_OmniplusOnClient"><rect codeLine="530" fill="#F1F1F1" height="199.5781" id="OmniplusOnClient" rx="2.5" ry="2.5" style="stroke:#181818;stroke-width:0.5;" width="324" x="855" y="355"/><ellipse cx="955.75" cy="376.3516" fill="#ADD1B2" rx="11" ry="11" style="stroke:#181818;stroke-width:1.0;"/><path d="M958.5156,372.2266 Q958.6719,372.0078 958.8594,371.8984 Q959.0469,371.7891 959.2656,371.7891 Q959.6406,371.7891 959.875,372.0547 Q960.1094,372.3047 960.1094,372.9141 L960.1094,374.3672 Q960.1094,374.9766 959.875,375.2422 Q959.6406,375.5078 959.2656,375.5078 Q958.9219,375.5078 958.7188,375.3047 Q958.5156,375.1172 958.4063,374.6016 Q958.3594,374.2422 958.1719,374.0547 Q957.8438,373.6797 957.2344,373.4609 Q956.625,373.2422 956,373.2422 Q955.2344,373.2422 954.5938,373.5703 Q953.9688,373.8984 953.4688,374.6484 Q952.9844,375.3984 952.9844,376.4297 L952.9844,377.5234 Q952.9844,378.7578 953.875,379.5859 Q954.7656,380.3984 956.3594,380.3984 Q957.2969,380.3984 957.9531,380.1484 Q958.3438,379.9922 958.7656,379.5547 Q959.0313,379.2891 959.1719,379.2109 Q959.3281,379.1328 959.5313,379.1328 Q959.8594,379.1328 960.1094,379.3984 Q960.375,379.6484 960.375,379.9922 Q960.375,380.3359 960.0313,380.7422 Q959.5313,381.3203 958.7344,381.6484 Q957.6563,382.1016 956.3594,382.1016 Q954.8438,382.1016 953.6406,381.4766 Q952.6563,380.9766 951.9688,379.9141 Q951.2813,378.8359 951.2813,377.5547 L951.2813,376.3984 Q951.2813,375.0703 951.8906,373.9297 Q952.5156,372.7734 953.6094,372.1641 Q954.7031,371.5391 955.9375,371.5391 Q956.6719,371.5391 957.3125,371.7109 Q957.9688,371.8672 958.5156,372.2266 Z " fill="#000000"/><text fill="#000000" font-family="sans-serif" font-size="12" font-style="italic" lengthAdjust="spacing" textLength="43" x="1011.75" y="372.457">&#171;client&#187;</text><text fill="#000000" font-family="sans-serif" font-size="14" lengthAdjust="spacing" textLength="114" x="976.25" y="389.627">OmniplusOnClient</text><line style="stroke:#181818;stroke-width:0.5;" x1="856" x2="1178" y1="397.7031" y2="397.7031"/><text fill="#000000" font-family="sans-serif" font-size="14" lengthAdjust="spacing" textLength="183" x="861" y="416.2363">+config: OmniplusAuthConfig</text><text fill="#000000" font-family="sans-serif" font-size="14" lengthAdjust="spacing" textLength="173" x="861" y="433.8457">+session: requests.Session</text><text fill="#000000" font-family="sans-serif" font-size="14" lengthAdjust="spacing" textLength="89" x="861" y="451.4551">+timeout: float</text><text fill="#000000" font-family="sans-serif" font-size="14" lengthAdjust="spacing" textLength="123" x="861" y="469.0645">+data_base_url: str</text><text fill="#000000" font-family="sans-serif" font-size="14" lengthAdjust="spacing" textLength="168" x="861" y="486.6738">-_access_token: str | None</text><text fill="#000000" font-family="sans-serif" font-size="14" lengthAdjust="spacing" textLength="199" x="861" y="504.2832">-_token_expiry: datetime | None</text><line style="stroke:#181818;stroke-width:1.0;" x1="856" x2="1178" y1="511.3594" y2="511.3594"/><text fill="#000000" font-family="sans-serif" font-size="14" lengthAdjust="spacing" textLength="190" x="861" y="529.8926">+get_token(force_refresh): str</text><text fill="#000000" font-family="sans-serif" font-size="14" lengthAdjust="spacing" textLength="312" x="861" y="547.502">+get_latest_signals(vins, signal_ids): dict[str, dict]</text></g><!--class BusProviderPort--><g id="elem_BusProviderPort"><rect fill="#F1F1F1" height="48" id="BusProviderPort" rx="2.5" ry="2.5" style="stroke:#181818;stroke-width:0.5;" width="135" x="684.5" y="431"/><ellipse cx="699.5" cy="447" fill="#ADD1B2" rx="11" ry="11" style="stroke:#181818;stroke-width:1.0;"/><path d="M702.2656,442.875 Q702.4219,442.6563 702.6094,442.5469 Q702.7969,442.4375 703.0156,442.4375 Q703.3906,442.4375 703.625,442.7031 Q703.8594,442.9531 703.8594,443.5625 L703.8594,445.0156 Q703.8594,445.625 703.625,445.8906 Q703.3906,446.1563 703.0156,446.1563 Q702.6719,446.1563 702.4688,445.9531 Q702.2656,445.7656 702.1563,445.25 Q702.1094,444.8906 701.9219,444.7031 Q701.5938,444.3281 700.9844,444.1094 Q700.375,443.8906 699.75,443.8906 Q698.9844,443.8906 698.3438,444.2188 Q697.7188,444.5469 697.2188,445.2969 Q696.7344,446.0469 696.7344,447.0781 L696.7344,448.1719 Q696.7344,449.4063 697.625,450.2344 Q698.5156,451.0469 700.1094,451.0469 Q701.0469,451.0469 701.7031,450.7969 Q702.0938,450.6406 702.5156,450.2031 Q702.7813,449.9375 702.9219,449.8594 Q703.0781,449.7813 703.2813,449.7813 Q703.6094,449.7813 703.8594,450.0469 Q704.125,450.2969 704.125,450.6406 Q704.125,450.9844 703.7813,451.3906 Q703.2813,451.9688 702.4844,452.2969 Q701.4063,452.75 700.1094,452.75 Q698.5938,452.75 697.3906,452.125 Q696.4063,451.625 695.7188,450.5625 Q695.0313,449.4844 695.0313,448.2031 L695.0313,447.0469 Q695.0313,445.7188 695.6406,444.5781 Q696.2656,443.4219 697.3594,442.8125 Q698.4531,442.1875 699.6875,442.1875 Q700.4219,442.1875 701.0625,442.3594 Q701.7188,442.5156 702.2656,442.875 Z " fill="#000000"/><text fill="#000000" font-family="sans-serif" font-size="14" lengthAdjust="spacing" textLength="103" x="713.5" y="452.7285">BusProviderPort</text><line style="stroke:#181818;stroke-width:0.5;" x1="685.5" x2="818.5" y1="463" y2="463"/><line style="stroke:#181818;stroke-width:0.5;" x1="685.5" x2="818.5" y1="471" y2="471"/></g><!--class PlanningProviderPort--><g id="elem_PlanningProviderPort"><rect fill="#F1F1F1" height="48" id="PlanningProviderPort" rx="2.5" ry="2.5" style="stroke:#181818;stroke-width:0.5;" width="166" x="483" y="431"/><ellipse cx="498" cy="447" fill="#ADD1B2" rx="11" ry="11" style="stroke:#181818;stroke-width:1.0;"/><path d="M500.7656,442.875 Q500.9219,442.6563 501.1094,442.5469 Q501.2969,442.4375 501.5156,442.4375 Q501.8906,442.4375 502.125,442.7031 Q502.3594,442.9531 502.3594,443.5625 L502.3594,445.0156 Q502.3594,445.625 502.125,445.8906 Q501.8906,446.1563 501.5156,446.1563 Q501.1719,446.1563 500.9688,445.9531 Q500.7656,445.7656 500.6563,445.25 Q500.6094,444.8906 500.4219,444.7031 Q500.0938,444.3281 499.4844,444.1094 Q498.875,443.8906 498.25,443.8906 Q497.4844,443.8906 496.8438,444.2188 Q496.2188,444.5469 495.7188,445.2969 Q495.2344,446.0469 495.2344,447.0781 L495.2344,448.1719 Q495.2344,449.4063 496.125,450.2344 Q497.0156,451.0469 498.6094,451.0469 Q499.5469,451.0469 500.2031,450.7969 Q500.5938,450.6406 501.0156,450.2031 Q501.2813,449.9375 501.4219,449.8594 Q501.5781,449.7813 501.7813,449.7813 Q502.1094,449.7813 502.3594,450.0469 Q502.625,450.2969 502.625,450.6406 Q502.625,450.9844 502.2813,451.3906 Q501.7813,451.9688 500.9844,452.2969 Q499.9063,452.75 498.6094,452.75 Q497.0938,452.75 495.8906,452.125 Q494.9063,451.625 494.2188,450.5625 Q493.5313,449.4844 493.5313,448.2031 L493.5313,447.0469 Q493.5313,445.7188 494.1406,444.5781 Q494.7656,443.4219 495.8594,442.8125 Q496.9531,442.1875 498.1875,442.1875 Q498.9219,442.1875 499.5625,442.3594 Q500.2188,442.5156 500.7656,442.875 Z " fill="#000000"/><text fill="#000000" font-family="sans-serif" font-size="14" lengthAdjust="spacing" textLength="134" x="512" y="452.7285">PlanningProviderPort</text><line style="stroke:#181818;stroke-width:0.5;" x1="484" x2="648" y1="463" y2="463"/><line style="stroke:#181818;stroke-width:0.5;" x1="484" x2="648" y1="471" y2="471"/></g><!--class InfrastructureProviderPort--><g id="elem_InfrastructureProviderPort"><rect fill="#F1F1F1" height="48" id="InfrastructureProviderPort" rx="2.5" ry="2.5" style="stroke:#181818;stroke-width:0.5;" width="195" x="23.5" y="431"/><ellipse cx="38.5" cy="447" fill="#ADD1B2" rx="11" ry="11" style="stroke:#181818;stroke-width:1.0;"/><path d="M41.2656,442.875 Q41.4219,442.6563 41.6094,442.5469 Q41.7969,442.4375 42.0156,442.4375 Q42.3906,442.4375 42.625,442.7031 Q42.8594,442.9531 42.8594,443.5625 L42.8594,445.0156 Q42.8594,445.625 42.625,445.8906 Q42.3906,446.1563 42.0156,446.1563 Q41.6719,446.1563 41.4688,445.9531 Q41.2656,445.7656 41.1563,445.25 Q41.1094,444.8906 40.9219,444.7031 Q40.5938,444.3281 39.9844,444.1094 Q39.375,443.8906 38.75,443.8906 Q37.9844,443.8906 37.3438,444.2188 Q36.7188,444.5469 36.2188,445.2969 Q35.7344,446.0469 35.7344,447.0781 L35.7344,448.1719 Q35.7344,449.4063 36.625,450.2344 Q37.5156,451.0469 39.1094,451.0469 Q40.0469,451.0469 40.7031,450.7969 Q41.0938,450.6406 41.5156,450.2031 Q41.7813,449.9375 41.9219,449.8594 Q42.0781,449.7813 42.2813,449.7813 Q42.6094,449.7813 42.8594,450.0469 Q43.125,450.2969 43.125,450.6406 Q43.125,450.9844 42.7813,451.3906 Q42.2813,451.9688 41.4844,452.2969 Q40.4063,452.75 39.1094,452.75 Q37.5938,452.75 36.3906,452.125 Q35.4063,451.625 34.7188,450.5625 Q34.0313,449.4844 34.0313,448.2031 L34.0313,447.0469 Q34.0313,445.7188 34.6406,444.5781 Q35.2656,443.4219 36.3594,442.8125 Q37.4531,442.1875 38.6875,442.1875 Q39.4219,442.1875 40.0625,442.3594 Q40.7188,442.5156 41.2656,442.875 Z " fill="#000000"/><text fill="#000000" font-family="sans-serif" font-size="14" lengthAdjust="spacing" textLength="163" x="52.5" y="452.7285">InfrastructureProviderPort</text><line style="stroke:#181818;stroke-width:0.5;" x1="24.5" x2="217.5" y1="463" y2="463"/><line style="stroke:#181818;stroke-width:0.5;" x1="24.5" x2="217.5" y1="471" y2="471"/></g><!--class DynamicBusSnapshot--><g id="elem_DynamicBusSnapshot"><rect codeLine="551" fill="#F1F1F1" height="181.9688" id="DynamicBusSnapshot" rx="2.5" ry="2.5" style="stroke:#181818;stroke-width:0.5;" width="177" x="3216.5" y="78"/><ellipse cx="3234.65" cy="99.3516" fill="#ADD1B2" rx="11" ry="11" style="stroke:#181818;stroke-width:1.0;"/><path d="M3237.4156,95.2266 Q3237.5719,95.0078 3237.7594,94.8984 Q3237.9469,94.7891 3238.1656,94.7891 Q3238.5406,94.7891 3238.775,95.0547 Q3239.0094,95.3047 3239.0094,95.9141 L3239.0094,97.3672 Q3239.0094,97.9766 3238.775,98.2422 Q3238.5406,98.5078 3238.1656,98.5078 Q3237.8219,98.5078 3237.6188,98.3047 Q3237.4156,98.1172 3237.3063,97.6016 Q3237.2594,97.2422 3237.0719,97.0547 Q3236.7438,96.6797 3236.1344,96.4609 Q3235.525,96.2422 3234.9,96.2422 Q3234.1344,96.2422 3233.4938,96.5703 Q3232.8688,96.8984 3232.3688,97.6484 Q3231.8844,98.3984 3231.8844,99.4297 L3231.8844,100.5234 Q3231.8844,101.7578 3232.775,102.5859 Q3233.6656,103.3984 3235.2594,103.3984 Q3236.1969,103.3984 3236.8531,103.1484 Q3237.2438,102.9922 3237.6656,102.5547 Q3237.9313,102.2891 3238.0719,102.2109 Q3238.2281,102.1328 3238.4313,102.1328 Q3238.7594,102.1328 3239.0094,102.3984 Q3239.275,102.6484 3239.275,102.9922 Q3239.275,103.3359 3238.9313,103.7422 Q3238.4313,104.3203 3237.6344,104.6484 Q3236.5563,105.1016 3235.2594,105.1016 Q3233.7438,105.1016 3232.5406,104.4766 Q3231.5563,103.9766 3230.8688,102.9141 Q3230.1813,101.8359 3230.1813,100.5547 L3230.1813,99.3984 Q3230.1813,98.0703 3230.7906,96.9297 Q3231.4156,95.7734 3232.5094,95.1641 Q3233.6031,94.5391 3234.8375,94.5391 Q3235.5719,94.5391 3236.2125,94.7109 Q3236.8688,94.8672 3237.4156,95.2266 Z " fill="#000000"/><text fill="#000000" font-family="sans-serif" font-size="12" font-style="italic" lengthAdjust="spacing" textLength="39" x="3298.85" y="95.457">&#171;DTO&#187;</text><text fill="#000000" font-family="sans-serif" font-size="14" lengthAdjust="spacing" textLength="138" x="3249.35" y="112.627">DynamicBusSnapshot</text><line style="stroke:#181818;stroke-width:0.5;" x1="3217.5" x2="3392.5" y1="120.7031" y2="120.7031"/><text fill="#000000" font-family="sans-serif" font-size="14" lengthAdjust="spacing" textLength="69" x="3222.5" y="139.2363">+time: float</text><text fill="#000000" font-family="sans-serif" font-size="14" lengthAdjust="spacing" textLength="81" x="3222.5" y="156.8457">+bus_vin: str</text><text fill="#000000" font-family="sans-serif" font-size="14" lengthAdjust="spacing" textLength="110" x="3222.5" y="174.4551">+bus_number: int</text><text fill="#000000" font-family="sans-serif" font-size="14" lengthAdjust="spacing" textLength="63" x="3222.5" y="192.0645">+state: str</text><text fill="#000000" font-family="sans-serif" font-size="14" lengthAdjust="spacing" textLength="165" x="3222.5" y="209.6738">+soc_percent: float | None</text><text fill="#000000" font-family="sans-serif" font-size="14" lengthAdjust="spacing" textLength="128" x="3222.5" y="227.2832">+block_id: str | None</text><text fill="#000000" font-family="sans-serif" font-size="14" lengthAdjust="spacing" textLength="125" x="3222.5" y="244.8926">+location: str | None</text><line style="stroke:#181818;stroke-width:0.5;" x1="3217.5" x2="3392.5" y1="251.9688" y2="251.9688"/></g><g id="elem_GMN23"><path d="M4119,658 L4119,684.3516 L4399,684.3516 L4399,668 L4389,658 L4119,658 " fill="#FEFFDD" style="stroke:#181818;stroke-width:0.5;"/><path d="M4389,658 L4389,668 L4399,668 L4389,658 " fill="#FEFFDD" style="stroke:#181818;stroke-width:1.0;"/><text fill="#000000" font-family="sans-serif" font-size="13" lengthAdjust="spacing" textLength="259" x="4125" y="676.4951">Module-level functions in strategies/loader.py</text></g><!--link PrecheckReplacementStrategy to SimulationStrategy--><g id="link_PrecheckReplacementStrategy_SimulationStrategy"><path codeLine="445" d="M3479.34,519 C3324.05,519 3090.88,519 3090.88,519 C3090.88,519 3090.88,553.53 3090.88,596.83 " fill="none" id="PrecheckReplacementStrategy-to-SimulationStrategy" style="stroke:#181818;stroke-width:1.0;stroke-dasharray:7.0,7.0;"/><polygon fill="none" points="3090.88,614.83,3096.88,596.83,3084.88,596.83,3090.88,614.83" style="stroke:#181818;stroke-width:1.0;"/></g><!--link OpportunityChargingStrategy to SimulationStrategy--><g id="link_OpportunityChargingStrategy_SimulationStrategy"><path codeLine="446" d="M3183.3,510 C3112.66,510 3039.75,510 3039.75,510 C3039.75,510 3039.75,550.26 3039.75,596.69 " fill="none" id="OpportunityChargingStrategy-to-SimulationStrategy" style="stroke:#181818;stroke-width:1.0;stroke-dasharray:7.0,7.0;"/><polygon fill="none" points="3039.75,614.69,3045.75,596.69,3033.75,596.69,3039.75,614.69" style="stroke:#181818;stroke-width:1.0;"/></g><!--link StartFullSocStrategy to SimulationStrategy--><g id="link_StartFullSocStrategy_SimulationStrategy"><path codeLine="447" d="M2988.62,505.64 C2988.62,538.44 2988.62,563.17 2988.62,596.98 " fill="none" id="StartFullSocStrategy-to-SimulationStrategy" style="stroke:#181818;stroke-width:1.0;stroke-dasharray:7.0,7.0;"/><polygon fill="none" points="2988.62,614.98,2994.62,596.98,2982.62,596.98,2988.62,614.98" style="stroke:#181818;stroke-width:1.0;"/></g><!--link PowerLimitStrategy to SimulationStrategy--><g id="link_PowerLimitStrategy_SimulationStrategy"><path codeLine="448" d="M2895.5,505.73 C2895.5,564.4 2895.5,653 2895.5,653 C2895.5,653 2893.1,653 2913.94,653 " fill="none" id="PowerLimitStrategy-to-SimulationStrategy" style="stroke:#181818;stroke-width:1.0;stroke-dasharray:7.0,7.0;"/><polygon fill="none" points="2931.94,653,2913.94,647,2913.94,659,2931.94,653" style="stroke:#181818;stroke-width:1.0;"/></g><!--link SimpyScheduler to SimulationStrategyHost--><g id="link_SimpyScheduler_SimulationStrategyHost"><path codeLine="449" d="M2583.67,479.3 C2583.67,539.13 2583.67,678.49 2583.67,786.26 " fill="none" id="SimpyScheduler-to-SimulationStrategyHost" style="stroke:#181818;stroke-width:1.0;stroke-dasharray:7.0,7.0;"/><polygon fill="none" points="2583.67,804.26,2589.67,786.26,2577.67,786.26,2583.67,804.26" style="stroke:#181818;stroke-width:1.0;"/></g><!--reverse link SimpyScheduler to SimulationStrategy--><g id="link_SimpyScheduler_SimulationStrategy"><path codeLine="450" d="M2620.33,491.26 C2620.33,551.31 2620.33,690 2620.33,690 C2620.33,690 2808.42,690 2931.86,690 " fill="none" id="SimpyScheduler-backto-SimulationStrategy" style="stroke:#181818;stroke-width:1.0;"/><polygon fill="none" points="2620.33,479.26,2616.33,485.26,2620.33,491.26,2624.33,485.26,2620.33,479.26" style="stroke:#181818;stroke-width:1.0;"/><text fill="#000000" font-family="sans-serif" font-size="13" lengthAdjust="spacing" textLength="57" x="2612.73" y="686.4951">strategies</text><text fill="#000000" font-family="sans-serif" font-size="13" lengthAdjust="spacing" textLength="20" x="2904.124" y="688.2617">0..*</text></g><!--link SimulationStrategy to SimulationStrategyHost--><g id="link_SimulationStrategy_SimulationStrategyHost"><path codeLine="451" d="M2999.5,727 C2999.5,778.86 2999.5,848 2999.5,848 C2999.5,848 2954,848 2895.05,848 " fill="none" id="SimulationStrategy-to-SimulationStrategyHost" style="stroke:#181818;stroke-width:1.0;stroke-dasharray:7.0,7.0;"/><polygon fill="#181818" points="2889.05,848,2898.05,852,2894.05,848,2898.05,844,2889.05,848" style="stroke:#181818;stroke-width:1.0;"/><text fill="#000000" font-family="sans-serif" font-size="13" lengthAdjust="spacing" textLength="40" x="2958.5" y="839.2251">service</text></g><!--link SimulationStrategy to StrategyRuntimeState--><g id="link_SimulationStrategy_StrategyRuntimeState"><path codeLine="452" d="M3133.75,727.28 C3133.75,760.46 3133.75,796 3133.75,796 C3133.75,796 3138.9,796 3154.79,796 " fill="none" id="SimulationStrategy-to-StrategyRuntimeState" style="stroke:#181818;stroke-width:1.0;stroke-dasharray:7.0,7.0;"/><polygon fill="#181818" points="3160.79,796,3151.79,792,3155.79,796,3151.79,800,3160.79,796" style="stroke:#181818;stroke-width:1.0;"/></g><!--link StrategyLoader to GMN23--><g id="link_StrategyLoader_GMN23"><path d="M3936,526.62 C3936,589.5 3936,671 3936,671 C3936,671 4031.57,671 4118.74,671 " fill="none" id="StrategyLoader-GMN23" style="stroke:#181818;stroke-width:1.0;stroke-dasharray:7.0,7.0;"/></g><!--link SimPyVizService to SimpyScheduler--><g id="link_SimPyVizService_SimpyScheduler"><path codeLine="473" d="M2423.61,284 C2510.75,284 2590,284 2590,284 C2590,284 2590,377.73 2590,424.86 " fill="none" id="SimPyVizService-to-SimpyScheduler" style="stroke:#181818;stroke-width:1.0;stroke-dasharray:7.0,7.0;"/><polygon fill="#181818" points="2590,430.86,2594,421.86,2590,425.86,2586,421.86,2590,430.86" style="stroke:#181818;stroke-width:1.0;"/><text fill="#000000" font-family="sans-serif" font-size="13" lengthAdjust="spacing" textLength="34" x="2545.24" y="280.4951">builds</text></g><!--link SimPyVizService to InternalEventLog--><g id="link_SimPyVizService_InternalEventLog"><path codeLine="474" d="M1974.41,273 C1873.63,273 1777,273 1777,273 C1777,273 1777,375.32 1777,424.83 " fill="none" id="SimPyVizService-to-InternalEventLog" style="stroke:#181818;stroke-width:1.0;stroke-dasharray:7.0,7.0;"/><polygon fill="#181818" points="1777,430.83,1781,421.83,1777,425.83,1773,421.83,1777,430.83" style="stroke:#181818;stroke-width:1.0;"/></g><!--link SimPyVizService to LocationPowerAllocator--><g id="link_SimPyVizService_LocationPowerAllocator"><path codeLine="475" d="M2018.25,295.28 C2018.25,346.45 2018.25,394.53 2018.25,424.79 " fill="none" id="SimPyVizService-to-LocationPowerAllocator" style="stroke:#181818;stroke-width:1.0;stroke-dasharray:7.0,7.0;"/><polygon fill="#181818" points="2018.25,430.79,2022.25,421.79,2018.25,425.79,2014.25,421.79,2018.25,430.79" style="stroke:#181818;stroke-width:1.0;"/></g><!--link SimPyVizService to StrategyLoader--><g id="link_SimPyVizService_StrategyLoader"><path codeLine="476" d="M2423.86,272 C2893.63,272 3936,272 3936,272 C3936,272 3936,326.14 3936,377.46 " fill="none" id="SimPyVizService-to-StrategyLoader" style="stroke:#181818;stroke-width:1.0;stroke-dasharray:7.0,7.0;"/><polygon fill="#181818" points="3936,383.46,3940,374.46,3936,378.46,3932,374.46,3936,383.46" style="stroke:#181818;stroke-width:1.0;"/><text fill="#000000" font-family="sans-serif" font-size="13" lengthAdjust="spacing" textLength="143" x="3091.66" y="286.4951">build_enabled_strategies</text></g><!--link SimPyVizService to LegacyVizSim--><g id="link_SimPyVizService_LegacyVizSim"><path codeLine="477" d="M2157,295.28 C2157,346.45 2157,394.53 2157,424.79 " fill="none" id="SimPyVizService-to-LegacyVizSim" style="stroke:#181818;stroke-width:1.0;stroke-dasharray:7.0,7.0;"/><polygon fill="#181818" points="2157,430.79,2161,421.79,2157,425.79,2153,421.79,2157,430.79" style="stroke:#181818;stroke-width:1.0;"/><text fill="#000000" font-family="sans-serif" font-size="13" lengthAdjust="spacing" textLength="86" x="2070" y="359.5251">_to_world_view</text></g><!--link SimPyVizService to VisualizationSimulationResult--><g id="link_SimPyVizService_VisualizationSimulationResult"><path codeLine="478" d="M2337.5,295.28 C2337.5,346.45 2337.5,394.53 2337.5,424.79 " fill="none" id="SimPyVizService-to-VisualizationSimulationResult" style="stroke:#181818;stroke-width:1.0;stroke-dasharray:7.0,7.0;"/><polygon fill="#181818" points="2337.5,430.79,2341.5,421.79,2337.5,425.79,2333.5,421.79,2337.5,430.79" style="stroke:#181818;stroke-width:1.0;"/></g><!--link OmniplusBusProvider to BusProviderPort--><g id="link_OmniplusBusProvider_BusProviderPort"><path codeLine="542" d="M1049,242.81 C1049,245.46 1049,247 1049,247 C1049,247 752,247 752,247 C752,247 752,357.86 752,412.73 " fill="none" id="OmniplusBusProvider-to-BusProviderPort" style="stroke:#181818;stroke-width:1.0;stroke-dasharray:7.0,7.0;"/><polygon fill="none" points="752,430.73,758,412.73,746,412.73,752,430.73" style="stroke:#181818;stroke-width:1.0;"/></g><!--link BusPlanningParquetProvider to PlanningProviderPort--><g id="link_BusPlanningParquetProvider_PlanningProviderPort"><path codeLine="543" d="M638.33,242.65 C638.33,304.72 638.33,371.78 638.33,412.86 " fill="none" id="BusPlanningParquetProvider-to-PlanningProviderPort" style="stroke:#181818;stroke-width:1.0;stroke-dasharray:7.0,7.0;"/><polygon fill="none" points="638.33,430.86,644.33,412.86,632.33,412.86,638.33,430.86" style="stroke:#181818;stroke-width:1.0;"/></g><!--link ConnectorJsonInfrastructureProvider to InfrastructureProviderPort--><g id="link_ConnectorJsonInfrastructureProvider_InfrastructureProviderPort"><path codeLine="544" d="M121,251.34 C121,312.4 121,373.57 121,412.78 " fill="none" id="ConnectorJsonInfrastructureProvider-to-InfrastructureProviderPort" style="stroke:#181818;stroke-width:1.0;stroke-dasharray:7.0,7.0;"/><polygon fill="none" points="121,430.78,127,412.78,115,412.78,121,430.78" style="stroke:#181818;stroke-width:1.0;"/></g><!--link OmniplusBusProvider to OmniplusOnClient--><g id="link_OmniplusBusProvider_OmniplusOnClient"><path codeLine="545" d="M1114,242.65 C1114,276.83 1114,311.98 1114,348.92 " fill="none" id="OmniplusBusProvider-to-OmniplusOnClient" style="stroke:#181818;stroke-width:1.0;"/><polygon fill="#181818" points="1114,354.92,1118,345.92,1114,349.92,1110,345.92,1114,354.92" style="stroke:#181818;stroke-width:1.0;"/></g><!--link MaximoAssetProvider to DataLakeConfig--><g id="link_MaximoAssetProvider_DataLakeConfig"><path codeLine="546" d="M385,225.16 C385,278.52 385,351.84 385,401.96 " fill="none" id="MaximoAssetProvider-to-DataLakeConfig" style="stroke:#181818;stroke-width:1.0;"/><polygon fill="#181818" points="385,407.96,389,398.96,385,402.96,381,398.96,385,407.96" style="stroke:#181818;stroke-width:1.0;"/></g><!--link BusPlanningParquetProvider to DataLakeConfig--><g id="link_BusPlanningParquetProvider_DataLakeConfig"><path codeLine="547" d="M627.67,242.61 C627.67,316.68 627.67,420 627.67,420 C627.67,420 533.87,420 454.15,420 " fill="none" id="BusPlanningParquetProvider-to-DataLakeConfig" style="stroke:#181818;stroke-width:1.0;"/><polygon fill="#181818" points="448.15,420,457.15,424,453.15,420,457.15,416,448.15,420" style="stroke:#181818;stroke-width:1.0;"/></g><!--SRC=[nJljSjkujV_r51Z_gPpOslQslpJPp5Li9UkEO_lQtdHsKWy78Y4PQufaIT2sDfkP-n1zmZx9FGVV847AsUdsximw57W0dEylW7yWfqnGdhECf3bj6f9nkgdfblphV_z9cZhzRaNJ1rPav3LvO3l2YtLD6r6tgMXhDla3kOPth9wJAgU5QBUvMYNHgoIPNdnMmJi0_zZcWXzNTCD8sOgg5NFIDemSYwhOaB8cLwVl2NkkobgGDVmis9E4RLWgU5aqaqdpm8kA8e8L80RlRiGkPwG605fiSkO1I4mMGjHyrGfsbfR53V-5aJzw83alcDXLW4mjxik9A2iYIh8gXIYtm8bQRJiHNC0UFzn-9CjFv8PlsvmAm0vPbCMvDzrQGWydavnja8KrtzoB2I5ltj3DfcORAjZRj-HxafLRoWjY1qbTbWeE6I51Q5NbFAM83P7ScIxUdHogjJ9Q2LPBi50yX6-hd6rP8UH42Tsm-f6dQj-oJkyPGAjbloEis00_9DZfxQL2ZGfA0A9ergm6aBpS460aq5omMg5Obw9Coro20ozviPbTwR49KAredu3iln_-ZrmjFYp9d-RazFBZuknY37IYvKuE5Djcx3bbbTIE0q3dsYW2uFC545HY-LjPvzcfX5_MDOZkpHixxUrR2tRQAYwpPG4YtvrbOy0Avg8Kxyks683ix_lhyV70DeFWaOqc5ejpIhCpbFf-waxAeW3kbFLbchOLPmCunrT4HE8BJBvEUZ9vGaBsYCCt0wdn6eIGrolm2KsosYMFx9wdEKkAThj2BvFnL7pcXJWYxzhcJW7dfR8BEO5d6WZK-eYSwrSQSbFpB0Br0OOrn0eMUuY0lCDn1NDyh41fbYM0vnJ-FtGZ1fcfUV3UuVPJ_EEDoGsdygyUtJ0Xrmr9FvmZnGwYjmyW3326O0TeDrK0IAktZzjTlPPqglUf4hRTAH6bMipRyOYObJL5Gj3qFd4IWJbL2V9gfkgVEJa3LqLNEVjyXGDdnGtxHykAbDtX4bzZkeIHfG2lCgnE4ckhEvgQEG79gQ6oOkZZYasIqTqSVHhJBy0ZyuBcIMJIpsLR5sm7AEUy4P__gdvgFO5T-QPWKWDwIWfqaL_9HLdeNHg-JHf1Qv48lcLgVtpg0O6V704nYgSHIrBm1aBkfiP5AO2I392bmC_aOJidwxoaGlALaA94CyC8HCgr9-XWkIFIMqK2KGWc_msU7XWfC0aWLpk8bwXc6DTmQIiCpIWZ3hDyA133z-XRCrYpTMGKmxKtR9ZV6QxQ5RZO1EExbOitfswaHeTp0YK8X6EKLsf2Lt5_5o6hfUI-SzBPCLWIbti1s9hNZO1i3D8Up0mIi_S0eY19aT2wve-e3EEmMQiIY3d1LndB1GrV992zbKNME7qSrrPqFlUqtg31-fnNhvue5v5XTAPoL7cQGyXLcjAmi9aUQYjGEjhbr1TFpA4k5dJhgqYZPoHbdMbJDmo36DrcJAP8a4RXSq2HfHHSOi6UHM883dZPPJaiDoOpZoFgHKS2l4aSk-QGrq9A5lBNk6eNEdeAYouES1SieLOdP3IwmS6-folJ0B1F9491HhbXBu0BDhUisB-z1xe7WJ58Out0nmZ773k7r3XxOdaU5ysc0lKLa0WohPagY1tywO2yWbJhO4kBtO5nfl3QkDKEG4UJO_5JPkzOCyo0cR4Woi11EeOgMrXyMfoTBzwTB-MlwnylBiukFiZdanyMrn_C3qpMRvSNYukJPM1W9vfR9stzo61Ba70BHTRgPzZQfNd0D9I1T8aWju1rwjqg-eucAze0ivyweqqE0Gg64mXJlKahxPuxirRZiz9aJJ7ZxKvBmNKzSl0mtHbQPRwWqlBqAq3cT5j9jOJrKwZ5ff8PXy5oLVa4cwUqWdsc7cm81PYqcAn0ciNgNQ8cXHEEY5HK62_NKB6np48TaTbiTZYM4mH2K-8jinOAN_3UgDzYBWTFb-yNFvxV9aOHafCVhpyjvxtflSm0L0oB3LdDE2M8P4_w1IzYeJiQxXbKenlCOOgctSfIHagpOuw6SS1dcW8Im9NxM502ZyIAmTZaSZzPBEYimAiGVE_QD5tDsTBdn0jlIZWnB-KSpLXWrsaweAC4Rtozb0QJCmEFfhofSw1crAbGeCqMqnIbEe_eY9Un22QZhhUIIHarhcrTmt2YfTNbVbjXN4DKfj9H8e0kB6g6hWpnK7xxOJiDJUEUDi3j9pbPtDUikI_ppBCYwwizmmo5iC_uKfgdsFS1XwNCi2V4wP3fTQmExU3u-Aql0ZCKiZVYp7CepXFPvHakXx36CzQbwxDOHXCc7e-KvrYNQQH1S6kUey1fBiS_VpP9nzsHekPkG0zjzQSj8op2ZRfW-TdTb8efRX3o7G6T-AtfHc6xDMkt2ZSAgEmSvcM1TRhuPPEXBw4jXgpSc_G52MN8BgKgZTzaK2PRUyqALQ-7fSZzhk6WYmdwaK1MW4LlpCalbjOWQo62fJL3jTOeMIt6ylxLguSd-DKS6eTI_mRfHL2EIqzBfoUNm05upZicEOsc4PmZ9iZYQmxegE0YNTPQ09aiqOLXH5ocysMKshR2xfnNxpZpNhV8BZArJuVxAU-oUO1iiw8bt0o4f0_XwS5tGgipR4WVPTm8SsdmO3ZkQlkEymF-6lB660GfjgKqg5IqIPjM6rP4lF573urGXNN9Krd-uO11lbC0-j7npPkSRMZgfIJ8CPk6ZDDlqDTGVHJjnjQbT39uPrT6TRi0HZB-8XWif6-OarBcEpJ7SA4QgwMRZ4t3_g1i_lI6RVEmzqPs3RjPo6psrk4p9xq2QU9q4a6HSNCIS7E2O_YkkpGOcLd4WFWIyvVnivx9H9yNlUYquRyWiRgylhqXhydVBg_FJycx7y_WxsjoUdlPlEm4mZkLcM655Islw0gFM5BXik2hkdpa6Qkly2377l8evVjYmB_QLZ1hCDbHMQRgUd_jBtkbkwJVjBPCODtY9eMDB7yM72nzooQowMxtSBtsBfnD6onijtll0SbLiRldeI-BQHL9uS_TNQ-Vx4jB7uCrBpgfUDVoFBjcJPiBUpIcNOMSFbTWEhzI8lCyYC8s7F6I96_KL1JUa6j3UuEc_QM6laQmPNLmrlT5f_ccbpwFwei62WyHvoEornCqmHtD3lpZ2f52KNKPgl4FC9Sk8OvV3suKkHvq7yKUY79-SrNquhBDVYLwv0rK1FmNfPjuFegAFQnL9_YNhpdBpilDHiegq2hiUkNbHYisPeZQ1epyuc-nE932YxnsIlB9HrPI-ucpfnuAMXMZPs2lFVKTF6tJMj7rMn4az8awF8qQMHnn7NyjHv7s3VOCkapkb02oAUStd2mINXyVqmWtxbht_MezBV6i7IEIirZ8G3hdHiq3hweNmXW984JWcXK73mPOUAEKyk_5DDHAHyUisXqU40fLZinxFl5VO7R4NSncH6L6o0NHhaX5nJsCAZInaIq5apo25ARoyN14I8ZvkDGnvncSldzgJzw-sGBrrIvH5nnce273jdbM25P3EhLy13M1bVRRfjB-HR6x6xVI7joGlOQ0CeXzIsBpvpcvEVjuzHDPNdmukrY-B9Nn6JJC76FYLvZ9BtBf1ifOgD4TpPnlEVPxCAlFlBJ-EA5gCkhv3bkmGdiIBughBeFvDmWdDGEhq9d_iSiA_4qVdcprVoIRxubeWdhJTOBi_4uTvje7OKMcKNUD7xUHAwEgcZtoicrawpLZ3SUY29_bwSyuGXXaThfDXYN54N5Tt4oOypHLMLZPtA04Rz9xXZtRg4pwoOhnbLsb3mWjw_c0uCqYJ-hO1RO5ohhTj_Z1di2qNGpr7HrS8rZb3X1j3XJrrl2qhOQSkd7UFb2dagr1g1lEWdF5iiBijYsmu-2G0gp7wOnEst981Mc4dDwXWShmqCNQLfOwrbHMqeLsMgVASQ_1u2fp3txDpQcnkkgYl3TgcUfN7OxsdBs5P5e70Q2M7T4DhQcfnMn0UDb2KFxhsM0gWXTAPZfCJlM_yJvkKhESuNaGUcRNOx7tSZp81Y1JuG5v1YuTpm1sUXvkiCOE2QZHLAOtHmJ7N8k6uWqAfTa8PCvSxDMT9AMO7wfKmP8dBJn2uskC2-X8mAZJ1w0J0aigx_DDOLqeSpHFOOvJOrCHjuNWkLfQMmWyoK7vvEnFbake-Ri4UyD7H3a5tLP9jdItCit1O3dbmGourolK4xNjTSYKMOsb5XrcDsyoilWipUb8iaC7pBejfgnurAiexhF66ONqXXq_YAb1nBr5e0PzN0SMUo_6Xmu4HBytCWw5gl6DyVql4DzlhnUtomzdI-nUB2zkhtyYDylhJsSdI_XzTl7-Ul72g6zztd3Clz7QSOtAisNgb3YUeKFAubKFmNKoBTsvTwJjtmugClRikNTrnjPFqg6gue_CTk862msTf_c6wLSgNaPXGw35tU040ICM9inhdQPRSvMwnr7Hrc2an4l8DV_2kx9VWg2pInwGD-ug4WC_uon7Ht9fUeAPotPhs6i4n1xmwklCvJg2b3hIBukq1XjK0cSD0Pk7b6NDDSqwVyDO0QCK4cvBjJtatKFy3sKZeWpuZyJN5wSTlocLYQSe9bNzLfSVYpNTA38M5i9WCEYzEuxRpV8ooYkznRNRmIfpH7_9z-GWXjM1EQFlQX5CU4_pnfn1UrFKRKJ_Ee1j9FsRB4DHUEdKo1ozxgCmfdalfF1t8U46vVc-pVERCjs7kvBz6e1Homz-Hwnaf3l7GcolnhYQxVT0oFLBpCO4gpi8uzDrMwYlIbGtn21whbw_UGEyudZx9sY8o9UpQcVw80b732nHseEwflIkqZT4LQfiLCG5tkawf_A0rTOSaEKaNU8jE6PzVKRWb0ulHcT8leoPzspswzjuk1WpcU5PKIqT1e-epyZQONes08WHg0yi3xd-E9kzEeX5x3bnR5Hpkn2OmWr4kxdX-yZCI6ebiy5Es0uqSsBkPHtdx97bnAentijs-7vdLNNYWdIdtTFf42fqXpF1_It7aMLjrn7cNSccengFDIh-FpeAoZAJLzQMLLGcq-U_7FudKnNhIgHVyBDMhn0QRd_4EzP3JG-Rf43Hta3b3qWc2JglBGDcDYH4nXLXqMvljokh0q9NtjfaV2kSA-_O3437oxSUs5ZzriSWzFRpGVyyj9dVEv-Ji1i-C6USMtwxEZo26xR8ost1gxnjl7Eju8j0Snaavr8h3VXbSI97x4LBKpxXmQcxVGaqnJx02c__gqGdsNUtqhzpD7YcxKx8pUaVhV_HCZ56czB_J5q-H7tFvFr6zv6Fl2kCHnTUVOMVDURq0U1EuUaSdg06MlDDzvfuO6Gzqnh_X6FV2NlduivVcxA87sR6gFwvmNQt9EeA_lPwxettSWWvVJ8FP7NEt_USjzjJNtsagxerg1b7HFr5OkziLa-p1D7jNC6Hj2BH2qNRs9UBHXr6GDqtdA50EusA1ZWjBvsd-lEfxaqll3NNx216R3ll7EOVwJFVbWl8ytp5l6TvvKleHIfMAVrEtAuW3JCOwgoHd3oRaCqDHA2P0cYD9IJkyhwcsq5S_mS1k_oGYu1nOq22hTrF-jo_Nc3Snw8Lzt7sAaSJNZdJOn3fQYRyMtXf6Lmq4-K3AvAspZjsgYxxU-DzX8m_0tJKRXv64izv17TpRQnHL_vgRAOsefdTg16D51XtsOO1FOgKFDDAKvYRI49wcdMinXFsNF5wjzzrIEWfL04fmo_XCCFmcldAEc49YDhOAeCYSuf-779y-Gj4OFgYAdbmzm0mXu-43Pasz-z7Z3XZEMFWdiPBt9gSFtf_8uOdTbyZSIncb0WQ6jyuGH5uFoYlwn8I4SYbfmt5TWvU53iSZisdku9kUOgtl0jQGNxOkzVGQs_AhqbvuJS2OQJtPOI-mkyigPVo1avc-Bj6zub1nzLzdVmV]--></g></svg>